<svg width="113" height="414" viewBox="0 0 113 414" fill="none" xmlns="http://www.w3.org/2000/svg">
<path d="M-25.4443 414C-27.5456 361.262 -17.367 325.562 5.61687 304.878C11.7569 299.355 18.7505 295.095 25.5472 290.944C28.8963 288.887 32.3767 286.757 35.693 284.519C47.9729 276.217 55.5905 267.301 58.8739 257.338C59.4321 255.713 59.8261 253.981 60.0559 252.212C52.5369 255.569 46.4626 256.688 40.8808 255.749C34.8064 254.703 27.8456 250.19 25.9412 242.43C24.595 236.871 26.5651 230.987 31.2603 226.691C36.8093 221.601 44.4268 220.23 50.1728 223.262C58.9724 227.882 62.7812 238.639 62.3543 248.783C82.6787 238.603 98.8659 219.002 106.057 195.72C113.576 171.318 110.982 143.487 99.0957 121.251C94.3348 112.335 87.9978 103.996 81.8906 95.9466C70.6614 81.1467 59.0709 65.8776 56.9695 46.6377C55.098 28.8417 62.3543 10.5404 75.488 0L76.6372 1.76877C64.0617 11.876 57.1337 29.3471 58.9724 46.3489C60.9753 64.939 71.909 79.3419 83.4338 94.5388C89.6067 102.661 95.9765 111.071 100.836 120.132C112.985 142.873 115.644 171.39 107.961 196.369C100.508 220.591 83.4995 240.913 62.223 251.201C61.9603 253.584 61.4678 255.894 60.7454 258.06C57.265 268.528 49.4176 277.769 36.7437 286.36C33.3946 288.634 29.8813 290.764 26.4994 292.821C19.8012 296.9 12.8732 301.16 6.86457 306.538C-15.6268 326.753 -25.5428 361.839 -23.4742 413.856L-25.4443 414ZM43.6388 223.767C39.4689 223.767 35.3975 225.716 32.5737 228.315C28.5023 232.033 26.7621 237.087 27.9113 241.816C29.5858 248.638 35.8243 252.645 41.2419 253.584C46.4626 254.486 52.2414 253.367 59.4321 250.154C59.7276 250.01 60.0559 249.866 60.3514 249.721C61.0081 239.975 57.462 229.398 49.352 225.139C47.5133 224.2 45.5432 223.767 43.6388 223.767Z" fill="black" fill-opacity="0.18"/>
</svg>
