<svg width="1920" height="120" viewBox="0 0 1920 120" fill="none" xmlns="http://www.w3.org/2000/svg">
<g filter="url(#filter0_d_24_10264)">
<path d="M1277.32 76.9231C1273.15 76.9231 1268.97 78.2417 1266.19 74.945C1265.49 74.2857 1264.8 73.6264 1264.8 72.967C1264.8 72.3077 1264.8 71.6483 1264.1 70.989C1263.4 69.6703 1262.01 70.3296 1259.92 70.3296C1256.45 70.3296 1255.05 68.3516 1252.27 67.0329C1250.18 65.7142 1248.09 65.0549 1246.01 65.0549C1243.22 65.0549 1241.83 66.3736 1240.44 68.3516C1239.05 69.6703 1238.35 70.989 1236.26 70.989C1235.57 70.989 1234.18 70.989 1233.48 70.989C1230 70.989 1226.52 70.989 1223.04 70.989C1220.26 70.989 1218.17 70.3296 1215.39 70.3296C1212.6 70.3296 1210.52 70.3296 1207.73 69.6703C1207.04 69.011 1206.34 69.011 1205.64 69.011C1204.25 69.011 1204.25 69.011 1202.86 67.6923C1202.16 67.0329 1201.47 65.7142 1200.08 65.7142C1199.38 65.7142 1197.29 65.7142 1196.6 65.7142C1191.73 65.7142 1186.85 66.3736 1181.29 66.3736C1179.2 66.3736 1178.5 66.3736 1177.11 67.6923C1175.72 69.011 1176.42 70.3296 1175.02 71.6483C1173.63 73.6263 1168.06 72.967 1165.98 72.3077C1158.32 71.6483 1150.67 71.6483 1143.71 72.3077C1143.01 72.3077 1142.32 72.967 1140.92 72.967C1138.84 72.967 1136.05 71.6483 1133.96 71.6483C1129.79 70.989 1124.22 69.011 1120.74 71.6483C1120.05 72.3077 1120.74 73.6263 1120.05 74.2857C1119.35 74.2857 1117.26 74.2857 1117.26 74.2857C1116.57 74.2857 1115.87 74.945 1115.17 74.945C1113.09 74.945 1111.7 75.6044 1109.61 75.6044C1106.13 75.6044 1102.65 75.6044 1099.17 75.6044C1096.39 75.6044 1093.6 76.2637 1090.12 76.9231C1088.73 76.9231 1087.34 76.9231 1086.64 77.5824C1085.25 78.9011 1085.95 80.2198 1083.86 80.8791C1083.16 80.8791 1081.08 80.8791 1080.38 80.8791C1078.99 80.8791 1076.9 80.8791 1075.51 80.2198C1074.81 80.2198 1074.81 79.5604 1074.81 79.5604C1074.12 79.5604 1074.12 79.5604 1073.42 79.5604C1070.64 78.9011 1068.55 76.2637 1066.46 75.6044C1063.68 74.2857 1060.89 74.2857 1058.11 73.6263C1054.63 72.967 1051.15 70.989 1046.98 70.989C1042.1 70.989 1037.23 70.3296 1032.36 69.6703C1030.97 69.6703 1030.27 69.6703 1028.88 69.6703C1026.1 69.6703 1024.71 69.6703 1022.62 68.3516C1021.23 67.6923 1019.83 67.6923 1018.44 67.0329C1017.75 67.0329 1017.75 66.3736 1017.05 66.3736H1016.36C1016.36 66.3736 1015.66 66.3736 1015.66 67.0329C1014.27 67.6923 1012.88 67.6923 1011.48 67.6923C1010.09 67.6923 1008.7 68.3516 1008 68.3516C1007.31 68.3516 1007.31 69.011 1006.61 69.011C1005.92 69.011 1004.52 69.011 1003.83 69.011C1002.44 69.011 1001.05 69.6703 1000.35 70.3296C997.566 69.011 995.478 69.011 993.39 69.011C991.998 69.011 990.606 69.011 989.911 69.011C988.519 68.3516 987.127 67.6923 985.735 67.6923C983.647 68.3516 982.951 70.3296 981.56 72.3077C980.864 72.967 981.56 72.967 980.168 73.6263C978.776 73.6263 977.384 73.6263 976.688 73.6263C973.209 73.6263 970.425 72.967 967.641 72.3077C964.162 71.6483 959.986 70.989 956.507 70.989C953.027 70.3296 949.548 69.6703 945.372 69.6703C941.893 69.6703 939.109 72.3077 935.629 72.3077C931.454 72.967 925.887 72.3077 922.407 70.3296C921.711 69.6703 920.319 69.011 919.623 69.011C918.231 69.011 917.536 69.011 916.84 69.011C914.056 69.6703 910.576 69.011 907.793 69.011C905.705 69.011 903.617 69.011 901.53 69.011C900.138 69.011 898.746 69.011 897.354 69.011C896.658 69.011 897.354 69.011 895.962 68.3516C894.57 67.6923 893.179 67.0329 891.787 67.0329C886.219 66.3736 881.348 65.0549 875.781 64.3956C872.997 63.7362 870.909 63.7362 868.822 63.7362C867.43 63.7362 864.646 62.4175 863.254 63.0769C861.167 64.3956 861.863 67.0329 861.167 68.3516C860.471 71.6483 858.383 71.6483 855.599 70.989C852.12 70.3296 849.336 68.3516 845.857 69.011C843.769 69.6703 841.681 70.989 839.593 70.989C836.81 70.989 834.722 70.3296 831.938 70.3296C829.851 70.3296 827.763 70.3296 826.371 69.6703C823.587 68.3516 821.5 67.0329 818.02 67.0329C815.932 67.0329 813.845 67.0329 811.757 67.0329C806.885 67.0329 804.102 67.0329 799.926 69.011C798.534 69.6703 797.839 70.3296 796.447 70.3296C793.663 70.3296 790.879 69.011 788.792 68.3516C787.4 67.6923 785.312 68.3516 783.92 67.6923C782.528 67.0329 781.833 66.3736 780.441 66.3736C779.049 66.3736 777.657 66.3736 775.569 65.7142C774.177 65.0549 773.482 64.3956 772.09 63.7362C771.394 63.7362 769.306 63.7362 769.306 63.0769C767.218 63.0769 765.827 62.4175 763.739 62.4175C760.259 63.0769 757.476 65.7142 754.692 67.0329C751.212 69.011 749.125 70.3296 744.949 70.3296C742.166 70.3296 740.078 70.3296 737.294 70.3296C734.51 70.3296 732.423 70.3296 729.639 69.6703C726.855 69.011 724.768 69.6703 721.984 69.011C720.592 68.3516 719.2 67.0329 717.809 66.3736C716.417 66.3736 715.025 66.3736 714.329 66.3736C712.937 66.3736 710.849 66.3736 709.458 66.3736C708.066 66.3736 705.978 66.3736 704.586 66.3736C702.498 66.3736 702.498 67.0329 701.107 67.6923C697.627 69.011 692.756 69.011 688.58 69.011C686.492 69.011 685.101 68.3516 683.013 68.3516C680.925 68.3516 679.533 68.3516 677.446 68.3516C673.966 68.3516 670.486 68.3516 667.007 68.3516C664.919 68.3516 662.831 68.3516 660.744 69.6703C659.352 70.989 658.656 72.3077 656.568 72.3077C655.176 72.3077 654.48 72.3077 653.089 72.3077C647.521 72.3077 641.258 71.6483 636.387 72.3077C634.995 72.3077 633.603 73.6263 632.211 74.2857C630.819 74.945 628.732 74.945 627.34 74.945C625.948 74.945 623.86 75.6044 622.468 74.945C621.772 74.2857 620.381 72.3077 619.685 71.6483C616.205 69.6703 613.422 72.3077 609.246 71.6483C607.158 70.989 607.158 69.6703 605.767 69.011C601.591 69.6703 600.895 69.011 599.503 69.011C598.111 68.3516 597.416 67.6923 595.328 68.3516C592.544 69.011 590.456 71.6483 588.369 73.6263C587.673 73.6263 586.977 72.967 586.281 72.3077C585.585 71.6483 584.193 71.6483 582.801 72.3077C581.41 71.6483 581.41 70.3296 580.018 69.6703C579.322 69.6703 577.93 69.6703 577.234 69.011C575.842 68.3516 573.755 68.3516 572.363 67.6923C570.275 67.6923 568.187 67.6923 566.099 67.6923C565.404 67.6923 563.316 67.6923 562.62 67.6923C561.924 67.6923 561.924 66.3736 561.228 65.7142C560.532 64.3956 557.748 63.7362 556.357 63.0769C553.573 61.0989 549.398 61.7582 545.918 61.0989C545.222 61.0989 545.222 60.4395 544.526 60.4395C543.134 60.4395 541.047 61.0989 539.655 60.4395H538.959C537.567 59.1208 536.871 57.8021 536.175 56.4835C534.783 54.5054 533.392 55.1648 530.608 55.8241C526.432 57.1428 522.257 59.1208 519.473 61.7582C519.473 62.4175 518.081 63.7362 516.69 64.3956C515.994 64.3956 515.994 64.3956 515.298 63.7362C514.602 63.0769 513.906 61.7582 513.21 61.0989C511.122 59.7802 508.339 60.4395 506.251 61.0989C503.467 61.7582 501.38 62.4175 499.292 63.0769C496.508 63.7362 493.724 63.0769 491.637 63.0769C489.549 63.0769 488.853 62.4175 486.765 61.7582C481.894 60.4395 476.327 61.0989 471.455 61.7582C467.976 62.4175 465.888 62.4175 463.104 62.4175C461.713 62.4175 458.929 61.7582 457.537 62.4175C456.841 63.0769 456.841 63.7362 456.145 64.3956C455.449 65.7142 454.753 65.7142 453.362 66.3736C451.274 67.6923 449.186 68.3516 447.098 69.011C445.011 69.6703 442.227 69.011 439.443 69.011C435.964 68.3516 431.788 69.011 428.309 69.011C426.221 69.011 424.829 69.011 422.741 69.6703C421.35 70.3296 419.958 70.3296 418.566 70.989C415.086 71.6483 412.303 70.989 408.823 70.989C406.735 70.989 403.952 70.989 401.864 70.989C399.776 70.3296 398.384 69.6703 396.297 69.6703C391.425 69.011 385.858 65.7142 380.291 67.6923C378.899 68.3516 378.203 69.011 377.507 69.011C376.811 69.011 375.419 69.011 374.723 69.011C371.94 69.011 369.852 69.6703 367.764 70.989C364.981 72.3077 362.893 72.967 360.805 74.945C360.109 75.6044 358.717 75.6044 355.934 75.6044C353.846 75.6044 352.454 75.6044 350.366 76.2637C348.975 76.9231 348.279 76.9231 347.583 76.9231C344.799 76.9231 341.32 76.2637 338.536 76.2637C334.36 76.2637 332.273 74.2857 328.793 72.3077C327.401 71.6483 326.009 71.6483 323.922 70.989C323.226 70.989 322.53 69.6703 321.834 69.6703C319.746 69.011 316.963 69.6703 315.571 69.6703C309.307 69.6703 303.044 70.3296 296.781 69.6703C293.997 69.6703 291.91 67.6923 289.126 67.0329C282.863 66.3736 277.296 64.3956 271.032 63.7362C266.161 63.0769 261.289 63.0769 256.418 65.7142C255.026 66.3736 254.33 67.6923 252.939 68.3516C250.155 69.011 245.979 69.011 243.196 69.011C236.237 70.3296 229.278 71.6483 222.318 71.6483C220.231 71.6483 217.447 71.6483 215.359 69.6703C213.272 69.011 213.272 67.6923 210.488 67.0329C205.616 66.3736 196.57 67.6923 193.09 70.989C191.002 72.967 190.306 74.945 188.915 76.9231C188.219 77.5824 188.915 77.5824 187.523 77.5824C186.827 78.2417 183.347 77.5824 181.955 77.5824C180.564 77.5824 177.78 77.5824 176.388 78.2417C174.3 79.5604 171.517 82.1978 168.733 81.5384C165.949 80.8791 163.862 78.9011 161.078 78.9011C157.598 78.9011 155.511 78.2417 152.031 76.9231C149.247 76.2637 145.768 75.6044 142.984 75.6044C138.809 75.6044 135.329 75.6044 131.154 75.6044C122.107 75.6044 113.756 78.2417 104.709 78.2417C102.621 78.2417 100.534 78.9011 98.4458 78.9011C94.2704 78.9011 89.399 78.2417 85.2235 78.9011C81.7439 79.5604 78.2644 81.5384 75.4807 82.8571C74.0889 83.5165 72.0011 84.8352 70.6093 84.8352C69.9134 84.8352 69.2175 84.8352 68.5216 84.8352C67.1298 85.4945 66.4338 86.1538 65.042 86.8132C63.6502 87.4725 61.5624 88.1319 60.1706 88.1319C54.6033 88.1319 49.036 89.4505 43.4687 89.4505C37.9014 89.4505 39.9891 95.3846 34.4218 95.3846C32.3341 95.3846 30.2464 95.3846 28.1586 95.3846C26.7668 95.3846 26.0709 96.044 24.6791 96.044C23.9831 96.044 23.2872 96.044 22.5913 96.044C21.1995 96.044 21.1995 96.7033 19.8077 96.7033C17.7199 96.7033 16.3281 96.7033 14.2404 96.7033C12.8485 96.7033 12.1526 97.3626 11.4567 98.022C9.36896 98.6813 7.28122 91.4286 5.19349 91.4286C3.10574 91.4286 1.01801 91.4286 -1.06973 91.4286C-2.46156 91.4286 -4.5493 85.4945 -5.94112 84.8352C-8.02887 83.5165 -10.8125 77.5824 -12.9003 77.5824C-14.988 77.5824 -16.3798 77.5824 -18.4676 77.5824C-19.8594 77.5824 -21.2512 76.923 -22.643 78.2417C-26.1226 81.5384 -24.7308 83.5165 -29.6022 82.1978C-30.2981 82.1978 -31.6899 80.8791 -33.0817 80.8791C-35.1695 80.2198 -36.5613 79.5604 -38.649 79.5604C-39.345 79.5604 -47 72.3077 -47 72.3077V26.1538C-46.3041 26.1538 -44.2163 30.7692 -43.5204 30.7692C-41.4327 31.4285 -39.345 33.4065 -37.2572 34.0659C-35.8654 35.3845 -34.4736 36.0439 -32.3858 35.3845C-28.2103 34.7252 -27.5144 34.0659 -22.643 35.3845C-21.9471 35.3845 -20.5553 36.0439 -19.8594 36.7032C-17.7716 36.7032 -15.6839 38.0219 -12.9003 38.6812C-9.42069 39.3406 -10.1166 38.6812 -8.02887 38.0219C-5.24521 36.7032 -1.76565 38.6812 1.01801 38.6812C2.40983 38.6812 5.19348 39.3406 6.58531 38.6812C7.97713 38.6812 8.67305 37.3626 9.36897 37.3626C10.7608 36.7032 12.8485 37.3626 14.9363 37.3626C17.7199 36.7032 21.1995 35.3845 23.9831 36.0439C26.7668 36.0439 30.2464 36.7032 33.03 38.0219C33.7259 38.6812 34.4218 39.3406 35.8137 39.3406C36.5096 39.9999 37.9014 39.9999 38.5973 39.9999C39.9891 40.6593 40.6851 40.6593 42.0769 40.6593C43.4687 40.6593 46.2524 41.3186 46.9483 39.9999C47.6442 39.3406 47.6442 37.3626 49.036 36.7032C51.1237 35.3845 53.9074 36.0439 55.9951 36.0439C61.5624 35.3845 67.1298 35.3845 72.6971 33.4065C74.0889 32.7472 78.2644 29.4505 80.3521 30.1098C81.048 30.1098 81.7439 30.7692 81.7439 31.4285C83.8317 32.0878 85.2235 32.0878 87.3112 32.0878C90.7908 32.0878 94.2704 32.7472 98.4458 33.4065C101.229 33.4065 104.709 34.0659 107.493 33.4065C109.58 32.7472 110.276 31.4285 111.668 30.1098C113.06 28.7911 113.06 28.1318 115.148 27.4724C116.54 27.4724 117.931 27.4724 120.019 27.4724C121.411 27.4724 123.499 26.8131 124.891 26.8131C126.282 26.8131 127.674 26.1538 129.066 26.8131C129.762 27.4724 130.458 28.1318 130.458 28.7911C131.154 30.1098 131.154 30.7692 132.546 30.7692C133.937 30.7692 136.025 30.1098 137.417 30.1098C138.809 30.1098 140.201 30.1098 140.897 30.1098C142.288 30.1098 142.288 30.7692 143.68 30.1098C144.376 30.1098 145.072 29.4505 146.464 29.4505C148.552 28.7911 149.943 28.1318 151.335 27.4724C153.423 26.8131 154.815 26.8131 157.598 26.8131C161.078 26.8131 164.558 26.8131 167.341 26.8131C170.125 26.8131 172.909 26.1538 174.996 26.1538C175.692 26.1538 176.388 26.8131 177.084 26.8131C177.78 26.8131 178.476 26.1538 179.172 25.4944C181.26 24.8351 181.955 24.1757 182.651 22.8571C182.651 22.1977 182.651 21.5384 183.347 21.5384C184.739 21.5384 184.739 22.8571 186.131 23.5164C188.219 24.8351 187.523 25.4944 189.61 25.4944C191.002 25.4944 192.394 26.1538 193.786 26.1538C196.57 26.8131 199.353 27.4724 202.137 28.1318C204.225 28.7911 205.616 29.4505 207.008 30.7692C209.096 31.4285 211.184 30.1098 212.576 29.4505C214.663 28.7911 216.751 28.1318 219.535 28.1318C225.102 27.4724 232.061 26.8131 236.933 29.4505C239.716 30.7692 240.412 32.7472 243.196 32.0878C247.371 31.4285 250.155 28.7911 254.33 28.7911C256.418 28.7911 258.506 28.7911 260.594 28.7911C261.985 28.7911 264.769 28.1318 266.161 28.7911C268.249 29.4505 268.249 32.0878 271.032 32.7472C271.728 32.7472 272.424 32.7472 273.12 32.7472C273.816 32.0878 274.512 31.4285 275.904 30.7692C277.991 28.7911 282.167 27.4724 284.951 27.4724C286.342 27.4724 287.734 26.8131 289.126 26.8131C291.214 26.8131 292.606 26.8131 294.693 26.8131C295.389 26.8131 296.085 26.8131 296.781 26.1538L297.477 25.4944C298.869 24.8351 300.957 24.8351 302.348 25.4944C302.348 27.4724 304.436 28.7911 305.828 29.4505C306.524 30.1098 306.524 30.1098 307.916 30.1098C310.003 30.1098 312.091 30.1098 314.179 29.4505C316.267 28.7911 317.658 27.4724 319.05 26.8131C322.53 24.8351 322.53 21.5384 325.314 18.901C326.009 18.2417 327.401 19.5603 328.097 20.879C329.489 23.5164 332.969 24.1757 335.752 25.4944C339.232 29.4505 342.711 28.1318 346.191 29.4505C349.67 30.1098 353.15 31.4285 357.326 31.4285C358.717 31.4285 360.109 31.4285 362.197 31.4285C363.589 31.4285 364.285 30.7692 364.981 30.7692C365.676 30.7692 367.068 30.7692 367.764 30.7692C367.764 30.1098 367.764 29.4505 367.764 29.4505C367.764 28.7911 368.46 28.1318 368.46 27.4724C369.156 26.8131 369.156 26.1538 369.156 25.4944C369.156 24.8351 369.852 25.4944 369.852 24.1757C370.548 23.5164 371.244 23.5164 372.636 23.5164C374.027 23.5164 374.723 22.1977 376.115 22.1977C379.595 22.1977 382.378 26.1538 385.162 28.1318C387.25 29.4505 388.642 30.7692 390.033 32.0878C392.121 34.0659 392.817 33.4065 393.513 30.7692C394.209 28.7911 394.905 26.8131 396.297 24.8351C396.993 24.1757 396.297 22.1977 397.689 22.1977C399.08 22.1977 399.776 26.8131 401.168 27.4724C402.56 28.1318 404.648 27.4724 406.039 27.4724C408.823 27.4724 410.215 26.8131 412.999 26.1538C415.086 26.1538 417.174 25.4944 419.262 24.8351C419.958 24.8351 421.35 24.1757 421.35 24.1757C422.045 23.5164 422.741 22.8571 422.741 22.1977C423.437 21.5384 424.829 20.2197 424.829 18.901C426.221 18.2417 426.221 16.923 426.917 16.2636C429.005 14.945 433.18 18.901 434.572 20.879C435.964 22.1977 436.66 22.1977 438.051 22.8571C442.923 24.1757 448.49 24.8351 454.057 24.8351C456.145 24.8351 456.841 25.4944 458.233 24.1757V23.5164C458.233 23.5164 458.929 23.5164 459.625 23.5164C461.713 23.5164 463.8 22.8571 465.888 22.1977C467.28 21.5384 468.672 19.5603 470.759 19.5603C472.151 18.901 473.543 20.2197 474.935 20.879C477.023 20.879 479.806 20.879 481.894 20.879C483.982 20.879 486.069 21.5384 488.157 21.5384C491.637 22.1977 495.116 22.8571 498.596 22.8571C502.075 22.8571 504.859 23.5164 507.643 24.1757C509.035 24.1757 511.122 24.8351 513.21 24.1757C514.602 24.1757 513.906 24.8351 513.906 25.4944C513.906 26.1538 514.602 28.1318 515.994 26.8131C515.994 26.8131 515.994 26.8131 515.994 26.1538C517.386 28.1318 518.777 28.7911 521.561 28.7911C524.345 28.7911 525.737 28.1318 527.128 26.1538C528.52 24.8351 529.912 22.8571 532 22.1977C533.392 21.5384 535.479 22.1977 536.871 22.1977C538.959 22.1977 541.047 22.8571 543.134 24.1757C543.83 24.8351 545.222 24.8351 545.918 24.8351C548.006 24.8351 548.006 23.5164 547.31 21.5384C547.31 20.2197 548.006 19.5603 550.094 19.5603C553.573 20.2197 556.357 23.5164 559.14 25.4944C561.228 26.8131 563.316 27.4724 565.404 27.4724C566.795 27.4724 568.883 27.4724 570.971 27.4724C573.755 28.1318 573.755 31.4285 575.146 33.4065C577.234 36.7032 581.41 31.4285 585.585 31.4285C586.977 31.4285 589.065 37.3626 590.456 36.7032C593.936 36.7032 596.72 35.3845 596.72 31.4285C596.72 28.7911 595.328 25.4944 597.416 23.5164C598.807 22.1977 602.287 25.4944 604.375 26.1538C606.462 27.4724 607.158 29.4505 609.246 30.7692C611.334 32.7472 612.03 32.7472 614.117 33.4065C616.205 34.0659 618.293 36.0439 619.685 37.3626C621.077 38.6812 623.164 34.0659 625.252 34.7252C626.644 35.3845 628.036 36.0439 629.428 36.0439C632.211 37.3626 633.603 41.978 634.995 39.9999C634.995 38.0219 636.387 36.0439 637.083 34.7252C637.779 33.4065 637.779 31.4285 638.474 30.1098C639.17 28.7911 638.474 29.4505 639.866 29.4505H640.562C641.954 29.4505 643.346 29.4505 645.434 30.1098C646.825 30.1098 647.521 30.1098 648.217 30.7692C648.913 31.4285 648.913 32.0878 649.609 32.0878C650.305 32.7472 651.001 32.7472 651.697 32.7472C656.568 34.0659 663.527 30.1098 667.007 33.4065C668.399 34.7252 665.615 38.0219 667.007 39.3406C671.182 41.978 676.054 36.7032 680.925 36.7032C683.709 36.7032 685.797 36.7032 688.58 36.0439C689.972 35.3845 691.364 35.3845 692.06 35.3845C693.452 34.7252 695.539 34.0659 696.931 33.4065C697.627 33.4065 699.019 32.7472 699.019 32.7472C699.019 32.7472 699.019 32.0878 699.019 31.4285C699.715 30.1098 701.802 32.7472 702.498 33.4065C703.194 34.0659 703.194 34.0659 703.89 34.7252C705.978 36.7032 708.762 36.7032 710.849 36.7032C712.241 36.7032 715.025 36.7032 715.721 38.6812C716.417 39.3406 717.809 38.6812 719.2 38.6812C721.288 38.6812 724.072 38.6812 726.159 38.0219C729.639 38.0219 733.119 38.0219 736.598 38.0219C738.686 38.0219 743.557 38.0219 744.949 36.0439C745.645 34.7252 745.645 34.7252 747.037 34.0659C748.429 33.4065 749.125 33.4065 751.212 33.4065C752.604 33.4065 754.692 34.0659 756.78 33.4065C758.172 33.4065 758.867 32.7472 760.259 32.0878C762.347 31.4285 763.739 30.1098 765.827 29.4505C767.218 29.4505 767.218 29.4505 767.914 30.1098C770.002 30.7692 771.394 30.7692 773.482 31.4285C775.569 32.0878 776.961 34.0659 779.049 35.3845C779.745 36.0439 781.833 36.0439 783.224 36.0439C786.008 36.7032 788.096 36.7032 790.879 38.0219C793.663 39.3406 797.143 39.9999 799.926 39.9999C800.622 39.9999 801.318 39.9999 802.014 39.9999C804.102 39.3406 805.494 37.3626 806.885 36.7032C807.581 36.0439 808.277 36.0439 808.277 34.7252C808.277 34.0659 808.277 33.4065 808.277 32.0878C808.973 32.0878 809.669 32.0878 810.365 32.0878C813.149 32.0878 815.236 32.0878 818.02 32.0878C818.716 32.0878 821.5 31.4285 822.195 32.0878C822.891 32.0878 822.195 32.7472 822.891 33.4065C822.891 34.0659 823.587 34.7252 824.283 35.3845C826.371 36.7032 828.459 36.0439 829.851 35.3845C831.242 34.7252 832.634 34.0659 834.722 34.0659C836.114 34.0659 836.81 33.4065 838.201 34.0659C839.593 34.0659 840.985 34.7252 843.073 34.7252C844.465 34.7252 845.161 35.3845 846.552 35.3845C847.248 35.3845 847.248 34.7252 847.248 34.7252C847.944 34.7252 848.64 34.7252 849.336 34.7252C850.728 34.0659 850.032 32.7472 850.032 32.0878C850.032 30.7692 850.032 31.4285 850.728 30.7692C850.728 30.1098 851.424 29.4505 851.424 28.7911C852.12 28.1318 852.816 26.8131 853.512 26.1538C856.991 24.8351 860.471 26.8131 863.95 27.4724C865.342 28.1318 866.038 28.1318 867.43 29.4505C868.126 30.1098 869.518 30.7692 870.214 31.4285C871.605 32.7472 871.605 33.4065 873.693 34.0659C875.085 34.0659 875.781 34.0659 877.173 34.7252C877.869 34.7252 879.26 35.3845 879.956 34.7252C881.348 34.7252 882.044 33.4065 883.436 33.4065C885.524 32.7472 887.611 33.4065 889.699 32.7472C890.395 32.7472 890.395 32.0878 891.091 32.0878C893.179 31.4285 894.57 32.0878 895.962 32.7472C898.746 33.4065 902.226 32.7472 905.009 32.7472C906.401 32.7472 908.489 32.7472 909.881 32.7472C911.272 32.7472 912.664 32.7472 914.056 31.4285C914.752 30.7692 915.448 30.1098 916.84 30.1098C918.232 30.1098 918.232 30.7692 918.927 31.4285C919.623 32.0878 920.319 32.0878 921.711 32.7472C923.103 33.4065 924.495 33.4065 926.582 33.4065C927.974 33.4065 930.062 33.4065 931.454 32.7472C932.15 32.0878 932.15 32.0878 933.542 31.4285C934.933 30.7692 934.237 31.4285 935.629 30.7692C937.021 30.1098 935.629 30.1098 937.021 30.1098C937.717 30.1098 939.109 30.1098 939.805 30.1098C941.197 30.1098 943.98 29.4505 945.372 30.1098C946.764 30.7692 948.156 31.4285 948.852 31.4285C950.939 32.0878 953.027 31.4285 955.115 31.4285C957.899 30.7692 959.986 30.7692 962.77 30.1098C964.858 29.4505 966.945 28.7911 969.729 28.7911C971.817 28.1318 975.992 26.8131 976.688 28.7911C978.08 30.7692 980.168 30.7692 981.56 31.4285C984.343 32.0878 985.735 30.1098 988.519 29.4505C990.606 28.7911 992.694 29.4505 994.782 29.4505C998.957 29.4505 1003.13 28.7911 1006.61 29.4505C1008 29.4505 1008.7 30.1098 1009.4 30.7692C1011.48 32.7472 1013.57 34.0659 1017.05 34.0659C1017.75 34.0659 1018.44 34.0659 1019.83 34.0659C1021.23 34.0659 1022.62 33.4065 1024.71 32.7472C1026.1 32.0878 1027.49 32.0878 1028.19 31.4285C1028.19 31.4285 1028.19 30.7692 1028.88 30.7692C1030.27 30.1098 1030.97 30.7692 1031.67 30.1098V29.4505C1031.67 29.4505 1033.06 28.7911 1033.75 28.7911C1037.23 28.1318 1040.71 29.4505 1043.5 27.4724C1044.19 26.8131 1044.89 26.8131 1046.28 26.1538C1047.67 26.1538 1049.06 26.1538 1050.45 26.8131C1051.85 27.4724 1053.93 26.8131 1055.33 27.4724C1055.33 30.7692 1060.2 29.4505 1062.29 29.4505C1065.07 29.4505 1067.16 26.8131 1069.24 27.4724C1069.94 27.4724 1071.33 28.1318 1072.72 28.7911C1073.42 29.4505 1074.12 29.4505 1074.81 30.1098C1076.9 31.4285 1078.29 31.4285 1081.08 31.4285C1083.16 31.4285 1085.25 31.4285 1087.34 31.4285C1089.43 31.4285 1091.51 31.4285 1092.91 31.4285C1094.99 31.4285 1096.39 30.7692 1098.47 30.1098C1099.86 30.1098 1100.56 30.1098 1101.95 29.4505C1103.34 28.7911 1104.74 28.7911 1106.13 28.7911C1107.52 28.7911 1109.61 27.4724 1111.7 26.8131C1113.78 26.1538 1115.87 26.8131 1118.65 26.1538C1120.74 26.1538 1121.44 26.1538 1122.83 26.8131C1127.01 28.1318 1131.18 27.4724 1135.36 28.7911C1136.75 29.4505 1137.44 30.7692 1138.84 31.4285C1140.92 32.7472 1143.71 32.7472 1146.49 32.7472C1149.27 33.4065 1152.06 33.4065 1155.54 33.4065C1159.71 33.4065 1162.5 30.7692 1166.67 29.4505C1168.76 28.7911 1171.54 29.4505 1173.63 29.4505C1175.72 29.4505 1177.11 28.1318 1179.2 27.4724C1179.89 26.8131 1181.29 26.1538 1181.98 25.4944C1184.77 24.1757 1188.25 24.8351 1191.03 24.1757C1194.51 23.5164 1199.38 21.5384 1202.86 23.5164C1204.95 24.8351 1206.34 28.1318 1209.12 28.7911C1212.6 30.1098 1216.08 30.7692 1218.87 32.7472C1221.65 34.0659 1222.35 34.0659 1225.13 33.4065C1227.91 32.7472 1232.09 34.0659 1234.87 33.4065C1235.57 33.4065 1236.26 32.7472 1236.96 32.0878C1237.66 31.4285 1238.35 31.4285 1239.05 30.7692C1240.44 29.4505 1239.05 28.7911 1241.14 28.7911C1242.53 28.7911 1243.22 28.7911 1244.61 28.7911C1246.7 28.7911 1249.49 28.1318 1251.57 28.1318C1251.57 28.1318 1252.97 28.1318 1253.66 28.1318C1254.36 28.7911 1254.36 29.4505 1255.05 30.1098C1255.75 30.7692 1257.14 30.7692 1258.53 30.7692C1260.62 30.7692 1262.71 30.7692 1265.49 30.7692C1267.58 30.7692 1270.36 31.4285 1271.76 31.4285C1273.15 31.4285 1273.84 30.1098 1275.23 30.7692C1275.93 31.4285 1275.93 31.4285 1276.63 32.0878C1277.32 32.0878 1278.71 32.0878 1280.11 31.4285C1282.89 30.7692 1285.67 31.4285 1288.46 31.4285C1292.63 32.0878 1296.11 31.4285 1300.29 30.7692C1303.07 30.1098 1305.86 30.1098 1307.94 29.4505C1308.64 28.7911 1310.03 28.1318 1310.73 28.7911C1312.12 29.4505 1312.81 30.1098 1313.51 31.4285C1314.21 32.0878 1313.51 33.4065 1314.21 34.0659C1314.9 34.7252 1315.6 34.7252 1316.29 35.3845C1316.99 35.3845 1317.69 35.3845 1318.38 35.3845C1319.08 35.3845 1319.08 36.0439 1319.77 36.0439C1321.17 36.0439 1321.86 34.7252 1322.56 34.0659C1324.64 33.4065 1326.73 32.7472 1328.82 32.7472C1330.91 32.0878 1333 30.7692 1335.08 30.1098C1335.78 29.4505 1339.95 28.7911 1341.35 28.7911C1340.65 30.1098 1341.35 33.4065 1342.04 34.0659C1342.74 34.7252 1342.74 34.0659 1343.43 34.7252C1344.13 34.7252 1344.13 35.3845 1344.83 35.3845C1346.91 36.0439 1349.7 35.3845 1352.48 36.0439C1355.27 36.7032 1358.05 37.3626 1361.53 37.3626C1363.62 37.3626 1365.01 36.7032 1367.1 36.0439C1369.18 35.3845 1370.58 34.0659 1371.27 32.0878C1371.27 31.4285 1371.97 30.1098 1372.66 30.1098C1373.36 30.1098 1374.05 30.1098 1374.75 30.7692C1376.84 31.4285 1378.23 30.7692 1379.62 31.4285C1380.32 32.0878 1381.71 32.7472 1382.41 33.4065C1383.8 34.0659 1384.49 35.3845 1385.89 36.0439C1387.97 37.3626 1390.06 37.3626 1392.15 37.3626C1394.93 37.3626 1396.32 34.7252 1399.11 34.7252C1400.5 34.7252 1401.2 35.3845 1402.59 34.0659C1403.28 33.4065 1402.59 32.0878 1403.28 32.0878C1403.98 31.4285 1405.37 31.4285 1406.76 31.4285C1409.55 30.7692 1412.33 30.1098 1415.81 30.1098C1418.59 30.1098 1422.77 30.7692 1425.55 28.7911C1426.25 28.1318 1426.25 27.4724 1426.94 26.8131C1427.64 26.8131 1429.73 26.8131 1431.12 26.8131C1433.21 26.8131 1434.6 26.8131 1436.69 27.4724C1438.77 28.1318 1440.17 30.1098 1442.25 30.1098C1443.65 30.1098 1445.04 30.1098 1445.73 30.1098C1447.13 30.1098 1448.52 30.7692 1449.21 31.4285C1449.91 32.0878 1451.3 32.7472 1452 33.4065L1452.69 34.0659C1454.08 34.7252 1456.17 32.7472 1457.56 34.0659C1458.96 36.0439 1461.74 35.3845 1462.44 36.7032C1462.44 36.7032 1462.44 37.3626 1463.13 37.3626C1463.83 37.3626 1464.52 37.3626 1464.52 37.3626C1467.31 37.3626 1469.39 37.3626 1472.18 37.3626C1476.35 36.7032 1479.83 34.0659 1484.7 34.0659C1486.79 34.0659 1488.18 34.0659 1490.27 34.0659C1490.97 34.0659 1491.66 34.7252 1492.36 34.7252C1493.75 34.7252 1494.45 35.3845 1495.84 35.3845C1497.23 35.3845 1499.32 35.3845 1500.71 36.0439C1502.1 36.7032 1502.1 38.0219 1503.49 38.6812C1504.19 38.6812 1505.58 39.3406 1505.58 39.3406C1506.97 39.3406 1508.37 39.3406 1509.76 39.3406C1511.85 39.3406 1513.93 39.3406 1516.02 39.3406C1516.72 39.3406 1516.72 39.3406 1517.41 39.3406C1518.8 38.6812 1518.11 36.0439 1519.5 36.7032C1520.2 36.7032 1518.8 38.6812 1518.8 39.3406C1519.5 40.6593 1521.59 39.9999 1522.98 39.9999C1523.68 39.9999 1524.37 39.3406 1525.07 39.3406C1526.46 39.3406 1526.46 40.6593 1527.16 41.3186C1527.85 41.978 1528.55 41.978 1529.94 41.978C1530.64 41.978 1531.33 41.978 1532.03 41.978C1532.72 42.6373 1533.42 44.6153 1534.81 43.956C1536.2 43.2966 1536.9 41.978 1537.59 41.3186C1538.29 40.6593 1538.99 40.6593 1539.68 40.6593C1540.38 40.6593 1541.77 41.3186 1542.47 40.6593C1543.16 39.9999 1543.16 39.3406 1543.86 39.3406C1545.25 39.3406 1545.95 40.6593 1546.64 41.3186C1548.03 41.978 1547.34 38.6812 1547.34 38.0219C1547.34 37.3626 1547.34 36.7032 1548.03 36.7032C1549.42 35.3845 1551.51 34.7252 1553.6 34.7252C1557.08 34.7252 1561.26 34.7252 1565.43 34.7252C1566.82 34.7252 1566.82 34.7252 1568.21 35.3845C1569.61 36.0439 1570.3 36.7032 1571.69 37.3626C1573.78 38.6812 1575.87 38.6812 1578.65 38.6812C1580.04 38.6812 1581.44 38.6812 1582.83 38.6812C1585.61 38.6812 1587 37.3626 1589.79 36.7032C1591.18 36.0439 1591.88 36.0439 1593.27 36.0439C1594.66 36.0439 1594.66 35.3845 1596.05 34.7252C1598.14 34.0659 1600.92 34.7252 1603.71 34.0659C1604.4 34.0659 1606.49 33.4065 1607.19 33.4065C1609.27 34.0659 1610.67 38.0219 1611.36 39.3406C1612.06 40.6593 1612.75 41.3186 1614.84 41.978C1615.54 41.978 1615.54 41.978 1616.23 41.978C1616.23 41.978 1616.93 41.978 1616.93 42.6373C1619.02 43.2966 1621.1 42.6373 1623.19 43.2966C1625.98 43.956 1629.45 43.956 1632.24 43.2966C1635.02 42.6373 1637.81 41.3186 1639.89 40.6593C1641.29 39.9999 1643.37 39.3406 1644.76 38.6812C1645.46 38.0219 1646.16 38.0219 1646.85 37.3626C1648.94 36.7032 1651.03 37.3626 1653.12 38.0219C1653.81 38.0219 1656.6 38.0219 1657.99 38.6812C1659.38 40.6593 1662.16 41.978 1664.25 42.6373C1667.03 43.2966 1670.51 44.6153 1673.3 44.6153C1675.39 43.956 1678.17 42.6373 1679.56 42.6373C1680.95 42.6373 1683.04 44.6153 1683.74 45.2747C1684.43 45.2747 1684.43 45.934 1685.13 45.934C1685.82 46.5933 1686.52 46.5933 1687.22 47.2527C1688.61 47.912 1689.3 48.5714 1690.7 47.912C1692.78 47.2527 1693.48 45.934 1694.87 44.6153C1696.26 43.2966 1697.65 43.2966 1699.05 41.978C1701.13 40.6593 1701.83 40.6593 1703.92 40.6593C1708.79 39.9999 1712.96 38.6812 1717.84 38.0219C1719.23 38.0219 1721.32 38.6812 1723.4 38.0219C1724.1 38.0219 1724.1 36.7032 1725.49 36.7032C1727.58 36.7032 1728.97 37.3626 1731.06 37.3626C1733.15 37.3626 1735.93 37.3626 1738.02 36.7032C1740.1 36.7032 1742.19 36.7032 1744.28 37.3626C1746.37 38.0219 1747.76 38.6812 1749.85 38.6812C1751.24 39.3406 1750.54 39.3406 1751.94 38.6812C1758.89 34.7252 1767.94 35.3845 1775.6 34.0659C1779.77 33.4065 1783.25 32.0878 1786.73 32.0878C1788.82 32.0878 1790.91 31.4285 1792.99 30.7692C1795.78 29.4505 1797.87 30.7692 1800.65 31.4285C1803.43 32.0878 1804.82 34.7252 1807.61 35.3845C1809.7 36.0439 1811.78 35.3845 1813.87 35.3845C1817.35 35.3845 1822.22 36.0439 1825.01 34.0659C1826.4 33.4065 1827.09 32.0878 1829.18 32.0878C1830.57 32.0878 1831.97 32.0878 1833.36 32.0878C1835.45 32.0878 1838.92 32.7472 1841.01 32.0878C1844.49 30.7692 1847.97 31.4285 1852.15 31.4285C1853.54 31.4285 1855.63 31.4285 1857.02 31.4285C1859.11 31.4285 1861.19 32.0878 1863.28 32.0878C1864.67 32.0878 1866.07 31.4285 1867.46 31.4285C1870.94 31.4285 1874.42 31.4285 1877.9 31.4285C1878.59 31.4285 1879.98 31.4285 1880.68 31.4285C1883.46 32.0878 1886.94 32.7472 1889.03 34.0659C1891.81 35.3845 1893.9 37.3626 1896.69 38.6812C1897.38 38.6812 1897.38 38.0219 1897.38 37.3626C1898.08 36.0439 1898.77 35.3845 1900.16 34.0659C1901.56 32.7472 1903.64 29.4505 1905.73 28.7911C1906.43 28.7911 1907.82 28.7911 1909.21 28.7911C1912.69 28.1318 1914.78 26.8131 1918.26 25.4944C1919.65 24.8351 1920.35 24.8351 1921.74 24.8351C1922.43 24.8351 1923.13 24.1757 1923.13 24.1757C1924.52 23.5164 1924.52 24.1757 1925.22 25.4944C1926.61 27.4724 1928.7 28.7911 1930.79 30.1098C1931.48 30.7692 1932.87 30.7692 1933.57 31.4285C1934.96 32.0878 1936.35 32.7472 1937.74 32.7472C1938.44 32.7472 1939.14 33.4065 1940.53 33.4065C1941.92 34.7252 1942.62 36.0439 1944.7 36.0439C1946.1 36.0439 1948.18 36.0439 1948.88 35.3845C1950.27 34.7252 1950.27 33.4065 1950.97 32.0878C1951.66 30.7692 1953.75 31.4285 1955.14 31.4285C1956.53 31.4285 1958.62 30.7692 1960.01 31.4285C1962.1 32.0878 1962.8 34.0659 1964.88 35.3845C1967.67 37.3626 1971.84 38.0219 1974.63 38.0219C1978.11 38.0219 1981.59 37.3626 1984.37 34.7252C1985.76 33.4065 1987.15 34.0659 1989.24 34.7252C1992.03 35.3845 1994.11 37.3626 1995.51 39.3406C1997.59 42.6373 2001.07 41.978 2003.86 43.956C2005.25 45.2747 2005.94 45.2747 2008.03 43.956C2009.42 43.2966 2009.42 42.6373 2010.82 41.978C2011.51 41.3186 2012.21 39.9999 2012.9 39.9999C2014.29 39.9999 2014.99 41.3186 2016.38 40.6593C2017.08 39.9999 2015.69 38.6812 2016.38 38.0219C2017.77 36.7032 2019.17 38.6812 2020.56 39.3406C2023.34 40.6593 2025.43 40.6593 2028.21 40.6593C2031 40.6593 2033.08 40.6593 2035.87 40.6593C2037.96 40.6593 2040.04 40.6593 2042.13 41.3186C2043.52 41.978 2044.22 43.956 2046.31 43.956C2047 43.956 2048.39 43.956 2049.09 43.956C2050.48 43.2966 2051.18 41.978 2052.57 41.3186C2056.75 38.6812 2061.62 41.978 2065.1 39.9999C2065.79 39.9999 2065.79 39.3406 2065.79 38.6812C2066.49 38.6812 2067.18 38.6812 2067.88 38.6812C2069.27 38.6812 2069.27 38.6812 2070.66 38.0219C2071.36 37.3626 2072.06 36.7032 2072.75 36.0439C2079.01 34.0659 2083.19 42.6373 2088.76 39.9999C2090.84 39.3406 2092.24 38.6812 2094.32 38.0219C2095.72 37.3626 2097.11 36.7032 2098.5 36.0439C2099.89 36.0439 2099.89 36.0439 2101.28 35.3845C2102.68 34.7252 2104.07 34.7252 2105.46 34.7252C2106.85 34.7252 2108.24 35.3845 2109.63 35.3845C2110.33 35.3845 2111.03 35.3845 2111.72 36.0439C2111.72 36.0439 2112.42 36.7032 2113.11 37.3626C2113.81 37.3626 2113.81 37.3626 2114.51 37.3626C2115.2 37.3626 2115.9 38.0219 2116.59 38.0219C2117.29 38.0219 2118.68 38.0219 2119.38 38.6812C2120.07 38.6812 2120.77 39.3406 2122.16 39.3406C2124.94 39.9999 2127.73 39.3406 2130.51 40.6593C2131.21 41.3186 2132.6 41.3186 2133.3 41.3186C2134.69 41.978 2136.08 41.978 2137.47 42.6373C2140.25 42.6373 2143.04 42.6373 2145.13 42.6373C2146.52 42.6373 2147.21 42.6373 2148.61 42.6373C2150 41.978 2150.69 40.6593 2152.09 39.9999C2153.48 39.3406 2156.96 39.9999 2158.35 39.9999C2159.74 39.9999 2160.44 39.9999 2161.83 40.6593C2163.92 41.3186 2164.61 42.6373 2166.7 41.3186C2167.4 40.6593 2168.09 39.9999 2168.79 39.9999C2169.48 39.3406 2170.88 39.3406 2171.57 38.6812C2173.66 37.3626 2173.66 36.7032 2175.75 38.0219C2177.14 38.6812 2178.53 39.3406 2179.92 39.9999C2179.92 39.9999 2182.01 41.3186 2182.71 41.3186C2183.4 41.3186 2184.79 41.3186 2185.49 41.3186C2188.27 40.6593 2189.66 36.0439 2193.14 37.3626C2195.93 38.0219 2198.71 38.6812 2201.5 38.6812C2203.58 38.6812 2203.58 38.0219 2204.28 36.0439C2204.28 35.3845 2204.97 34.0659 2205.67 33.4065C2206.37 32.7472 2207.76 32.7472 2209.15 32.7472C2211.24 32.7472 2213.33 32.7472 2215.41 32.7472C2217.5 32.7472 2217.5 32.7472 2218.89 32.0878C2222.37 30.1098 2225.16 30.1098 2228.64 32.0878C2232.12 33.4065 2235.59 32.0878 2237.68 29.4505L2238.38 28.1318C2239.77 27.4724 2240.47 28.1318 2241.86 29.4505L2242.55 30.1098H2243.25C2243.95 30.1098 2243.95 30.7692 2243.95 31.4285C2245.34 32.7472 2248.12 33.4065 2250.21 33.4065C2254.38 33.4065 2258.56 30.1098 2262.74 28.7911C2263.43 28.7911 2264.13 28.7911 2264.82 28.1318C2265.52 28.1318 2265.52 27.4724 2266.22 26.8131C2267.61 26.1538 2269 27.4724 2270.39 27.4724C2271.78 27.4724 2273.87 27.4724 2275.26 27.4724C2277.35 27.4724 2278.05 26.1538 2280.13 26.1538C2281.53 26.1538 2282.22 26.8131 2283.61 27.4724C2284.31 28.1318 2284.31 28.7911 2285 28.7911C2286.4 29.4505 2288.48 29.4505 2290.57 29.4505C2294.05 29.4505 2300.31 29.4505 2303.1 26.1538C2303.79 24.8351 2304.49 24.1757 2306.58 24.1757C2307.27 24.1757 2309.36 24.8351 2310.06 23.5164C2310.75 22.8571 2309.36 21.5384 2310.06 20.879C2312.15 18.901 2314.93 21.5384 2317.02 22.8571C2319.1 24.1757 2321.89 25.4944 2323.98 27.4724C2325.37 28.1318 2328.15 30.7692 2330.24 29.4505C2330.94 28.7911 2332.33 26.8131 2332.33 26.1538C2333.02 24.1757 2333.02 21.5384 2335.11 20.879C2336.5 20.2197 2337.89 20.2197 2339.29 20.2197C2341.37 20.2197 2343.46 20.879 2345.55 20.879C2346.94 21.5384 2349.03 22.1977 2350.42 20.879C2351.12 20.2197 2350.42 19.5603 2351.12 19.5603C2351.81 19.5603 2352.51 20.879 2353.2 20.879C2355.99 22.8571 2359.47 22.1977 2362.25 22.1977C2364.34 22.1977 2367.12 22.1977 2369.21 21.5384C2371.3 21.5384 2374.08 20.2197 2376.17 20.879C2380.34 21.5384 2383.82 25.4944 2388 26.8131V72.967C2387.3 72.967 2386.61 70.989 2385.22 70.989C2382.43 70.989 2379.65 70.989 2376.87 70.989C2374.78 70.989 2372.69 70.989 2370.6 70.3296C2369.91 70.3296 2369.21 69.6703 2368.51 69.6703C2367.82 69.011 2366.43 69.6703 2365.73 69.6703C2363.64 69.6703 2361.56 69.6703 2359.47 70.3296L2358.77 70.989C2358.08 70.989 2357.38 71.6483 2356.68 71.6483C2355.29 72.3077 2355.29 72.967 2354.6 73.6263C2353.9 74.2857 2353.2 73.6263 2351.81 74.2857C2350.42 74.2857 2349.72 75.6044 2348.33 76.2637C2346.94 76.9231 2345.55 76.2637 2344.16 76.9231C2342.77 76.9231 2343.46 76.9231 2342.77 77.5824C2341.37 78.2417 2339.29 78.2417 2337.89 78.2417C2336.5 78.2417 2335.11 78.9011 2334.41 78.9011C2333.72 78.9011 2333.02 78.9011 2332.33 78.9011C2330.24 78.9011 2328.15 79.5604 2326.06 78.9011C2324.67 78.9011 2321.89 78.9011 2321.19 77.5824C2319.8 76.2637 2320.5 74.2857 2319.1 72.967C2317.02 70.3296 2310.06 70.3296 2307.27 71.6483C2306.58 71.6483 2305.88 72.3077 2305.19 72.3077C2303.79 72.967 2303.79 74.2857 2303.79 75.6044C2303.1 76.9231 2302.4 78.9011 2301.71 80.2198C2301.71 80.8791 2299.62 85.4945 2297.53 84.8352C2296.84 84.8352 2296.84 83.5165 2296.14 82.8571C2294.75 82.1978 2292.66 82.8571 2291.27 82.8571C2289.18 82.8571 2287.09 82.8571 2285.7 82.8571C2283.61 82.8571 2281.53 82.8571 2279.44 82.8571C2275.26 82.8571 2271.78 80.2198 2268.3 79.5604C2264.13 78.2417 2259.95 79.5604 2255.78 79.5604C2253.69 79.5604 2250.91 78.9011 2248.82 79.5604C2246.03 80.2198 2243.95 80.8791 2241.16 81.5384C2240.47 81.5384 2240.47 81.5384 2239.07 81.5384C2237.68 82.1978 2236.29 82.8571 2235.59 84.1758C2234.2 84.8352 2233.51 85.4945 2232.81 86.8132C2232.12 88.7912 2232.12 90.7692 2231.42 92.7473C2230.03 92.7473 2230.03 90.7692 2230.03 90.1099C2229.33 88.1319 2228.64 86.8132 2226.55 86.1538C2222.37 85.4945 2216.81 85.4945 2211.93 85.4945C2206.37 86.1538 2200.8 86.8132 2195.23 85.4945C2192.45 84.8352 2189.66 84.1758 2186.88 84.1758C2184.79 84.1758 2182.01 84.1758 2179.92 84.1758C2177.83 84.1758 2175.75 83.5165 2175.05 86.1538C2175.05 87.4725 2175.05 88.7912 2173.66 89.4505C2172.27 90.1099 2170.18 89.4505 2168.09 90.1099C2165.31 90.7692 2163.22 91.4286 2160.44 91.4286C2158.35 91.4286 2156.26 90.7692 2154.17 90.1099C2152.09 88.7912 2150 88.1319 2147.21 88.1319C2146.52 88.1319 2145.13 88.1319 2144.43 88.1319C2143.04 88.1319 2141.65 87.4725 2139.56 86.8132C2137.47 86.8132 2135.38 86.8132 2133.3 86.8132C2131.9 86.8132 2130.51 86.8132 2129.12 86.8132C2126.34 87.4725 2124.25 88.7912 2122.16 89.4505C2120.77 90.1099 2119.38 90.7692 2117.99 90.1099C2116.59 89.4505 2115.9 88.7912 2114.51 87.4725C2113.81 86.8132 2113.81 85.4945 2113.11 84.1758C2112.42 83.5165 2111.03 82.8571 2110.33 82.1978C2108.94 81.5384 2106.85 81.5384 2105.46 81.5384C2103.37 81.5384 2103.37 81.5384 2102.68 79.5604C2101.98 77.5824 2100.59 78.2417 2099.2 78.9011C2097.11 80.2198 2094.32 80.8791 2092.24 80.8791C2090.84 80.8791 2090.15 81.5384 2088.76 81.5384C2088.06 81.5384 2088.06 81.5384 2087.37 81.5384C2086.67 81.5384 2085.97 82.1978 2085.28 82.8571C2083.89 82.8571 2081.8 82.8571 2080.41 82.8571C2074.14 82.8571 2067.88 82.8571 2062.31 86.8132C2060.92 87.4725 2060.92 87.4725 2059.53 88.1319L2058.83 88.7912C2057.44 89.4505 2056.05 90.7692 2054.66 91.4286C2053.27 92.0879 2052.57 92.0879 2051.18 91.4286C2050.48 91.4286 2049.09 90.1099 2049.09 90.1099C2047 88.7912 2045.61 87.4725 2043.52 86.8132C2042.83 86.1538 2041.44 86.8132 2041.44 86.1538C2040.74 85.4945 2040.74 84.8352 2040.04 84.1758C2037.96 82.1978 2035.17 82.1978 2032.39 82.1978C2030.3 82.1978 2028.21 81.5384 2026.82 82.8571C2026.13 83.5165 2025.43 84.1758 2025.04 84.8352C2023.34 85.4945 2022.65 85.4945 2021.95 86.1538C2021.25 86.8132 2021.25 86.8132 2021.25 87.4725C2020.56 88.7912 2021.25 88.7912 2019.86 88.7912C2016.38 90.1099 2011.51 87.4725 2008.03 86.1538C2007.34 86.1538 2006.64 85.4945 2005.94 85.4945C2005.25 85.4945 2005.25 84.8352 2004.55 84.1758C2003.86 84.1758 2003.16 84.8352 2002.46 85.4945C2001.07 86.8132 1998.98 88.1319 1997.59 89.4505C1995.5 88.7912 1994.81 86.1538 1993.42 84.8352C1992.03 83.5165 1990.63 82.8571 1989.24 82.8571C1987.15 82.8571 1987.15 83.5165 1986.46 85.4945C1985.76 87.4725 1985.76 90.1099 1983.67 89.4505C1980.19 89.4505 1978.11 84.1758 1974.63 84.1758C1972.54 84.1758 1970.45 85.4945 1967.67 85.4945C1965.58 85.4945 1962.8 84.8352 1961.41 86.1538C1960.71 86.8132 1960.71 87.4725 1960.01 88.1319C1959.32 88.7912 1956.53 88.1319 1955.84 88.1319C1954.45 88.1319 1952.36 87.4725 1950.97 87.4725C1950.27 87.4725 1949.57 87.4725 1948.88 87.4725C1947.49 88.7912 1948.18 91.4286 1948.18 93.4066C1944.7 92.0879 1941.92 88.7912 1938.44 86.8132C1936.35 85.4945 1934.96 85.4945 1932.87 84.8352C1931.48 84.1758 1931.48 84.1758 1930.09 84.1758C1928.7 84.1758 1927.31 84.8352 1925.91 84.8352C1923.13 85.4945 1919.65 84.8352 1916.17 84.8352C1913.39 84.8352 1911.3 83.5165 1909.21 83.5165C1907.12 83.5165 1905.04 84.1758 1903.64 83.5165C1901.56 82.8571 1900.86 83.5165 1898.77 84.1758C1896.69 85.4945 1894.6 84.8352 1891.81 85.4945C1890.42 85.4945 1890.42 86.1538 1889.03 87.4725C1888.33 88.1319 1886.25 88.7912 1884.85 88.7912C1884.16 88.7912 1883.46 88.7912 1882.77 88.7912C1880.68 88.1319 1878.59 86.1538 1877.2 84.8352C1875.81 83.5165 1873.72 82.8571 1871.63 82.1978C1870.94 82.1978 1869.54 81.5384 1868.85 81.5384C1868.15 81.5384 1868.15 81.5384 1868.15 81.5384C1867.46 82.1978 1866.76 82.8571 1866.76 83.5165C1866.07 84.1758 1863.98 83.5165 1862.59 83.5165C1857.02 83.5165 1852.15 83.5165 1846.58 83.5165C1843.8 83.5165 1841.71 83.5165 1839.62 81.5384C1838.92 80.8791 1838.92 80.2198 1837.53 79.5604C1836.84 78.9011 1836.84 79.5604 1835.44 79.5604C1833.36 79.5604 1831.97 76.9231 1829.88 76.9231C1827.79 76.9231 1827.09 79.5604 1825.7 80.8791C1824.31 82.1978 1823.61 83.5165 1822.92 84.8352C1820.83 85.4945 1818.74 82.1978 1817.35 80.8791C1815.96 79.5604 1814.57 79.5604 1812.48 78.9011C1810.39 78.2417 1809 76.2637 1806.91 75.6044C1805.52 74.945 1804.82 76.2637 1803.43 76.2637C1802.74 76.2637 1801.35 75.6044 1800.65 75.6044C1798.56 74.945 1797.87 74.2857 1795.78 74.2857C1794.39 74.2857 1792.3 74.2857 1790.91 73.6263C1789.51 72.967 1788.82 73.6264 1787.43 72.967C1786.04 72.967 1783.95 71.6483 1782.56 71.6483C1780.47 70.989 1779.08 70.3296 1776.99 70.3296C1775.6 70.989 1774.2 71.6483 1772.12 72.3077C1769.33 72.967 1766.55 74.2857 1763.77 74.945C1762.37 75.6044 1760.98 74.945 1759.59 74.945C1758.2 74.945 1758.89 75.6044 1757.5 75.6044C1754.02 76.2637 1750.54 75.6044 1747.06 75.6044C1742.19 75.6044 1738.02 71.6483 1733.84 73.6263C1733.15 74.2857 1734.54 75.6044 1733.84 76.2637C1731.75 78.2417 1731.06 80.2198 1729.67 81.5384C1728.27 83.5165 1728.97 82.8571 1726.88 82.1978C1725.49 81.5384 1724.1 80.2198 1722.71 80.2198C1720.62 80.2198 1721.32 81.5384 1719.23 82.1978C1713.66 82.8571 1708.09 71.6483 1703.92 75.6044C1702.53 76.9231 1705.31 80.8791 1704.61 82.8571C1703.92 84.8352 1701.13 79.5604 1699.74 80.2198C1698.35 80.8791 1699.05 81.5384 1698.35 82.1978C1697.65 82.8571 1696.26 83.5165 1694.87 83.5165C1692.78 83.5165 1690 82.8571 1687.91 82.8571C1685.82 82.8571 1683.74 82.8571 1681.65 83.5165C1680.26 84.1758 1678.86 84.1758 1676.78 84.8352C1675.39 85.4945 1673.99 86.1538 1673.3 86.1538C1672.6 86.1538 1672.6 86.1538 1671.91 86.1538C1671.21 86.1538 1671.21 86.1538 1671.21 86.8132C1671.21 87.4725 1665.64 88.1319 1664.95 88.1319C1663.55 88.1319 1662.16 87.4725 1661.47 88.7912C1660.77 90.1099 1660.77 94.7253 1658.68 96.044C1656.6 96.7033 1653.12 94.7253 1651.03 94.0659C1650.33 94.0659 1648.94 93.4066 1648.24 93.4066C1646.85 92.7472 1644.76 93.4066 1642.68 93.4066C1639.89 93.4066 1637.11 93.4066 1635.02 93.4066C1633.63 93.4066 1632.93 94.0659 1632.24 94.0659C1630.15 94.0659 1626.67 94.7253 1625.28 92.7473C1624.58 92.0879 1624.58 91.4286 1623.89 90.7692C1622.5 90.1099 1621.1 89.4505 1619.71 88.7912C1617.62 88.1319 1616.23 87.4725 1614.14 86.8132C1612.75 86.8132 1610.67 86.8132 1609.27 86.1538C1607.88 86.1538 1606.49 86.1538 1605.1 86.1538C1603.01 86.1538 1601.62 86.8132 1599.53 86.8132C1597.44 86.8132 1596.05 86.8132 1593.96 86.8132C1592.57 86.8132 1591.88 86.8132 1591.88 88.1319C1591.88 88.7912 1592.57 90.1099 1591.88 90.7692C1591.18 91.4286 1587.7 92.0879 1587 92.0879C1584.92 92.0879 1582.83 92.7472 1580.74 91.4286C1578.65 90.1099 1576.57 88.7912 1574.48 87.4725C1573.09 86.1538 1571.69 84.1758 1568.91 83.5165C1566.13 82.8571 1563.34 82.8571 1560.56 84.8352C1559.86 85.4945 1559.17 86.1538 1558.47 86.8132C1557.78 88.1319 1556.38 88.7912 1555.69 90.1099C1553.6 92.0879 1553.6 93.4066 1553.6 96.044C1553.6 97.3626 1553.6 98.6813 1552.9 100C1551.51 100 1550.12 98.6813 1549.42 97.3626C1548.73 96.044 1547.34 95.3846 1545.95 94.0659C1543.86 92.0879 1541.07 90.1099 1538.99 88.1319C1538.29 87.4725 1536.9 85.4945 1535.51 85.4945C1533.42 85.4945 1532.72 87.4725 1531.33 88.7912C1529.94 90.1099 1529.24 89.4505 1527.85 88.7912C1525.07 88.1319 1522.98 88.7912 1520.2 88.7912C1517.41 88.1319 1514.63 86.1538 1511.15 85.4945C1509.06 85.4945 1504.19 85.4945 1502.8 87.4725C1502.1 88.1319 1502.8 88.7912 1502.1 89.4505C1501.41 90.1099 1500.71 90.1099 1500.01 90.1099C1498.62 90.1099 1497.23 90.1099 1495.84 90.1099C1494.45 90.1099 1493.06 89.4505 1491.66 88.7912C1490.97 88.7912 1489.58 88.7912 1488.88 88.7912C1487.49 88.7912 1486.1 88.7912 1485.4 88.7912C1484.01 89.4505 1484.01 90.1099 1482.62 90.1099C1481.92 90.1099 1480.53 90.1099 1479.83 89.4505C1478.44 88.1319 1477.75 87.4725 1475.66 86.1538C1471.48 83.5165 1467.31 81.5384 1463.83 78.2417C1462.44 76.923 1461.74 76.2637 1460.35 74.945C1456.87 72.3077 1452 71.6483 1447.82 71.6483C1445.04 71.6483 1442.25 72.3077 1438.77 72.967C1435.99 73.6264 1433.9 74.945 1431.12 74.945C1426.94 75.6044 1422.07 72.967 1417.9 72.967C1415.81 72.967 1414.42 72.967 1412.33 72.967C1410.24 72.967 1409.55 72.967 1408.15 72.3077C1407.46 71.6483 1406.76 71.6483 1405.37 70.989C1402.59 70.989 1399.11 69.6703 1396.32 70.989C1394.93 71.6483 1394.24 71.6483 1392.84 72.3077C1390.76 72.967 1388.67 74.945 1385.89 75.6044C1385.19 76.2637 1383.8 76.2637 1383.1 76.2637C1381.01 76.9231 1378.23 76.2637 1375.45 76.2637C1371.97 76.2637 1367.79 76.2637 1364.31 77.5824C1359.44 78.9011 1357.35 83.5165 1352.48 84.1758C1351.09 84.1758 1349 84.1758 1347.61 83.5165C1344.13 82.1978 1340.65 80.8791 1336.48 80.2198C1334.39 79.5604 1332.3 78.2417 1330.21 77.5824C1328.12 76.9231 1326.73 77.5824 1325.34 76.2637C1319.77 73.6264 1313.51 74.945 1307.94 74.945C1306.55 74.945 1305.16 73.6263 1304.46 72.3077C1303.77 71.6483 1303.77 71.6483 1303.07 70.989C1302.38 70.989 1302.38 70.3296 1302.38 70.3296C1301.68 69.6703 1300.98 69.6703 1300.98 69.6703C1300.29 69.011 1299.59 69.6703 1298.2 69.6703C1297.5 69.6703 1296.11 69.6703 1295.42 69.6703C1294.02 69.6703 1293.33 69.6703 1291.94 69.6703C1291.24 69.6703 1289.85 69.6703 1289.15 70.3296C1288.46 70.989 1288.46 70.989 1287.76 71.6483C1287.07 72.3077 1285.67 73.6263 1284.98 73.6263C1284.28 73.6263 1283.59 73.6263 1282.89 73.6263C1280.8 73.6263 1278.71 73.6263 1276.63 73.6263C1276.63 73.6263 1275.93 73.6263 1275.23 73.6263C1275.23 73.6263 1274.54 73.6263 1274.54 74.2857C1278.02 76.2637 1278.02 76.2637 1277.32 76.9231Z" fill="white"/>
</g>
<defs>
<filter id="filter0_d_24_10264" x="-65" y="0" width="2471" height="120" filterUnits="userSpaceOnUse" color-interpolation-filters="sRGB">
<feFlood flood-opacity="0" result="BackgroundImageFix"/>
<feColorMatrix in="SourceAlpha" type="matrix" values="0 0 0 0 0 0 0 0 0 0 0 0 0 0 0 0 0 0 127 0" result="hardAlpha"/>
<feOffset dy="2"/>
<feGaussianBlur stdDeviation="9"/>
<feComposite in2="hardAlpha" operator="out"/>
<feColorMatrix type="matrix" values="0 0 0 0 0 0 0 0 0 0 0 0 0 0 0 0 0 0 0.15 0"/>
<feBlend mode="normal" in2="BackgroundImageFix" result="effect1_dropShadow_24_10264"/>
<feBlend mode="normal" in="SourceGraphic" in2="effect1_dropShadow_24_10264" result="shape"/>
</filter>
</defs>
</svg>
