<svg width="17" height="12" viewBox="0 0 17 12" fill="none" xmlns="http://www.w3.org/2000/svg">
<g id="flag">
<path id="Vector" d="M16.7069 12H0.293117C0.131252 12 0 11.8586 0 11.6842V0.315803C0 0.14141 0.131252 0 0.293117 0H16.7069C16.8687 0 17 0.14141 17 0.315803V11.6842C17 11.8586 16.8687 12 16.7069 12Z" fill="#F5F5F5"/>
<g id="Group">
<path id="Vector_2" d="M17 0.92312H0V0.315803C0 0.14141 0.131252 0 0.293117 0H16.7069C16.8687 0 17 0.14141 17 0.315803L17 0.92312Z" fill="#FF184E"/>
<path id="Vector_3" d="M17 3.69531H0V4.6184H17V3.69531Z" fill="#FF184E"/>
<path id="Vector_4" d="M17 1.84375H0V2.76683H17V1.84375Z" fill="#FF184E"/>
<path id="Vector_5" d="M17 6.46218H0.293117C0.131252 6.46218 0 6.32077 0 6.14638V5.53906H17V6.46218Z" fill="#FF184E"/>
<path id="Vector_6" d="M17 9.23438H0V10.1575H17V9.23438Z" fill="#FF184E"/>
<path id="Vector_7" d="M17 10.7734H0V11.6965H17V10.7734Z" fill="#FF184E"/>
<path id="Vector_8" d="M17 7.38281H0V8.3059H17V7.38281Z" fill="#FF184E"/>
</g>
<path id="Vector_9" d="M7.62067 2H0.293117C0.131252 2 0 2.13122 0 2.29308V7.70419C0 7.86605 0.131252 7.99731 0.293117 7.99731H7.6207C7.78256 7.99731 7.91382 7.86605 7.91382 7.70419V2.29308C7.91378 2.13122 7.78253 2 7.62067 2Z" fill="#311C55"/>
<g id="Group_2">
<path id="Vector_10" d="M0.822495 2.67515L0.887374 2.86972L1.09247 2.87128C1.11903 2.87151 1.13002 2.90538 1.10867 2.92115L0.943687 3.043L1.00558 3.23854C1.01361 3.26384 0.984759 3.28482 0.963144 3.26935L0.796298 3.15012L0.629453 3.26938C0.607838 3.28482 0.579051 3.26387 0.587019 3.23857L0.64891 3.04304L0.483924 2.92118C0.462574 2.90538 0.473565 2.87154 0.500127 2.87131L0.705222 2.86975L0.770101 2.67518C0.778468 2.64995 0.814062 2.64995 0.822495 2.67515Z" fill="#F5F5F5"/>
<path id="Vector_11" d="M0.822495 3.69075L0.887374 3.88532L1.09247 3.88688C1.11903 3.88711 1.13002 3.92098 1.10867 3.93675L0.943687 4.0586L1.00558 4.25414C1.01361 4.27944 0.984759 4.30042 0.963144 4.28495L0.796298 4.16572L0.629453 4.28498C0.607838 4.30042 0.579051 4.27947 0.587019 4.25417L0.64891 4.05864L0.483924 3.93678C0.462574 3.92098 0.473565 3.88714 0.500127 3.88691L0.705222 3.88535L0.770101 3.69078C0.778468 3.66558 0.814062 3.66558 0.822495 3.69075Z" fill="#F5F5F5"/>
<path id="Vector_12" d="M0.822495 4.71418L0.887374 4.90875L1.09247 4.91032C1.11903 4.91055 1.13002 4.94442 1.10867 4.96019L0.943687 5.08204L1.00558 5.27757C1.01361 5.30288 0.984759 5.32386 0.963144 5.30839L0.796298 5.18916L0.629453 5.30842C0.607838 5.32386 0.579051 5.30291 0.587019 5.27761L0.64891 5.08207L0.483924 4.96022C0.462574 4.94441 0.473565 4.91058 0.500127 4.91035L0.705222 4.90879L0.770101 4.71422C0.778468 4.68902 0.814062 4.68902 0.822495 4.71418Z" fill="#F5F5F5"/>
<path id="Vector_13" d="M0.822495 5.72983L0.887374 5.9244L1.09247 5.92597C1.11903 5.9262 1.13002 5.96006 1.10867 5.97584L0.943687 6.09769L1.00558 6.29322C1.01361 6.31853 0.984759 6.33951 0.963144 6.32404L0.796298 6.2048L0.629453 6.32407C0.607838 6.33951 0.579051 6.31856 0.587019 6.29326L0.64891 6.09772L0.483924 5.97587C0.462574 5.96006 0.473565 5.92623 0.500127 5.926L0.705222 5.92444L0.770101 5.72987C0.778468 5.70463 0.814062 5.70463 0.822495 5.72983Z" fill="#F5F5F5"/>
<path id="Vector_14" d="M0.822495 6.74548L0.887374 6.94005L1.09247 6.94161C1.11903 6.94185 1.13002 6.97571 1.10867 6.99149L0.943687 7.11334L1.00558 7.30887C1.01361 7.33418 0.984759 7.35516 0.963144 7.33969L0.796298 7.22045L0.629453 7.33972C0.607838 7.35516 0.579051 7.33421 0.587019 7.30891L0.64891 7.11337L0.483924 6.99152C0.462574 6.97571 0.473565 6.94188 0.500127 6.94165L0.705222 6.94009L0.770101 6.74552C0.778468 6.72025 0.814062 6.72025 0.822495 6.74548Z" fill="#F5F5F5"/>
<path id="Vector_15" d="M1.61156 3.17513L1.67644 3.3697L1.88153 3.37126C1.90809 3.37149 1.91908 3.40536 1.89774 3.42113L1.73275 3.54298L1.79464 3.73852C1.80267 3.76382 1.77382 3.7848 1.75221 3.76933L1.58536 3.65006L1.41852 3.76933C1.3969 3.78477 1.36811 3.76382 1.37608 3.73852L1.43797 3.54298L1.27299 3.42113C1.25164 3.40532 1.26263 3.37149 1.28919 3.37126L1.49428 3.3697L1.55916 3.17513C1.5675 3.14996 1.60316 3.14996 1.61156 3.17513Z" fill="#F5F5F5"/>
<path id="Vector_16" d="M1.61156 4.19078L1.67644 4.38535L1.88153 4.38691C1.90809 4.38714 1.91908 4.42101 1.89774 4.43678L1.73275 4.55863L1.79464 4.75417C1.80267 4.77947 1.77382 4.80045 1.75221 4.78498L1.58536 4.66571L1.41852 4.78498C1.3969 4.80042 1.36811 4.7795 1.37608 4.75417L1.43797 4.55863L1.27299 4.43678C1.25164 4.42097 1.26263 4.38714 1.28919 4.38691L1.49428 4.38535L1.55916 4.19078C1.5675 4.16557 1.60316 4.16557 1.61156 4.19078Z" fill="#F5F5F5"/>
<path id="Vector_17" d="M1.61156 5.2064L1.67644 5.40097L1.88153 5.40253C1.90809 5.40276 1.91908 5.43663 1.89774 5.4524L1.73275 5.57426L1.79464 5.76979C1.80267 5.79509 1.77382 5.81608 1.75221 5.8006L1.58536 5.68134L1.41852 5.8006C1.3969 5.81604 1.36811 5.79509 1.37608 5.76979L1.43797 5.57426L1.27299 5.4524C1.25164 5.4366 1.26263 5.40276 1.28919 5.40253L1.49428 5.40097L1.55916 5.2064C1.5675 5.1812 1.60316 5.1812 1.61156 5.2064Z" fill="#F5F5F5"/>
<path id="Vector_18" d="M1.61156 6.22981L1.67644 6.42438L1.88153 6.42594C1.90809 6.42618 1.91908 6.46004 1.89774 6.47581L1.73275 6.59767L1.79464 6.7932C1.80267 6.8185 1.77382 6.83949 1.75221 6.82401L1.58536 6.70475L1.41852 6.82401C1.3969 6.83945 1.36811 6.8185 1.37608 6.7932L1.43797 6.59767L1.27299 6.47581C1.25164 6.46001 1.26263 6.42618 1.28919 6.42594L1.49428 6.42438L1.55916 6.22981C1.5675 6.20465 1.60316 6.20465 1.61156 6.22981Z" fill="#F5F5F5"/>
<path id="Vector_19" d="M2.40257 2.67515L2.46745 2.86972L2.67255 2.87128C2.69911 2.87151 2.7101 2.90538 2.68875 2.92115L2.52377 3.04301L2.58566 3.23854C2.59369 3.26384 2.56484 3.28482 2.54322 3.26935L2.37638 3.15009L2.20953 3.26935C2.18792 3.28479 2.15913 3.26384 2.1671 3.23854L2.22899 3.04301L2.064 2.92115C2.04265 2.90535 2.05364 2.87151 2.08021 2.87128L2.2853 2.86972L2.35018 2.67515C2.35855 2.64995 2.39417 2.64995 2.40257 2.67515Z" fill="#F5F5F5"/>
<path id="Vector_20" d="M2.40257 3.69075L2.46745 3.88532L2.67255 3.88688C2.69911 3.88711 2.7101 3.92098 2.68875 3.93675L2.52377 4.05861L2.58566 4.25414C2.59369 4.27944 2.56484 4.30042 2.54322 4.28495L2.37638 4.16569L2.20953 4.28495C2.18792 4.30039 2.15913 4.27944 2.1671 4.25414L2.22899 4.05861L2.064 3.93675C2.04265 3.92095 2.05364 3.88711 2.08021 3.88688L2.2853 3.88532L2.35018 3.69075C2.35855 3.66558 2.39417 3.66558 2.40257 3.69075Z" fill="#F5F5F5"/>
<path id="Vector_21" d="M2.40257 4.71419L2.46745 4.90876L2.67255 4.91032C2.69911 4.91055 2.7101 4.94442 2.68875 4.96019L2.52377 5.08205L2.58566 5.27758C2.59369 5.30288 2.56484 5.32387 2.54322 5.30839L2.37638 5.18913L2.20953 5.30839C2.18792 5.32383 2.15913 5.30288 2.1671 5.27758L2.22899 5.08205L2.064 4.96019C2.04265 4.94439 2.05364 4.91055 2.08021 4.91032L2.2853 4.90876L2.35018 4.71419C2.35855 4.68902 2.39417 4.68902 2.40257 4.71419Z" fill="#F5F5F5"/>
<path id="Vector_22" d="M2.40257 5.72984L2.46745 5.92441L2.67255 5.92597C2.69911 5.9262 2.7101 5.96007 2.68875 5.97584L2.52377 6.09769L2.58566 6.29323C2.59369 6.31853 2.56484 6.33951 2.54322 6.32404L2.37638 6.20477L2.20953 6.32404C2.18792 6.33948 2.15913 6.31853 2.1671 6.29323L2.22899 6.09769L2.064 5.97584C2.04265 5.96003 2.05364 5.9262 2.08021 5.92597L2.2853 5.92441L2.35018 5.72984C2.35855 5.70464 2.39417 5.70464 2.40257 5.72984Z" fill="#F5F5F5"/>
<path id="Vector_23" d="M2.40257 6.74549L2.46745 6.94006L2.67255 6.94162C2.69911 6.94185 2.7101 6.97572 2.68875 6.99149L2.52377 7.11335L2.58566 7.30888C2.59369 7.33418 2.56484 7.35516 2.54322 7.33969L2.37638 7.22043L2.20953 7.33969C2.18792 7.35513 2.15913 7.33418 2.1671 7.30888L2.22899 7.11335L2.064 6.99149C2.04265 6.97569 2.05364 6.94185 2.08021 6.94162L2.2853 6.94006L2.35018 6.74549C2.35855 6.72025 2.39417 6.72025 2.40257 6.74549Z" fill="#F5F5F5"/>
<path id="Vector_24" d="M3.19164 3.17513L3.25652 3.3697L3.46161 3.37126C3.48817 3.37149 3.49916 3.40536 3.47782 3.42113L3.31283 3.54298L3.37472 3.73852C3.38275 3.76382 3.3539 3.7848 3.33229 3.76933L3.16544 3.65006L2.99859 3.76933C2.97698 3.78477 2.94819 3.76382 2.95616 3.73852L3.01805 3.54298L2.85306 3.42113C2.83172 3.40532 2.84271 3.37149 2.86927 3.37126L3.07436 3.3697L3.13924 3.17513C3.14758 3.14996 3.18324 3.14996 3.19164 3.17513Z" fill="#F5F5F5"/>
<path id="Vector_25" d="M3.19164 4.19078L3.25652 4.38535L3.46161 4.38691C3.48817 4.38714 3.49916 4.42101 3.47782 4.43678L3.31283 4.55863L3.37472 4.75417C3.38275 4.77947 3.3539 4.80045 3.33229 4.78498L3.16544 4.66571L2.99859 4.78498C2.97698 4.80042 2.94819 4.7795 2.95616 4.75417L3.01805 4.55863L2.85306 4.43678C2.83172 4.42097 2.84271 4.38714 2.86927 4.38691L3.07436 4.38535L3.13924 4.19078C3.14758 4.16557 3.18324 4.16557 3.19164 4.19078Z" fill="#F5F5F5"/>
<path id="Vector_26" d="M3.19164 5.2064L3.25652 5.40097L3.46161 5.40253C3.48817 5.40276 3.49916 5.43663 3.47782 5.4524L3.31283 5.57426L3.37472 5.76979C3.38275 5.79509 3.3539 5.81608 3.33229 5.8006L3.16544 5.68134L2.99859 5.8006C2.97698 5.81604 2.94819 5.79509 2.95616 5.76979L3.01805 5.57426L2.85306 5.4524C2.83172 5.4366 2.84271 5.40276 2.86927 5.40253L3.07436 5.40097L3.13924 5.2064C3.14758 5.1812 3.18324 5.1812 3.19164 5.2064Z" fill="#F5F5F5"/>
<path id="Vector_27" d="M3.19164 6.22981L3.25652 6.42438L3.46161 6.42594C3.48817 6.42618 3.49916 6.46004 3.47782 6.47581L3.31283 6.59767L3.37472 6.7932C3.38275 6.8185 3.3539 6.83949 3.33229 6.82401L3.16544 6.70475L2.99859 6.82401C2.97698 6.83945 2.94819 6.8185 2.95616 6.7932L3.01805 6.59767L2.85306 6.47581C2.83172 6.46001 2.84271 6.42618 2.86927 6.42594L3.07436 6.42438L3.13924 6.22981C3.14758 6.20465 3.18324 6.20465 3.19164 6.22981Z" fill="#F5F5F5"/>
<path id="Vector_28" d="M3.98269 2.67515L4.04757 2.86972L4.25266 2.87128C4.27922 2.87151 4.29021 2.90538 4.26886 2.92115L4.10388 3.04301L4.16577 3.23854C4.1738 3.26384 4.14495 3.28482 4.12333 3.26935L3.95646 3.15009L3.78961 3.26935C3.76799 3.28479 3.73921 3.26384 3.74718 3.23854L3.80907 3.04301L3.64408 2.92115C3.62273 2.90535 3.63372 2.87151 3.66028 2.87128L3.86538 2.86972L3.93026 2.67515C3.93866 2.64995 3.97429 2.64995 3.98269 2.67515Z" fill="#F5F5F5"/>
<path id="Vector_29" d="M3.98269 3.69075L4.04757 3.88532L4.25266 3.88688C4.27922 3.88711 4.29021 3.92098 4.26886 3.93675L4.10388 4.05861L4.16577 4.25414C4.1738 4.27944 4.14495 4.30042 4.12333 4.28495L3.95646 4.16569L3.78961 4.28495C3.76799 4.30039 3.73921 4.27944 3.74718 4.25414L3.80907 4.05861L3.64408 3.93675C3.62273 3.92095 3.63372 3.88711 3.66028 3.88688L3.86538 3.88532L3.93026 3.69075C3.93866 3.66558 3.97429 3.66558 3.98269 3.69075Z" fill="#F5F5F5"/>
<path id="Vector_30" d="M3.98269 4.70638L4.04757 4.90095L4.25266 4.90251C4.27922 4.90274 4.29021 4.93661 4.26886 4.95238L4.10388 5.07423L4.16577 5.26977C4.1738 5.29507 4.14495 5.31605 4.12333 5.30058L3.95646 5.18131L3.78961 5.30058C3.76799 5.31602 3.73921 5.29507 3.74718 5.26977L3.80907 5.07423L3.64408 4.95238C3.62273 4.93657 3.63372 4.90274 3.66028 4.90251L3.86538 4.90095L3.93026 4.70638C3.93866 4.68121 3.97429 4.68121 3.98269 4.70638Z" fill="#F5F5F5"/>
<path id="Vector_31" d="M3.98269 5.72984L4.04757 5.92441L4.25266 5.92597C4.27922 5.9262 4.29021 5.96007 4.26886 5.97584L4.10388 6.09769L4.16577 6.29323C4.1738 6.31853 4.14495 6.33951 4.12333 6.32404L3.95646 6.20477L3.78961 6.32404C3.76799 6.33948 3.73921 6.31853 3.74718 6.29323L3.80907 6.09769L3.64408 5.97584C3.62273 5.96003 3.63372 5.9262 3.66028 5.92597L3.86538 5.92441L3.93026 5.72984C3.93866 5.70464 3.97429 5.70464 3.98269 5.72984Z" fill="#F5F5F5"/>
<path id="Vector_32" d="M3.98269 6.74549L4.04757 6.94006L4.25266 6.94162C4.27922 6.94185 4.29021 6.97572 4.26886 6.99149L4.10388 7.11335L4.16577 7.30888C4.1738 7.33418 4.14495 7.35516 4.12333 7.33969L3.95646 7.22043L3.78961 7.33969C3.76799 7.35513 3.73921 7.33418 3.74718 7.30888L3.80907 7.11335L3.64408 6.99149C3.62273 6.97569 3.63372 6.94185 3.66028 6.94162L3.86538 6.94006L3.93026 6.74549C3.93866 6.72025 3.97429 6.72025 3.98269 6.74549Z" fill="#F5F5F5"/>
<path id="Vector_33" d="M4.77172 3.17513L4.83659 3.3697L5.04169 3.37126C5.06825 3.37149 5.07924 3.40536 5.05789 3.42113L4.89291 3.54298L4.9548 3.73852C4.96283 3.76382 4.93398 3.7848 4.91236 3.76933L4.74552 3.65006L4.57867 3.76933C4.55706 3.78477 4.52827 3.76382 4.53624 3.73852L4.59813 3.54298L4.43314 3.42113C4.41179 3.40532 4.42278 3.37149 4.44935 3.37126L4.65444 3.3697L4.71932 3.17513C4.72772 3.14996 4.76332 3.14996 4.77172 3.17513Z" fill="#F5F5F5"/>
<path id="Vector_34" d="M4.77172 4.19078L4.83659 4.38535L5.04169 4.38691C5.06825 4.38714 5.07924 4.42101 5.05789 4.43678L4.89291 4.55863L4.9548 4.75417C4.96283 4.77947 4.93398 4.80045 4.91236 4.78498L4.74552 4.66571L4.57867 4.78498C4.55706 4.80042 4.52827 4.7795 4.53624 4.75417L4.59813 4.55863L4.43314 4.43678C4.41179 4.42097 4.42278 4.38714 4.44935 4.38691L4.65444 4.38535L4.71932 4.19078C4.72772 4.16557 4.76332 4.16557 4.77172 4.19078Z" fill="#F5F5F5"/>
<path id="Vector_35" d="M4.77172 5.2064L4.83659 5.40097L5.04169 5.40253C5.06825 5.40276 5.07924 5.43663 5.05789 5.4524L4.89291 5.57426L4.9548 5.76979C4.96283 5.79509 4.93398 5.81608 4.91236 5.8006L4.74552 5.68134L4.57867 5.8006C4.55706 5.81604 4.52827 5.79509 4.53624 5.76979L4.59813 5.57426L4.43314 5.4524C4.41179 5.4366 4.42278 5.40276 4.44935 5.40253L4.65444 5.40097L4.71932 5.2064C4.72772 5.1812 4.76332 5.1812 4.77172 5.2064Z" fill="#F5F5F5"/>
<path id="Vector_36" d="M4.77172 6.22981L4.83659 6.42438L5.04169 6.42594C5.06825 6.42618 5.07924 6.46004 5.05789 6.47581L4.89291 6.59767L4.9548 6.7932C4.96283 6.8185 4.93398 6.83949 4.91236 6.82401L4.74552 6.70475L4.57867 6.82401C4.55706 6.83945 4.52827 6.8185 4.53624 6.7932L4.59813 6.59767L4.43314 6.47581C4.41179 6.46001 4.42278 6.42618 4.44935 6.42594L4.65444 6.42438L4.71932 6.22981C4.72772 6.20465 4.76332 6.20465 4.77172 6.22981Z" fill="#F5F5F5"/>
<path id="Vector_37" d="M5.56273 2.67515L5.62761 2.86972L5.83271 2.87128C5.85927 2.87151 5.87026 2.90538 5.84891 2.92115L5.68392 3.04301L5.74581 3.23854C5.75385 3.26384 5.72499 3.28482 5.70338 3.26935L5.53653 3.15009L5.36969 3.26935C5.34807 3.28479 5.31929 3.26384 5.32725 3.23854L5.38914 3.04301L5.22416 2.92115C5.20281 2.90535 5.2138 2.87151 5.24036 2.87128L5.44546 2.86972L5.51034 2.67515C5.51867 2.64995 5.55433 2.64995 5.56273 2.67515Z" fill="#F5F5F5"/>
<path id="Vector_38" d="M5.56273 3.69075L5.62761 3.88532L5.83271 3.88688C5.85927 3.88711 5.87026 3.92098 5.84891 3.93675L5.68392 4.05861L5.74581 4.25414C5.75385 4.27944 5.72499 4.30042 5.70338 4.28495L5.53653 4.16569L5.36969 4.28495C5.34807 4.30039 5.31929 4.27944 5.32725 4.25414L5.38914 4.05861L5.22416 3.93675C5.20281 3.92095 5.2138 3.88711 5.24036 3.88688L5.44546 3.88532L5.51034 3.69075C5.51867 3.66558 5.55433 3.66558 5.56273 3.69075Z" fill="#F5F5F5"/>
<path id="Vector_39" d="M5.56273 4.70638L5.62761 4.90095L5.83271 4.90251C5.85927 4.90274 5.87026 4.93661 5.84891 4.95238L5.68392 5.07423L5.74581 5.26977C5.75385 5.29507 5.72499 5.31605 5.70338 5.30058L5.53653 5.18131L5.36969 5.30058C5.34807 5.31602 5.31929 5.29507 5.32725 5.26977L5.38914 5.07423L5.22416 4.95238C5.20281 4.93657 5.2138 4.90274 5.24036 4.90251L5.44546 4.90095L5.51034 4.70638C5.51867 4.68121 5.55433 4.68121 5.56273 4.70638Z" fill="#F5F5F5"/>
<path id="Vector_40" d="M5.56273 5.72984L5.62761 5.92441L5.83271 5.92597C5.85927 5.9262 5.87026 5.96007 5.84891 5.97584L5.68392 6.09769L5.74581 6.29323C5.75385 6.31853 5.72499 6.33951 5.70338 6.32404L5.53653 6.20477L5.36969 6.32404C5.34807 6.33948 5.31929 6.31853 5.32725 6.29323L5.38914 6.09769L5.22416 5.97584C5.20281 5.96003 5.2138 5.9262 5.24036 5.92597L5.44546 5.92441L5.51034 5.72984C5.51867 5.70464 5.55433 5.70464 5.56273 5.72984Z" fill="#F5F5F5"/>
<path id="Vector_41" d="M5.56273 6.74549L5.62761 6.94006L5.83271 6.94162C5.85927 6.94185 5.87026 6.97572 5.84891 6.99149L5.68392 7.11335L5.74581 7.30888C5.75385 7.33418 5.72499 7.35516 5.70338 7.33969L5.53653 7.22043L5.36969 7.33969C5.34807 7.35513 5.31929 7.33418 5.32725 7.30888L5.38914 7.11335L5.22416 6.99149C5.20281 6.97569 5.2138 6.94185 5.24036 6.94162L5.44546 6.94006L5.51034 6.74549C5.51867 6.72025 5.55433 6.72025 5.56273 6.74549Z" fill="#F5F5F5"/>
<path id="Vector_42" d="M6.35375 3.17513L6.41862 3.3697L6.62372 3.37126C6.65028 3.37149 6.66127 3.40536 6.63992 3.42113L6.47494 3.54298L6.53683 3.73852C6.54486 3.76382 6.51601 3.7848 6.49439 3.76933L6.32755 3.65006L6.1607 3.76933C6.13909 3.78477 6.1103 3.76382 6.11827 3.73852L6.18016 3.54298L6.01517 3.42113C5.99382 3.40532 6.00481 3.37149 6.03138 3.37126L6.23647 3.3697L6.30135 3.17513C6.30972 3.14996 6.34538 3.14996 6.35375 3.17513Z" fill="#F5F5F5"/>
<path id="Vector_43" d="M6.35375 4.19078L6.41862 4.38535L6.62372 4.38691C6.65028 4.38714 6.66127 4.42101 6.63992 4.43678L6.47494 4.55863L6.53683 4.75417C6.54486 4.77947 6.51601 4.80045 6.49439 4.78498L6.32755 4.66571L6.1607 4.78498C6.13909 4.80042 6.1103 4.7795 6.11827 4.75417L6.18016 4.55863L6.01517 4.43678C5.99382 4.42097 6.00481 4.38714 6.03138 4.38691L6.23647 4.38535L6.30135 4.19078C6.30972 4.16557 6.34538 4.16557 6.35375 4.19078Z" fill="#F5F5F5"/>
<path id="Vector_44" d="M6.35375 5.2064L6.41862 5.40097L6.62372 5.40253C6.65028 5.40276 6.66127 5.43663 6.63992 5.4524L6.47494 5.57426L6.53683 5.76979C6.54486 5.79509 6.51601 5.81608 6.49439 5.8006L6.32755 5.68134L6.1607 5.8006C6.13909 5.81604 6.1103 5.79509 6.11827 5.76979L6.18016 5.57426L6.01517 5.4524C5.99382 5.4366 6.00481 5.40276 6.03138 5.40253L6.23647 5.40097L6.30135 5.2064C6.30972 5.1812 6.34538 5.1812 6.35375 5.2064Z" fill="#F5F5F5"/>
<path id="Vector_45" d="M6.35375 6.22981L6.41862 6.42438L6.62372 6.42594C6.65028 6.42618 6.66127 6.46004 6.63992 6.47581L6.47494 6.59767L6.53683 6.7932C6.54486 6.8185 6.51601 6.83949 6.49439 6.82401L6.32755 6.70475L6.1607 6.82401C6.13909 6.83945 6.1103 6.8185 6.11827 6.7932L6.18016 6.59767L6.01517 6.47581C5.99382 6.46001 6.00481 6.42618 6.03138 6.42594L6.23647 6.42438L6.30135 6.22981C6.30972 6.20465 6.34538 6.20465 6.35375 6.22981Z" fill="#F5F5F5"/>
<path id="Vector_46" d="M7.14281 2.67515L7.20769 2.86972L7.41278 2.87128C7.43935 2.87151 7.45034 2.90538 7.42899 2.92115L7.264 3.04301L7.32589 3.23854C7.33393 3.26384 7.30507 3.28482 7.28346 3.26935L7.11661 3.15009L6.94977 3.26935C6.92815 3.28479 6.89936 3.26384 6.90733 3.23854L6.96922 3.04301L6.80424 2.92115C6.78289 2.90535 6.79388 2.87151 6.82044 2.87128L7.02554 2.86972L7.09041 2.67515C7.09878 2.64995 7.13438 2.64995 7.14281 2.67515Z" fill="#F5F5F5"/>
<path id="Vector_47" d="M7.14281 3.69075L7.20769 3.88532L7.41278 3.88688C7.43935 3.88711 7.45034 3.92098 7.42899 3.93675L7.264 4.05861L7.32589 4.25414C7.33393 4.27944 7.30507 4.30042 7.28346 4.28495L7.11661 4.16569L6.94977 4.28495C6.92815 4.30039 6.89936 4.27944 6.90733 4.25414L6.96922 4.05861L6.80424 3.93675C6.78289 3.92095 6.79388 3.88711 6.82044 3.88688L7.02554 3.88532L7.09041 3.69075C7.09878 3.66558 7.13438 3.66558 7.14281 3.69075Z" fill="#F5F5F5"/>
<path id="Vector_48" d="M7.14281 4.70638L7.20769 4.90095L7.41278 4.90251C7.43935 4.90274 7.45034 4.93661 7.42899 4.95238L7.264 5.07423L7.32589 5.26977C7.33393 5.29507 7.30507 5.31605 7.28346 5.30058L7.11661 5.18131L6.94977 5.30058C6.92815 5.31602 6.89936 5.29507 6.90733 5.26977L6.96922 5.07423L6.80424 4.95238C6.78289 4.93657 6.79388 4.90274 6.82044 4.90251L7.02554 4.90095L7.09041 4.70638C7.09878 4.68121 7.13438 4.68121 7.14281 4.70638Z" fill="#F5F5F5"/>
<path id="Vector_49" d="M7.14281 5.72984L7.20769 5.92441L7.41278 5.92597C7.43935 5.9262 7.45034 5.96007 7.42899 5.97584L7.264 6.09769L7.32589 6.29323C7.33393 6.31853 7.30507 6.33951 7.28346 6.32404L7.11661 6.20477L6.94977 6.32404C6.92815 6.33948 6.89936 6.31853 6.90733 6.29323L6.96922 6.09769L6.80424 5.97584C6.78289 5.96003 6.79388 5.9262 6.82044 5.92597L7.02554 5.92441L7.09041 5.72984C7.09878 5.70464 7.13438 5.70464 7.14281 5.72984Z" fill="#F5F5F5"/>
<path id="Vector_50" d="M7.14281 6.74549L7.20769 6.94006L7.41278 6.94162C7.43935 6.94185 7.45034 6.97572 7.42899 6.99149L7.264 7.11335L7.32589 7.30888C7.33393 7.33418 7.30507 7.35516 7.28346 7.33969L7.11661 7.22043L6.94977 7.33969C6.92815 7.35513 6.89936 7.33418 6.90733 7.30888L6.96922 7.11335L6.80424 6.99149C6.78289 6.97569 6.79388 6.94185 6.82044 6.94162L7.02554 6.94006L7.09041 6.74549C7.09878 6.72025 7.13438 6.72025 7.14281 6.74549Z" fill="#F5F5F5"/>
</g>
</g>
</svg>
