<svg width="86" height="119" viewBox="0 0 86 119" fill="none" xmlns="http://www.w3.org/2000/svg">
<path id="Vector" d="M71.4822 0.761704C64.5819 3.10072 60.9389 11.3131 58.875 16.956C57.2292 21.6148 55.9131 26.3256 55.0008 31.0447C52.4273 28.7052 49.9636 26.3829 47.39 24.0434C44.7089 21.5211 42.1042 18.7899 38.7159 16.9299C36.3121 15.5565 33.2058 14.5145 29.9635 15.2747C26.3891 16.1483 23.6297 19.0844 21.7901 21.8891C11.3573 37.5418 29.5584 51.1849 41.9716 56.1798C45.2572 57.5263 48.6573 58.5593 52.1698 59.4443C50.7602 60.4379 49.3505 61.4315 47.9409 62.4252C37.1847 69.9037 26.3209 77.1995 17.4836 86.5829C8.909 95.5656 1.73481 106.758 0.801662 118.05C0.67039 119.521 2.34519 117.962 2.83018 117.43C3.87422 116.324 5.37216 114.294 5.50343 112.823C6.51777 100.991 15.0707 90.9551 25.177 82.7111C35.0228 74.7023 46.061 68.0418 56.1601 60.294C61.7251 61.447 67.4405 62.3474 73.046 63.2305C74.9146 63.5249 78.3881 56.8884 77.4729 56.6889C72.8566 55.9617 68.0563 55.2606 63.2966 54.2897C63.557 54.0545 63.8174 53.8192 64.0778 53.5839C73.2689 45.1404 81.1695 34.5043 84.3391 23.4544C85.8845 18.1166 86.2615 12.3185 84.4212 7.49724C82.7626 2.81516 77.8663 -1.43757 71.4822 0.761704ZM23.9549 22.0092C23.8426 22.1572 23.7303 22.3053 23.6181 22.4534C23.6945 22.2444 23.7709 22.0354 23.9549 22.0092ZM80.9485 21.7597C80.6957 26.5828 79.0092 31.5115 76.3742 36.0145C72.3846 42.7907 66.4285 48.4283 60.0398 53.5004C45.8012 50.3178 32.4012 45.0016 25.889 33.0895C25.031 31.4623 24.283 29.8525 23.8313 28.0682C23.7643 27.6156 23.3339 24.3428 23.5392 22.8278C23.9478 22.5054 24.354 22.3483 24.8342 22.1477C25.8688 21.7028 26.9368 21.4843 27.9284 21.4747C29.6177 21.4645 31.2258 21.9942 32.6857 22.611C36.4802 24.314 39.2665 27.1844 42.1292 29.8458C46.0075 33.3855 49.8117 36.9689 53.69 40.5086C54.6315 41.4306 58.1696 35.4121 58.2173 34.646C58.8952 28.3427 60.161 22.0214 62.1603 15.7605C62.9294 13.3397 63.536 9.45658 66.1283 7.9309C68.7947 6.36162 72.0968 6.55028 74.4313 7.63645C79.8697 9.92999 81.2084 16.4405 80.9485 21.7597Z" fill="#EEB012"/>
</svg>
