<svg width="155" height="187" viewBox="0 0 155 187" fill="none" xmlns="http://www.w3.org/2000/svg">
<path d="M-200 59.1232L-173.8 0.658352L-172.808 1.17543C-169.991 2.65526 -166.127 4.78547 -161.416 7.33122C-123.224 28.1049 -21.7872 83.3058 2.0562 71.748C13.9779 65.9691 43.7986 66.7621 67.7951 67.4086C81.7378 67.7881 93.8041 68.0874 99.0744 67.0802C102.356 66.4136 103.925 67.9496 104.559 68.9224C105.948 71.0299 105.588 74.5637 103.797 76.7679C98.2345 83.5488 82.8301 84.7241 70.4412 85.6567C64.9461 86.056 56.6083 86.7392 56.4083 87.9537C56.4083 87.9537 56.3704 88.8062 60.3217 91.084C68.5243 95.7379 84.2637 99.2772 100.912 103.007C118.566 106.969 136.814 111.053 148.783 117.032C152.378 118.825 153.335 122.152 152.676 124.646C151.964 127.261 149.388 129.765 145.112 129.407C145.112 129.407 144.657 129.312 143.903 129.118C116.81 122.665 96.8225 118.961 89.0138 118.975C87.0968 118.986 86.0978 119.081 85.5804 119.212C87.9217 120.986 98.3928 124.845 108.564 128.606C120.24 132.932 134.782 138.29 148.378 144.31C151.563 145.737 153.733 147.978 154.492 150.636C155.095 152.79 154.662 154.951 153.301 156.623C149.923 160.833 145.359 158.897 139.031 156.206C137.743 155.665 136.36 155.081 134.868 154.485C130.742 152.853 125.369 150.591 119.691 148.155C106.62 142.587 84.7409 133.29 82.4163 134.892C82.8203 137.32 99.2655 145.087 111.279 150.797C124.438 157.02 136.879 162.885 140.918 166.76C142.896 168.661 143.21 171.373 141.651 173.573C140.051 175.863 136.174 177.603 130.595 175.03L130.372 174.93C127.615 173.658 102.07 161.958 101.784 161.829C71.1438 148.099 68.9705 151.327 68.9029 151.478L68.8894 151.508C68.254 152.926 74.264 160.51 96.5226 174.252C98.8582 175.697 104.29 179.109 101.623 184.036C100.919 185.351 99.7954 186.151 98.2703 186.482C91.0665 187.963 75.5003 177.039 60.4215 166.478C55.3528 162.939 50.5572 159.558 46.136 156.708C40.5354 153.075 35.5247 149.236 30.2495 145.133C19.3758 136.71 8.11511 128.041 -8.72505 121.581C-49.4627 106.659 -87.9732 94.6175 -128.694 81.8759C-151.437 74.7632 -174.954 67.4128 -198.767 59.5307L-200 59.1232ZM-172.755 3.44546L-197.183 57.9584C-173.765 65.6994 -150.613 72.923 -128.247 79.939C-87.4941 92.6949 -48.9837 104.736 -8.15041 119.702C8.98992 126.26 20.3828 135.06 31.4158 143.554C36.6726 147.613 41.638 151.468 47.1565 155.028C51.6096 157.893 56.4052 161.273 61.5058 164.827C75.5143 174.618 91.4038 185.76 97.677 184.478C98.6076 184.279 99.2737 183.816 99.7024 183.031C100.943 180.688 99.8045 178.621 95.393 175.919C88.0629 171.366 64.4456 156.218 66.9466 150.637C66.9736 150.577 66.9871 150.547 67.0142 150.487C67.7045 149.202 69.7892 145.318 102.563 160.005C102.754 160.09 124.49 170.048 131.183 173.12L131.406 173.22C135.806 175.264 138.727 174.038 139.921 172.399C140.883 171.019 140.714 169.349 139.478 168.18C135.704 164.568 122.817 158.504 110.422 152.623C90.3548 143.123 80.8433 138.317 80.4318 135.054C80.3383 134.324 80.6087 133.72 81.1705 133.32C84.1882 131.194 98.7052 137.12 120.507 146.419C126.199 148.825 131.558 151.118 135.62 152.721C137.113 153.317 138.527 153.915 139.847 154.47C146.366 157.247 149.328 158.32 151.693 155.432C152.652 154.231 152.955 152.701 152.532 151.17C151.965 149.105 150.228 147.349 147.635 146.223C134.135 140.246 119.639 134.873 107.948 130.576C87.2746 122.942 82.8707 121.077 83.1896 118.829C83.3848 117.54 84.964 117.088 88.9842 117.078C99.8865 117.073 128.383 123.468 144.387 127.27C144.969 127.422 145.314 127.505 145.391 127.503C148.563 127.765 150.251 125.877 150.712 124.164C151.12 122.572 150.675 120.235 147.945 118.903C136.218 113.068 118.078 108.996 100.565 105.061C83.744 101.29 67.8319 97.7098 59.3561 92.8973C55.5825 90.7353 54.0731 89.1533 54.39 87.5927C54.9214 85.0414 59.8847 84.5486 70.2254 83.7487C81.5834 82.8975 97.1422 81.719 102.19 75.5764C103.465 74.0106 103.778 71.4341 102.869 70.0486C102.284 69.1345 101.184 68.8588 99.6406 69.1452C94.1434 70.2319 81.9816 69.8897 67.9163 69.5278C44.1833 68.8907 14.6262 68.1071 3.15335 73.6525C-21.665 85.679 -120.216 32.0611 -162.272 9.15714C-166.569 6.79695 -170.065 4.86819 -172.755 3.44546Z" fill="#F74F22"/>
</svg>
