<svg width="115" height="169" viewBox="0 0 115 169" fill="none" xmlns="http://www.w3.org/2000/svg">
<path d="M94.0034 0.950638C84.4747 4.01184 79.7795 15.7497 77.1672 23.8362C75.0917 30.5153 73.4794 37.2855 72.4316 44.0874C68.7233 40.5698 65.1693 37.0826 61.461 33.5651C57.5936 29.7773 53.823 25.69 48.9993 22.8289C45.5746 20.721 41.1843 19.0601 36.6907 20.0069C31.7385 21.1024 28.0241 25.2289 25.5888 29.209C11.7645 51.4134 37.8515 72.0797 55.4357 79.9224C60.0911 82.0337 64.8915 83.6957 69.8417 85.1483C67.92 86.5219 65.9982 87.8955 64.0764 89.2691C49.4073 99.6004 34.5791 109.661 22.6826 122.848C11.134 135.466 1.64832 151.358 0.887505 167.693C0.77484 169.821 3.03989 167.639 3.69198 166.891C5.09753 165.337 7.09287 162.464 7.20553 160.336C8.05382 143.222 19.5216 129.075 33.2457 117.602C46.6174 106.457 61.7199 97.3263 75.458 86.5728C83.2889 88.513 91.3179 90.094 99.1925 91.6446C101.817 92.1615 106.352 82.7014 105.063 82.3681C98.5783 81.0911 91.8375 79.8434 85.1404 78.2061C85.493 77.8773 85.8455 77.5486 86.1981 77.2198C98.634 65.4135 109.161 50.3643 113.059 34.4875C114.961 26.8187 115.209 18.4259 112.406 11.3436C109.863 4.47188 102.818 -1.93268 94.0034 0.950638ZM28.6192 29.4872C28.4694 29.6966 28.3197 29.906 28.1699 30.1155C28.2666 29.816 28.3634 29.5165 28.6192 29.4872ZM108.24 31.8661C108.118 38.8504 105.999 45.919 102.534 52.3244C97.2854 61.9624 89.2345 69.8539 80.552 76.9044C60.5046 71.6029 41.5261 63.2468 31.8543 45.6536C30.5774 43.2519 29.4548 40.8807 28.7378 38.2707C28.6225 37.6109 27.8637 32.8425 28.0778 30.6548C28.6331 30.2067 29.1931 29.9984 29.8544 29.7304C31.2785 29.1348 32.7603 28.8692 34.1453 28.903C36.5051 28.9695 38.7774 29.8151 40.847 30.7801C46.2306 33.433 50.2617 37.7308 54.3895 41.7292C59.9785 47.0505 65.4662 52.4316 71.0552 57.7529C72.415 59.1356 77.0691 50.5752 77.0989 49.4661C77.743 40.355 79.2076 31.2461 81.7 22.26C82.6582 18.7853 83.3189 13.1815 86.8676 11.093C90.5177 8.94477 95.1405 9.37725 98.4546 11.0651C106.164 14.6537 108.347 24.1624 108.24 31.8661Z" fill="#EEB012"/>
</svg>
