<svg width="983" height="843" viewBox="0 0 983 843" fill="none" xmlns="http://www.w3.org/2000/svg">
<g filter="url(#filter0_b_24_10669)">
<path d="M282.37 -57.869C280.569 -79.873 278.994 -62.1032 255.42 -52.1771C267.629 -45.6523 236.347 -14.9716 232.746 -33.5049C214.461 -61.895 213.786 -72.0293 197.076 -67.9339C172.32 -63.0056 154.935 -35.9344 140.25 -58.2161C145.483 -59.6737 139.125 -56.9666 129.729 -54.2595C124.272 -26.0777 140.644 -53.9124 119.771 -48.9147C123.597 -58.6325 103.061 -39.8909 99.235 -33.019C85.2257 -32.3249 77.574 -4.07368 74.7046 -29.1319C57.8258 19.8739 57.6008 -26.633 52.1996 -39.8909C37.9089 -39.8215 50.7367 -78.693 26.4313 -47.1793C16.9792 -39.1274 33.7454 -61.6867 15.7414 -47.0405C-14.4153 -37.045 -23.6423 -28.4378 -40.5211 -55.023C-53.5178 -55.7866 -79.8486 -80.706 -92.0576 -66.8927C-113.944 -68.7669 -134.423 -52.3159 -120.358 -30.7284C-138.193 1.27114 -97.9652 22.3728 -110.849 38.4073C-111.693 46.251 -97.1775 94.7014 -104.773 106.849C-94.9833 115.317 -112.706 99.7686 -103.985 118.718C-108.374 114.623 -78.4421 166.752 -102.297 153.703C-95.4896 160.714 -95.9397 164.392 -105.448 189.451C-98.3027 202.639 -116.701 202.014 -107.924 200.349C-128.178 213.398 -130.879 257.059 -120.245 264.209C-114.675 295.375 -125.421 313.839 -123.677 329.249C-135.098 349.518 -108.036 374.437 -116.082 393.665C-124.071 434.063 -113.381 420.597 -95.3771 455.442C-84.1246 441.837 -91.8888 459.121 -92.3389 468.353C-105.729 491.051 -86.4876 507.988 -88.1755 507.294C-71.1842 501.81 -115.463 524.092 -94.5332 535.268C-86.994 519.303 -98.0777 540.127 -102.973 561.714C-129.416 571.918 -113.606 578.998 -104.21 571.64C-102.522 571.571 -108.149 574.139 -104.717 582.33C-107.755 588.022 -77.148 643.205 -101.678 650.91C-116.25 692.003 -86.9377 696.862 -105.617 717.963C-97.9089 734.553 -81.7616 719.282 -109.612 745.035C-130.654 759.334 -99.653 785.641 -111.524 758.362C-111.749 781.893 -130.766 775.438 -126.209 835.688C-141.4 855.471 -123.115 893.163 -112.368 880.738C-118.951 881.293 -91.2699 886.082 -86.6564 878.655C-84.4622 880.738 -67.921 876.503 -60.3255 873.866C-61.5633 889.276 -54.643 872.13 -49.5794 871.645C-31.1815 876.989 -29.4374 870.326 -10.3081 860.677C1.28195 858.595 10.5653 847.558 29.8071 855.888C42.0723 853.389 44.154 855.402 39.9343 856.443C49.1051 861.718 66.0964 855.818 78.4179 869.77C97.941 876.503 99.9102 884.694 114.37 893.163C129.954 889.345 134.061 888.928 157.523 899.757C170.801 888.512 185.148 882.959 200.057 884.486C208.497 879.349 230.327 871.922 243.717 870.048C242.536 866.994 258.177 877.336 255.139 870.256C260.708 866.3 262.678 876.989 267.01 871.159C279.725 881.918 283.72 870.048 278.431 872.547C299.023 873.866 304.593 888.512 332.95 879.072C349.097 873.588 365.526 880.529 385.893 869.909C409.748 863.384 425.164 856.096 439.23 851.515C442.605 858.248 449.751 853.111 455.264 847.628C463.985 849.016 459.597 836.799 462.916 846.309C470.455 856.027 491.047 843.532 505.676 839.784C521.148 849.155 544.103 844.087 547.422 841.172C555.806 836.799 542.921 843.116 559.238 842.56C579.098 855.332 590.745 845.198 609.086 856.165C615.163 873.033 634.854 867.896 659.272 864.564C677.501 876.365 689.879 880.252 709.627 867.48C733.089 865.189 750.755 854.708 759.926 864.634C750.699 877.961 772.698 881.015 769.322 865.744C785.976 864.981 786.313 853.458 802.517 868.104C807.637 887.54 847.865 865.744 838.187 865.467C847.921 859.497 858.442 847.975 871.045 856.512C892.593 852.348 865.531 854.222 881.622 852.695C895.913 842.699 914.536 842.699 926.969 844.365C942.892 832.981 956.958 852.903 969.673 836.591C973.667 810.769 978.675 825.276 973.836 801.259C966.804 790.084 944.073 775.854 957.52 753.156C964.722 737.538 955.213 722.475 946.099 698.32C948.968 702.068 959.546 698.875 944.13 685.964C937.491 666.945 940.473 656.047 938.447 631.336C946.83 608.985 946.774 597.601 943.454 584.204C950.937 564.421 950.375 558.035 958.083 547.207C959.602 551.719 967.028 543.944 962.359 535.059C962.978 513.819 968.885 507.711 975.862 484.11C983.626 474.739 988.915 454.193 970.517 433.924C968.548 410.324 956.114 391.721 956.845 382.558C961.909 367.079 942.948 351.322 951.387 329.318C949.306 316.616 952.4 304.954 946.661 275.037C953.976 265.666 950.994 266.152 948.293 262.126C954.032 251.367 958.758 244.495 954.594 238.318C949.137 241.233 954.201 233.112 956.957 230.196C968.604 211.038 971.811 196.253 966.803 167.1C972.655 147.941 964.778 128.02 962.021 104.211C962.302 80.9576 950.825 61.9384 952.175 41.5308C944.692 12.5855 951.5 -6.71139 946.774 -21.0105C943.061 -32.3249 953.694 -28.9236 946.436 -33.9214C945.311 -41.7651 940.81 -43.8475 945.874 -46.8323C946.493 -55.7172 929.051 -54.9536 930.345 -50.0253C934.509 -44.6111 921.118 -57.7302 922.637 -50.3029C908.628 -58.9102 894.225 -63.075 879.54 -47.9429C863.899 -49.6782 858.273 -41.071 836.387 -43.6393C815.964 -41.8345 801.504 -38.0862 793.402 -41.6263C796.891 -39.2662 785.582 -47.8735 781.7 -42.0428C766.846 -41.9733 759.363 -49.2617 746.029 -54.1207C728.982 -51.4136 721.443 -67.7257 713.397 -63.0056C695.562 -53.2183 688.585 -47.6652 667.656 -50.3029C652.915 -51.4136 642.731 -45.0275 622.533 -36.6285C605.935 -31.5613 598.228 -32.9496 574.71 -35.3791C564.92 -34.7544 563.457 -40.5157 562.951 -38.2944C543.822 -40.5851 540.052 -45.3746 523.736 -47.5264C502.694 -43.2228 498.53 -55.6478 485.309 -41.1404C471.187 -40.8627 458.021 -19.9693 449.526 -17.1928C443.055 -20.8717 447.838 -9.97382 429.215 -17.1928C421.338 -28.9931 415.881 -18.6505 406.879 -29.2707C390.956 -48.3594 399.958 -18.4422 383.867 -38.5721C387.412 -22.26 373.346 -49.3312 374.303 -40.3074C367.045 -44.264 341.895 -33.3661 331.262 -37.1144C326.704 -42.1122 290.021 -51.7606 289.177 -53.7042C260.99 -31.2837 279.838 -35.3791 282.37 -57.869Z" fill="#222325"/>
</g>
<defs>
<filter id="filter0_b_24_10669" x="-151" y="-90.0562" width="1153" height="1008.81" filterUnits="userSpaceOnUse" color-interpolation-filters="sRGB">
<feFlood flood-opacity="0" result="BackgroundImageFix"/>
<feGaussianBlur in="BackgroundImageFix" stdDeviation="9.5"/>
<feComposite in2="SourceAlpha" operator="in" result="effect1_backgroundBlur_24_10669"/>
<feBlend mode="normal" in="SourceGraphic" in2="effect1_backgroundBlur_24_10669" result="shape"/>
</filter>
</defs>
</svg>
