<svg width="128" height="339" viewBox="0 0 128 339" fill="none" xmlns="http://www.w3.org/2000/svg">
<path d="M-9.73063 339C-11.832 286.262 -1.65343 250.562 21.3305 229.878C27.4705 224.355 34.4642 220.095 41.2608 215.944C44.6099 213.887 48.0903 211.757 51.4066 209.519C63.6866 201.217 71.3041 192.301 74.5875 182.338C75.1457 180.713 75.5397 178.981 75.7695 177.212C68.2505 180.569 62.1762 181.688 56.5944 180.749C50.5201 179.703 43.5592 175.19 41.6548 167.43C40.3086 161.871 42.2787 155.987 46.974 151.691C52.5229 146.601 60.1405 145.23 65.8865 148.262C74.686 152.882 78.4948 163.639 78.0679 173.783C98.3923 163.603 114.58 144.002 121.77 120.72C129.289 96.3178 126.695 68.4868 114.809 46.2508C110.048 37.3348 103.711 28.9963 97.6043 20.9466C86.375 6.14674 74.7845 -9.12242 72.6831 -28.3623C70.8116 -46.1583 78.0679 -64.4596 91.2016 -75L92.3508 -73.2312C79.7753 -63.124 72.8473 -45.6529 74.686 -28.6511C76.6889 -10.061 87.6227 4.34187 99.1475 19.5388C105.32 27.6607 111.69 36.0714 116.55 45.1318C128.698 67.8731 131.358 96.39 123.675 121.369C116.221 145.591 99.2131 165.913 77.9366 176.201C77.6739 178.584 77.1814 180.894 76.4591 183.06C72.9786 193.528 65.1313 202.769 52.4573 211.36C49.1082 213.634 45.5949 215.764 42.213 217.821C35.5148 221.9 28.5868 226.16 22.5782 231.538C0.0867844 251.753 -9.82913 286.839 -7.76058 338.856L-9.73063 339ZM59.3525 148.767C55.1825 148.767 51.1111 150.716 48.2873 153.315C44.2159 157.033 42.4757 162.087 43.6249 166.816C45.2994 173.638 51.5379 177.645 56.9556 178.584C62.1762 179.486 67.955 178.367 75.1457 175.154C75.4412 175.01 75.7695 174.866 76.065 174.721C76.7217 164.975 73.1756 154.398 65.0656 150.139C63.2269 149.2 61.2568 148.767 59.3525 148.767Z" fill="white" fill-opacity="0.18"/>
</svg>
