<svg width="1920" height="84" viewBox="0 0 1920 84" fill="none" xmlns="http://www.w3.org/2000/svg">
<path d="M1317.32 60.9231C1313.15 60.9231 1308.97 62.2417 1306.19 58.945C1305.49 58.2857 1304.8 57.6264 1304.8 56.967C1304.8 56.3077 1304.8 55.6483 1304.1 54.989C1303.4 53.6703 1302.01 54.3296 1299.92 54.3296C1296.45 54.3296 1295.05 52.3516 1292.27 51.0329C1290.18 49.7142 1288.09 49.0549 1286.01 49.0549C1283.22 49.0549 1281.83 50.3736 1280.44 52.3516C1279.05 53.6703 1278.35 54.989 1276.26 54.989C1275.57 54.989 1274.18 54.989 1273.48 54.989C1270 54.989 1266.52 54.989 1263.04 54.989C1260.26 54.989 1258.17 54.3296 1255.39 54.3296C1252.6 54.3296 1250.52 54.3296 1247.73 53.6703C1247.04 53.011 1246.34 53.011 1245.64 53.011C1244.25 53.011 1244.25 53.011 1242.86 51.6923C1242.16 51.0329 1241.47 49.7142 1240.08 49.7142C1239.38 49.7142 1237.29 49.7142 1236.6 49.7142C1231.73 49.7142 1226.85 50.3736 1221.29 50.3736C1219.2 50.3736 1218.5 50.3736 1217.11 51.6923C1215.72 53.011 1216.42 54.3296 1215.02 55.6483C1213.63 57.6263 1208.06 56.967 1205.98 56.3077C1198.32 55.6483 1190.67 55.6483 1183.71 56.3077C1183.01 56.3077 1182.32 56.967 1180.92 56.967C1178.84 56.967 1176.05 55.6483 1173.96 55.6483C1169.79 54.989 1164.22 53.011 1160.74 55.6483C1160.05 56.3077 1160.74 57.6263 1160.05 58.2857C1159.35 58.2857 1157.26 58.2857 1157.26 58.2857C1156.57 58.2857 1155.87 58.945 1155.17 58.945C1153.09 58.945 1151.7 59.6044 1149.61 59.6044C1146.13 59.6044 1142.65 59.6044 1139.17 59.6044C1136.39 59.6044 1133.6 60.2637 1130.12 60.9231C1128.73 60.9231 1127.34 60.9231 1126.64 61.5824C1125.25 62.9011 1125.95 64.2198 1123.86 64.8791C1123.16 64.8791 1121.08 64.8791 1120.38 64.8791C1118.99 64.8791 1116.9 64.8791 1115.51 64.2198C1114.81 64.2198 1114.81 63.5604 1114.81 63.5604C1114.12 63.5604 1114.12 63.5604 1113.42 63.5604C1110.64 62.9011 1108.55 60.2637 1106.46 59.6044C1103.68 58.2857 1100.89 58.2857 1098.11 57.6263C1094.63 56.967 1091.15 54.989 1086.98 54.989C1082.1 54.989 1077.23 54.3296 1072.36 53.6703C1070.97 53.6703 1070.27 53.6703 1068.88 53.6703C1066.1 53.6703 1064.71 53.6703 1062.62 52.3516C1061.23 51.6923 1059.83 51.6923 1058.44 51.0329C1057.75 51.0329 1057.75 50.3736 1057.05 50.3736H1056.36C1056.36 50.3736 1055.66 50.3736 1055.66 51.0329C1054.27 51.6923 1052.88 51.6923 1051.48 51.6923C1050.09 51.6923 1048.7 52.3516 1048 52.3516C1047.31 52.3516 1047.31 53.011 1046.61 53.011C1045.92 53.011 1044.52 53.011 1043.83 53.011C1042.44 53.011 1041.05 53.6703 1040.35 54.3296C1037.57 53.011 1035.48 53.011 1033.39 53.011C1032 53.011 1030.61 53.011 1029.91 53.011C1028.52 52.3516 1027.13 51.6923 1025.73 51.6923C1023.65 52.3516 1022.95 54.3296 1021.56 56.3077C1020.86 56.967 1021.56 56.967 1020.17 57.6263C1018.78 57.6263 1017.38 57.6263 1016.69 57.6263C1013.21 57.6263 1010.42 56.967 1007.64 56.3077C1004.16 55.6483 999.986 54.989 996.507 54.989C993.027 54.3296 989.548 53.6703 985.372 53.6703C981.893 53.6703 979.109 56.3077 975.629 56.3077C971.454 56.967 965.887 56.3077 962.407 54.3296C961.711 53.6703 960.319 53.011 959.623 53.011C958.231 53.011 957.536 53.011 956.84 53.011C954.056 53.6703 950.576 53.011 947.793 53.011C945.705 53.011 943.617 53.011 941.53 53.011C940.138 53.011 938.746 53.011 937.354 53.011C936.658 53.011 937.354 53.011 935.962 52.3516C934.57 51.6923 933.179 51.0329 931.787 51.0329C926.219 50.3736 921.348 49.0549 915.781 48.3956C912.997 47.7362 910.909 47.7362 908.822 47.7362C907.43 47.7362 904.646 46.4175 903.254 47.0769C901.167 48.3956 901.863 51.0329 901.167 52.3516C900.471 55.6483 898.383 55.6483 895.599 54.989C892.12 54.3296 889.336 52.3516 885.857 53.011C883.769 53.6703 881.681 54.989 879.593 54.989C876.81 54.989 874.722 54.3296 871.938 54.3296C869.851 54.3296 867.763 54.3296 866.371 53.6703C863.587 52.3516 861.5 51.0329 858.02 51.0329C855.932 51.0329 853.845 51.0329 851.757 51.0329C846.885 51.0329 844.102 51.0329 839.926 53.011C838.534 53.6703 837.839 54.3296 836.447 54.3296C833.663 54.3296 830.879 53.011 828.792 52.3516C827.4 51.6923 825.312 52.3516 823.92 51.6923C822.528 51.0329 821.833 50.3736 820.441 50.3736C819.049 50.3736 817.657 50.3736 815.569 49.7142C814.177 49.0549 813.482 48.3956 812.09 47.7362C811.394 47.7362 809.306 47.7362 809.306 47.0769C807.218 47.0769 805.827 46.4175 803.739 46.4175C800.259 47.0769 797.476 49.7142 794.692 51.0329C791.212 53.011 789.125 54.3296 784.949 54.3296C782.166 54.3296 780.078 54.3296 777.294 54.3296C774.51 54.3296 772.423 54.3296 769.639 53.6703C766.855 53.011 764.768 53.6703 761.984 53.011C760.592 52.3516 759.2 51.0329 757.809 50.3736C756.417 50.3736 755.025 50.3736 754.329 50.3736C752.937 50.3736 750.849 50.3736 749.458 50.3736C748.066 50.3736 745.978 50.3736 744.586 50.3736C742.498 50.3736 742.498 51.0329 741.107 51.6923C737.627 53.011 732.756 53.011 728.58 53.011C726.492 53.011 725.101 52.3516 723.013 52.3516C720.925 52.3516 719.533 52.3516 717.446 52.3516C713.966 52.3516 710.486 52.3516 707.007 52.3516C704.919 52.3516 702.831 52.3516 700.744 53.6703C699.352 54.989 698.656 56.3077 696.568 56.3077C695.176 56.3077 694.48 56.3077 693.089 56.3077C687.521 56.3077 681.258 55.6483 676.387 56.3077C674.995 56.3077 673.603 57.6263 672.211 58.2857C670.819 58.945 668.732 58.945 667.34 58.945C665.948 58.945 663.86 59.6044 662.468 58.945C661.772 58.2857 660.381 56.3077 659.685 55.6483C656.205 53.6703 653.422 56.3077 649.246 55.6483C647.158 54.989 647.158 53.6703 645.767 53.011C641.591 53.6703 640.895 53.011 639.503 53.011C638.111 52.3516 637.416 51.6923 635.328 52.3516C632.544 53.011 630.456 55.6483 628.369 57.6263C627.673 57.6263 626.977 56.967 626.281 56.3077C625.585 55.6483 624.193 55.6483 622.801 56.3077C621.41 55.6483 621.41 54.3296 620.018 53.6703C619.322 53.6703 617.93 53.6703 617.234 53.011C615.842 52.3516 613.755 52.3516 612.363 51.6923C610.275 51.6923 608.187 51.6923 606.099 51.6923C605.404 51.6923 603.316 51.6923 602.62 51.6923C601.924 51.6923 601.924 50.3736 601.228 49.7142C600.532 48.3956 597.748 47.7362 596.357 47.0769C593.573 45.0989 589.398 45.7582 585.918 45.0989C585.222 45.0989 585.222 44.4395 584.526 44.4395C583.134 44.4395 581.047 45.0989 579.655 44.4395H578.959C577.567 43.1208 576.871 41.8021 576.175 40.4835C574.783 38.5054 573.392 39.1648 570.608 39.8241C566.432 41.1428 562.257 43.1208 559.473 45.7582C559.473 46.4175 558.081 47.7362 556.69 48.3956C555.994 48.3956 555.994 48.3956 555.298 47.7362C554.602 47.0769 553.906 45.7582 553.21 45.0989C551.122 43.7802 548.339 44.4395 546.251 45.0989C543.467 45.7582 541.38 46.4175 539.292 47.0769C536.508 47.7362 533.724 47.0769 531.637 47.0769C529.549 47.0769 528.853 46.4175 526.765 45.7582C521.894 44.4395 516.327 45.0989 511.455 45.7582C507.976 46.4175 505.888 46.4175 503.104 46.4175C501.713 46.4175 498.929 45.7582 497.537 46.4175C496.841 47.0769 496.841 47.7362 496.145 48.3956C495.449 49.7142 494.753 49.7142 493.362 50.3736C491.274 51.6923 489.186 52.3516 487.098 53.011C485.011 53.6703 482.227 53.011 479.443 53.011C475.964 52.3516 471.788 53.011 468.309 53.011C466.221 53.011 464.829 53.011 462.741 53.6703C461.35 54.3296 459.958 54.3296 458.566 54.989C455.086 55.6483 452.303 54.989 448.823 54.989C446.735 54.989 443.952 54.989 441.864 54.989C439.776 54.3296 438.384 53.6703 436.297 53.6703C431.425 53.011 425.858 49.7142 420.291 51.6923C418.899 52.3516 418.203 53.011 417.507 53.011C416.811 53.011 415.419 53.011 414.723 53.011C411.94 53.011 409.852 53.6703 407.764 54.989C404.981 56.3077 402.893 56.967 400.805 58.945C400.109 59.6044 398.717 59.6044 395.934 59.6044C393.846 59.6044 392.454 59.6044 390.366 60.2637C388.975 60.9231 388.279 60.9231 387.583 60.9231C384.799 60.9231 381.32 60.2637 378.536 60.2637C374.36 60.2637 372.273 58.2857 368.793 56.3077C367.401 55.6483 366.009 55.6483 363.922 54.989C363.226 54.989 362.53 53.6703 361.834 53.6703C359.746 53.011 356.963 53.6703 355.571 53.6703C349.307 53.6703 343.044 54.3296 336.781 53.6703C333.997 53.6703 331.91 51.6923 329.126 51.0329C322.863 50.3736 317.296 48.3956 311.032 47.7362C306.161 47.0769 301.289 47.0769 296.418 49.7142C295.026 50.3736 294.33 51.6923 292.939 52.3516C290.155 53.011 285.979 53.011 283.196 53.011C276.237 54.3296 269.278 55.6483 262.318 55.6483C260.231 55.6483 257.447 55.6483 255.359 53.6703C253.272 53.011 253.272 51.6923 250.488 51.0329C245.616 50.3736 236.57 51.6923 233.09 54.989C231.002 56.967 230.306 58.945 228.915 60.9231C228.219 61.5824 228.915 61.5824 227.523 61.5824C226.827 62.2417 223.347 61.5824 221.955 61.5824C220.564 61.5824 217.78 61.5824 216.388 62.2417C214.3 63.5604 211.517 66.1978 208.733 65.5384C205.949 64.8791 203.862 62.9011 201.078 62.9011C197.598 62.9011 195.511 62.2417 192.031 60.9231C189.247 60.2637 185.768 59.6044 182.984 59.6044C178.809 59.6044 175.329 59.6044 171.154 59.6044C162.107 59.6044 153.756 62.2417 144.709 62.2417C142.621 62.2417 140.534 62.9011 138.446 62.9011C134.27 62.9011 129.399 62.2417 125.223 62.9011C121.744 63.5604 118.264 65.5384 115.481 66.8571C114.089 67.5165 112.001 68.8352 110.609 68.8352C109.913 68.8352 109.217 68.8352 108.522 68.8352C107.13 69.4945 106.434 70.1538 105.042 70.8132C103.65 71.4725 101.562 72.1319 100.171 72.1319C94.6033 72.1319 89.036 73.4505 83.4687 73.4505C77.9014 73.4505 79.9891 79.3846 74.4218 79.3846C72.3341 79.3846 70.2464 79.3846 68.1586 79.3846C66.7668 79.3846 66.0709 80.044 64.6791 80.044C63.9831 80.044 63.2872 80.044 62.5913 80.044C61.1995 80.044 61.1995 80.7033 59.8077 80.7033C57.7199 80.7033 56.3281 80.7033 54.2404 80.7033C52.8485 80.7033 52.1526 81.3626 51.4567 82.022C49.369 82.6813 47.2812 75.4286 45.1935 75.4286C43.1057 75.4286 41.018 75.4286 38.9303 75.4286C37.5384 75.4286 35.4507 69.4945 34.0589 68.8352C31.9711 67.5165 29.1875 61.5824 27.0997 61.5824C25.012 61.5824 23.6202 61.5824 21.5324 61.5824C20.1406 61.5824 18.7488 60.923 17.357 62.2417C13.8774 65.5384 15.2692 67.5165 10.3978 66.1978C9.70192 66.1978 8.31009 64.8791 6.91826 64.8791C4.83052 64.2198 3.4387 63.5604 1.35096 63.5604C0.655045 63.5604 -7 56.3077 -7 56.3077V10.1538C-6.30409 10.1538 -4.21635 14.7692 -3.52043 14.7692C-1.43269 15.4285 0.655044 17.4065 2.74278 18.0659C4.13461 19.3845 5.52644 20.0439 7.61417 19.3845C11.7897 18.7252 12.4856 18.0659 17.357 19.3845C18.0529 19.3845 19.4447 20.0439 20.1406 20.7032C22.2284 20.7032 24.3161 22.0219 27.0997 22.6812C30.5793 23.3406 29.8834 22.6812 31.9711 22.0219C34.7548 20.7032 38.2344 22.6812 41.018 22.6812C42.4098 22.6812 45.1935 23.3406 46.5853 22.6812C47.9771 22.6812 48.6731 21.3626 49.369 21.3626C50.7608 20.7032 52.8485 21.3626 54.9363 21.3626C57.7199 20.7032 61.1995 19.3845 63.9831 20.0439C66.7668 20.0439 70.2464 20.7032 73.03 22.0219C73.7259 22.6812 74.4218 23.3406 75.8137 23.3406C76.5096 23.9999 77.9014 23.9999 78.5973 23.9999C79.9891 24.6593 80.6851 24.6593 82.0769 24.6593C83.4687 24.6593 86.2524 25.3186 86.9483 23.9999C87.6442 23.3406 87.6442 21.3626 89.036 20.7032C91.1237 19.3845 93.9074 20.0439 95.9951 20.0439C101.562 19.3845 107.13 19.3845 112.697 17.4065C114.089 16.7472 118.264 13.4505 120.352 14.1098C121.048 14.1098 121.744 14.7692 121.744 15.4285C123.832 16.0878 125.223 16.0878 127.311 16.0878C130.791 16.0878 134.27 16.7472 138.446 17.4065C141.229 17.4065 144.709 18.0659 147.493 17.4065C149.58 16.7472 150.276 15.4285 151.668 14.1098C153.06 12.7911 153.06 12.1318 155.148 11.4724C156.54 11.4724 157.931 11.4724 160.019 11.4724C161.411 11.4724 163.499 10.8131 164.891 10.8131C166.282 10.8131 167.674 10.1538 169.066 10.8131C169.762 11.4724 170.458 12.1318 170.458 12.7911C171.154 14.1098 171.154 14.7692 172.546 14.7692C173.937 14.7692 176.025 14.1098 177.417 14.1098C178.809 14.1098 180.201 14.1098 180.897 14.1098C182.288 14.1098 182.288 14.7692 183.68 14.1098C184.376 14.1098 185.072 13.4505 186.464 13.4505C188.552 12.7911 189.943 12.1318 191.335 11.4724C193.423 10.8131 194.815 10.8131 197.598 10.8131C201.078 10.8131 204.558 10.8131 207.341 10.8131C210.125 10.8131 212.909 10.1538 214.996 10.1538C215.692 10.1538 216.388 10.8131 217.084 10.8131C217.78 10.8131 218.476 10.1538 219.172 9.49442C221.26 8.83508 221.955 8.17574 222.651 6.85705C222.651 6.19771 222.651 5.53837 223.347 5.53837C224.739 5.53837 224.739 6.85705 226.131 7.5164C228.219 8.83508 227.523 9.49442 229.61 9.49442C231.002 9.49442 232.394 10.1538 233.786 10.1538C236.57 10.8131 239.353 11.4724 242.137 12.1318C244.225 12.7911 245.616 13.4505 247.008 14.7692C249.096 15.4285 251.184 14.1098 252.576 13.4505C254.663 12.7911 256.751 12.1318 259.535 12.1318C265.102 11.4724 272.061 10.8131 276.933 13.4505C279.716 14.7692 280.412 16.7472 283.196 16.0878C287.371 15.4285 290.155 12.7911 294.33 12.7911C296.418 12.7911 298.506 12.7911 300.594 12.7911C301.985 12.7911 304.769 12.1318 306.161 12.7911C308.249 13.4505 308.249 16.0878 311.032 16.7472C311.728 16.7472 312.424 16.7472 313.12 16.7472C313.816 16.0878 314.512 15.4285 315.904 14.7692C317.991 12.7911 322.167 11.4724 324.951 11.4724C326.342 11.4724 327.734 10.8131 329.126 10.8131C331.214 10.8131 332.606 10.8131 334.693 10.8131C335.389 10.8131 336.085 10.8131 336.781 10.1538L337.477 9.49442C338.869 8.83508 340.957 8.83508 342.348 9.49442C342.348 11.4724 344.436 12.7911 345.828 13.4505C346.524 14.1098 346.524 14.1098 347.916 14.1098C350.003 14.1098 352.091 14.1098 354.179 13.4505C356.267 12.7911 357.658 11.4724 359.05 10.8131C362.53 8.83508 362.53 5.53837 365.314 2.90101C366.009 2.24166 367.401 3.56035 368.097 4.87903C369.489 7.5164 372.969 8.17574 375.752 9.49442C379.232 13.4505 382.711 12.1318 386.191 13.4505C389.67 14.1098 393.15 15.4285 397.326 15.4285C398.717 15.4285 400.109 15.4285 402.197 15.4285C403.589 15.4285 404.285 14.7692 404.981 14.7692C405.676 14.7692 407.068 14.7692 407.764 14.7692C407.764 14.1098 407.764 13.4505 407.764 13.4505C407.764 12.7911 408.46 12.1318 408.46 11.4724C409.156 10.8131 409.156 10.1538 409.156 9.49442C409.156 8.83508 409.852 9.49442 409.852 8.17574C410.548 7.5164 411.244 7.5164 412.636 7.5164C414.027 7.5164 414.723 6.19771 416.115 6.19771C419.595 6.19771 422.378 10.1538 425.162 12.1318C427.25 13.4505 428.642 14.7692 430.033 16.0878C432.121 18.0659 432.817 17.4065 433.513 14.7692C434.209 12.7911 434.905 10.8131 436.297 8.83508C436.993 8.17574 436.297 6.19771 437.689 6.19771C439.08 6.19771 439.776 10.8131 441.168 11.4724C442.56 12.1318 444.648 11.4724 446.039 11.4724C448.823 11.4724 450.215 10.8131 452.999 10.1538C455.086 10.1538 457.174 9.49442 459.262 8.83508C459.958 8.83508 461.35 8.17574 461.35 8.17574C462.045 7.5164 462.741 6.85705 462.741 6.19771C463.437 5.53837 464.829 4.21969 464.829 2.90101C466.221 2.24166 466.221 0.922981 466.917 0.26364C469.005 -1.05504 473.18 2.90101 474.572 4.87903C475.964 6.19771 476.66 6.19771 478.051 6.85705C482.923 8.17574 488.49 8.83508 494.057 8.83508C496.145 8.83508 496.841 9.49442 498.233 8.17574V7.5164C498.233 7.5164 498.929 7.5164 499.625 7.5164C501.713 7.5164 503.8 6.85705 505.888 6.19771C507.28 5.53837 508.672 3.56035 510.759 3.56035C512.151 2.90101 513.543 4.21969 514.935 4.87903C517.023 4.87903 519.806 4.87903 521.894 4.87903C523.982 4.87903 526.069 5.53837 528.157 5.53837C531.637 6.19771 535.116 6.85705 538.596 6.85705C542.075 6.85705 544.859 7.5164 547.643 8.17574C549.035 8.17574 551.122 8.83508 553.21 8.17574C554.602 8.17574 553.906 8.83508 553.906 9.49442C553.906 10.1538 554.602 12.1318 555.994 10.8131C555.994 10.8131 555.994 10.8131 555.994 10.1538C557.386 12.1318 558.777 12.7911 561.561 12.7911C564.345 12.7911 565.737 12.1318 567.128 10.1538C568.52 8.83508 569.912 6.85705 572 6.19771C573.392 5.53837 575.479 6.19771 576.871 6.19771C578.959 6.19771 581.047 6.85705 583.134 8.17574C583.83 8.83508 585.222 8.83508 585.918 8.83508C588.006 8.83508 588.006 7.5164 587.31 5.53837C587.31 4.21969 588.006 3.56035 590.094 3.56035C593.573 4.21969 596.357 7.5164 599.14 9.49442C601.228 10.8131 603.316 11.4724 605.404 11.4724C606.795 11.4724 608.883 11.4724 610.971 11.4724C613.755 12.1318 613.755 15.4285 615.146 17.4065C617.234 20.7032 621.41 15.4285 625.585 15.4285C626.977 15.4285 629.065 21.3626 630.456 20.7032C633.936 20.7032 636.72 19.3845 636.72 15.4285C636.72 12.7911 635.328 9.49442 637.416 7.5164C638.807 6.19771 642.287 9.49442 644.375 10.1538C646.462 11.4724 647.158 13.4505 649.246 14.7692C651.334 16.7472 652.03 16.7472 654.117 17.4065C656.205 18.0659 658.293 20.0439 659.685 21.3626C661.077 22.6812 663.164 18.0659 665.252 18.7252C666.644 19.3845 668.036 20.0439 669.428 20.0439C672.211 21.3626 673.603 25.978 674.995 23.9999C674.995 22.0219 676.387 20.0439 677.083 18.7252C677.779 17.4065 677.779 15.4285 678.474 14.1098C679.17 12.7911 678.474 13.4505 679.866 13.4505H680.562C681.954 13.4505 683.346 13.4505 685.434 14.1098C686.825 14.1098 687.521 14.1098 688.217 14.7692C688.913 15.4285 688.913 16.0878 689.609 16.0878C690.305 16.7472 691.001 16.7472 691.697 16.7472C696.568 18.0659 703.527 14.1098 707.007 17.4065C708.399 18.7252 705.615 22.0219 707.007 23.3406C711.182 25.978 716.054 20.7032 720.925 20.7032C723.709 20.7032 725.797 20.7032 728.58 20.0439C729.972 19.3845 731.364 19.3845 732.06 19.3845C733.452 18.7252 735.539 18.0659 736.931 17.4065C737.627 17.4065 739.019 16.7472 739.019 16.7472C739.019 16.7472 739.019 16.0878 739.019 15.4285C739.715 14.1098 741.802 16.7472 742.498 17.4065C743.194 18.0659 743.194 18.0659 743.89 18.7252C745.978 20.7032 748.762 20.7032 750.849 20.7032C752.241 20.7032 755.025 20.7032 755.721 22.6812C756.417 23.3406 757.809 22.6812 759.2 22.6812C761.288 22.6812 764.072 22.6812 766.159 22.0219C769.639 22.0219 773.119 22.0219 776.598 22.0219C778.686 22.0219 783.557 22.0219 784.949 20.0439C785.645 18.7252 785.645 18.7252 787.037 18.0659C788.429 17.4065 789.125 17.4065 791.212 17.4065C792.604 17.4065 794.692 18.0659 796.78 17.4065C798.172 17.4065 798.867 16.7472 800.259 16.0878C802.347 15.4285 803.739 14.1098 805.827 13.4505C807.218 13.4505 807.218 13.4505 807.914 14.1098C810.002 14.7692 811.394 14.7692 813.482 15.4285C815.569 16.0878 816.961 18.0659 819.049 19.3845C819.745 20.0439 821.833 20.0439 823.224 20.0439C826.008 20.7032 828.096 20.7032 830.879 22.0219C833.663 23.3406 837.143 23.9999 839.926 23.9999C840.622 23.9999 841.318 23.9999 842.014 23.9999C844.102 23.3406 845.494 21.3626 846.885 20.7032C847.581 20.0439 848.277 20.0439 848.277 18.7252C848.277 18.0659 848.277 17.4065 848.277 16.0878C848.973 16.0878 849.669 16.0878 850.365 16.0878C853.149 16.0878 855.236 16.0878 858.02 16.0878C858.716 16.0878 861.5 15.4285 862.195 16.0878C862.891 16.0878 862.195 16.7472 862.891 17.4065C862.891 18.0659 863.587 18.7252 864.283 19.3845C866.371 20.7032 868.459 20.0439 869.851 19.3845C871.242 18.7252 872.634 18.0659 874.722 18.0659C876.114 18.0659 876.81 17.4065 878.201 18.0659C879.593 18.0659 880.985 18.7252 883.073 18.7252C884.465 18.7252 885.161 19.3845 886.552 19.3845C887.248 19.3845 887.248 18.7252 887.248 18.7252C887.944 18.7252 888.64 18.7252 889.336 18.7252C890.728 18.0659 890.032 16.7472 890.032 16.0878C890.032 14.7692 890.032 15.4285 890.728 14.7692C890.728 14.1098 891.424 13.4505 891.424 12.7911C892.12 12.1318 892.816 10.8131 893.512 10.1538C896.991 8.83508 900.471 10.8131 903.95 11.4724C905.342 12.1318 906.038 12.1318 907.43 13.4505C908.126 14.1098 909.518 14.7692 910.214 15.4285C911.605 16.7472 911.605 17.4065 913.693 18.0659C915.085 18.0659 915.781 18.0659 917.173 18.7252C917.869 18.7252 919.26 19.3845 919.956 18.7252C921.348 18.7252 922.044 17.4065 923.436 17.4065C925.524 16.7472 927.611 17.4065 929.699 16.7472C930.395 16.7472 930.395 16.0878 931.091 16.0878C933.179 15.4285 934.57 16.0878 935.962 16.7472C938.746 17.4065 942.226 16.7472 945.009 16.7472C946.401 16.7472 948.489 16.7472 949.881 16.7472C951.272 16.7472 952.664 16.7472 954.056 15.4285C954.752 14.7692 955.448 14.1098 956.84 14.1098C958.232 14.1098 958.232 14.7692 958.927 15.4285C959.623 16.0878 960.319 16.0878 961.711 16.7472C963.103 17.4065 964.495 17.4065 966.582 17.4065C967.974 17.4065 970.062 17.4065 971.454 16.7472C972.15 16.0878 972.15 16.0878 973.542 15.4285C974.933 14.7692 974.237 15.4285 975.629 14.7692C977.021 14.1098 975.629 14.1098 977.021 14.1098C977.717 14.1098 979.109 14.1098 979.805 14.1098C981.197 14.1098 983.98 13.4505 985.372 14.1098C986.764 14.7692 988.156 15.4285 988.852 15.4285C990.939 16.0878 993.027 15.4285 995.115 15.4285C997.899 14.7692 999.986 14.7692 1002.77 14.1098C1004.86 13.4505 1006.95 12.7911 1009.73 12.7911C1011.82 12.1318 1015.99 10.8131 1016.69 12.7911C1018.08 14.7692 1020.17 14.7692 1021.56 15.4285C1024.34 16.0878 1025.74 14.1098 1028.52 13.4505C1030.61 12.7911 1032.69 13.4505 1034.78 13.4505C1038.96 13.4505 1043.13 12.7911 1046.61 13.4505C1048 13.4505 1048.7 14.1098 1049.4 14.7692C1051.48 16.7472 1053.57 18.0659 1057.05 18.0659C1057.75 18.0659 1058.44 18.0659 1059.83 18.0659C1061.23 18.0659 1062.62 17.4065 1064.71 16.7472C1066.1 16.0878 1067.49 16.0878 1068.19 15.4285C1068.19 15.4285 1068.19 14.7692 1068.88 14.7692C1070.27 14.1098 1070.97 14.7692 1071.67 14.1098V13.4505C1071.67 13.4505 1073.06 12.7911 1073.75 12.7911C1077.23 12.1318 1080.71 13.4505 1083.5 11.4724C1084.19 10.8131 1084.89 10.8131 1086.28 10.1538C1087.67 10.1538 1089.06 10.1538 1090.45 10.8131C1091.85 11.4724 1093.93 10.8131 1095.33 11.4724C1095.33 14.7692 1100.2 13.4505 1102.29 13.4505C1105.07 13.4505 1107.16 10.8131 1109.24 11.4724C1109.94 11.4724 1111.33 12.1318 1112.72 12.7911C1113.42 13.4505 1114.12 13.4505 1114.81 14.1098C1116.9 15.4285 1118.29 15.4285 1121.08 15.4285C1123.16 15.4285 1125.25 15.4285 1127.34 15.4285C1129.43 15.4285 1131.51 15.4285 1132.91 15.4285C1134.99 15.4285 1136.39 14.7692 1138.47 14.1098C1139.86 14.1098 1140.56 14.1098 1141.95 13.4505C1143.34 12.7911 1144.74 12.7911 1146.13 12.7911C1147.52 12.7911 1149.61 11.4724 1151.7 10.8131C1153.78 10.1538 1155.87 10.8131 1158.65 10.1538C1160.74 10.1538 1161.44 10.1538 1162.83 10.8131C1167.01 12.1318 1171.18 11.4724 1175.36 12.7911C1176.75 13.4505 1177.44 14.7692 1178.84 15.4285C1180.92 16.7472 1183.71 16.7472 1186.49 16.7472C1189.27 17.4065 1192.06 17.4065 1195.54 17.4065C1199.71 17.4065 1202.5 14.7692 1206.67 13.4505C1208.76 12.7911 1211.54 13.4505 1213.63 13.4505C1215.72 13.4505 1217.11 12.1318 1219.2 11.4724C1219.89 10.8131 1221.29 10.1538 1221.98 9.49442C1224.77 8.17574 1228.25 8.83508 1231.03 8.17574C1234.51 7.5164 1239.38 5.53837 1242.86 7.5164C1244.95 8.83508 1246.34 12.1318 1249.12 12.7911C1252.6 14.1098 1256.08 14.7692 1258.87 16.7472C1261.65 18.0659 1262.35 18.0659 1265.13 17.4065C1267.91 16.7472 1272.09 18.0659 1274.87 17.4065C1275.57 17.4065 1276.26 16.7472 1276.96 16.0878C1277.66 15.4285 1278.35 15.4285 1279.05 14.7692C1280.44 13.4505 1279.05 12.7911 1281.14 12.7911C1282.53 12.7911 1283.22 12.7911 1284.61 12.7911C1286.7 12.7911 1289.49 12.1318 1291.57 12.1318C1291.57 12.1318 1292.97 12.1318 1293.66 12.1318C1294.36 12.7911 1294.36 13.4505 1295.05 14.1098C1295.75 14.7692 1297.14 14.7692 1298.53 14.7692C1300.62 14.7692 1302.71 14.7692 1305.49 14.7692C1307.58 14.7692 1310.36 15.4285 1311.76 15.4285C1313.15 15.4285 1313.84 14.1098 1315.23 14.7692C1315.93 15.4285 1315.93 15.4285 1316.63 16.0878C1317.32 16.0878 1318.71 16.0878 1320.11 15.4285C1322.89 14.7692 1325.67 15.4285 1328.46 15.4285C1332.63 16.0878 1336.11 15.4285 1340.29 14.7692C1343.07 14.1098 1345.86 14.1098 1347.94 13.4505C1348.64 12.7911 1350.03 12.1318 1350.73 12.7911C1352.12 13.4505 1352.81 14.1098 1353.51 15.4285C1354.21 16.0878 1353.51 17.4065 1354.21 18.0659C1354.9 18.7252 1355.6 18.7252 1356.29 19.3845C1356.99 19.3845 1357.69 19.3845 1358.38 19.3845C1359.08 19.3845 1359.08 20.0439 1359.77 20.0439C1361.17 20.0439 1361.86 18.7252 1362.56 18.0659C1364.64 17.4065 1366.73 16.7472 1368.82 16.7472C1370.91 16.0878 1373 14.7692 1375.08 14.1098C1375.78 13.4505 1379.95 12.7911 1381.35 12.7911C1380.65 14.1098 1381.35 17.4065 1382.04 18.0659C1382.74 18.7252 1382.74 18.0659 1383.43 18.7252C1384.13 18.7252 1384.13 19.3845 1384.83 19.3845C1386.91 20.0439 1389.7 19.3845 1392.48 20.0439C1395.27 20.7032 1398.05 21.3626 1401.53 21.3626C1403.62 21.3626 1405.01 20.7032 1407.1 20.0439C1409.18 19.3845 1410.58 18.0659 1411.27 16.0878C1411.27 15.4285 1411.97 14.1098 1412.66 14.1098C1413.36 14.1098 1414.05 14.1098 1414.75 14.7692C1416.84 15.4285 1418.23 14.7692 1419.62 15.4285C1420.32 16.0878 1421.71 16.7472 1422.41 17.4065C1423.8 18.0659 1424.49 19.3845 1425.89 20.0439C1427.97 21.3626 1430.06 21.3626 1432.15 21.3626C1434.93 21.3626 1436.32 18.7252 1439.11 18.7252C1440.5 18.7252 1441.2 19.3845 1442.59 18.0659C1443.28 17.4065 1442.59 16.0878 1443.28 16.0878C1443.98 15.4285 1445.37 15.4285 1446.76 15.4285C1449.55 14.7692 1452.33 14.1098 1455.81 14.1098C1458.59 14.1098 1462.77 14.7692 1465.55 12.7911C1466.25 12.1318 1466.25 11.4724 1466.94 10.8131C1467.64 10.8131 1469.73 10.8131 1471.12 10.8131C1473.21 10.8131 1474.6 10.8131 1476.69 11.4724C1478.77 12.1318 1480.17 14.1098 1482.25 14.1098C1483.65 14.1098 1485.04 14.1098 1485.73 14.1098C1487.13 14.1098 1488.52 14.7692 1489.21 15.4285C1489.91 16.0878 1491.3 16.7472 1492 17.4065L1492.69 18.0659C1494.08 18.7252 1496.17 16.7472 1497.56 18.0659C1498.96 20.0439 1501.74 19.3845 1502.44 20.7032C1502.44 20.7032 1502.44 21.3626 1503.13 21.3626C1503.83 21.3626 1504.52 21.3626 1504.52 21.3626C1507.31 21.3626 1509.39 21.3626 1512.18 21.3626C1516.35 20.7032 1519.83 18.0659 1524.7 18.0659C1526.79 18.0659 1528.18 18.0659 1530.27 18.0659C1530.97 18.0659 1531.66 18.7252 1532.36 18.7252C1533.75 18.7252 1534.45 19.3845 1535.84 19.3845C1537.23 19.3845 1539.32 19.3845 1540.71 20.0439C1542.1 20.7032 1542.1 22.0219 1543.49 22.6812C1544.19 22.6812 1545.58 23.3406 1545.58 23.3406C1546.97 23.3406 1548.37 23.3406 1549.76 23.3406C1551.85 23.3406 1553.93 23.3406 1556.02 23.3406C1556.72 23.3406 1556.72 23.3406 1557.41 23.3406C1558.8 22.6812 1558.11 20.0439 1559.5 20.7032C1560.2 20.7032 1558.8 22.6812 1558.8 23.3406C1559.5 24.6593 1561.59 23.9999 1562.98 23.9999C1563.68 23.9999 1564.37 23.3406 1565.07 23.3406C1566.46 23.3406 1566.46 24.6593 1567.16 25.3186C1567.85 25.978 1568.55 25.978 1569.94 25.978C1570.64 25.978 1571.33 25.978 1572.03 25.978C1572.72 26.6373 1573.42 28.6153 1574.81 27.956C1576.2 27.2966 1576.9 25.978 1577.59 25.3186C1578.29 24.6593 1578.99 24.6593 1579.68 24.6593C1580.38 24.6593 1581.77 25.3186 1582.47 24.6593C1583.16 23.9999 1583.16 23.3406 1583.86 23.3406C1585.25 23.3406 1585.95 24.6593 1586.64 25.3186C1588.03 25.978 1587.34 22.6812 1587.34 22.0219C1587.34 21.3626 1587.34 20.7032 1588.03 20.7032C1589.42 19.3845 1591.51 18.7252 1593.6 18.7252C1597.08 18.7252 1601.26 18.7252 1605.43 18.7252C1606.82 18.7252 1606.82 18.7252 1608.21 19.3845C1609.61 20.0439 1610.3 20.7032 1611.69 21.3626C1613.78 22.6812 1615.87 22.6812 1618.65 22.6812C1620.04 22.6812 1621.44 22.6812 1622.83 22.6812C1625.61 22.6812 1627 21.3626 1629.79 20.7032C1631.18 20.0439 1631.88 20.0439 1633.27 20.0439C1634.66 20.0439 1634.66 19.3845 1636.05 18.7252C1638.14 18.0659 1640.92 18.7252 1643.71 18.0659C1644.4 18.0659 1646.49 17.4065 1647.19 17.4065C1649.27 18.0659 1650.67 22.0219 1651.36 23.3406C1652.06 24.6593 1652.75 25.3186 1654.84 25.978C1655.54 25.978 1655.54 25.978 1656.23 25.978C1656.23 25.978 1656.93 25.978 1656.93 26.6373C1659.02 27.2966 1661.1 26.6373 1663.19 27.2966C1665.98 27.956 1669.45 27.956 1672.24 27.2966C1675.02 26.6373 1677.81 25.3186 1679.89 24.6593C1681.29 23.9999 1683.37 23.3406 1684.76 22.6812C1685.46 22.0219 1686.16 22.0219 1686.85 21.3626C1688.94 20.7032 1691.03 21.3626 1693.12 22.0219C1693.81 22.0219 1696.6 22.0219 1697.99 22.6812C1699.38 24.6593 1702.16 25.978 1704.25 26.6373C1707.03 27.2966 1710.51 28.6153 1713.3 28.6153C1715.39 27.956 1718.17 26.6373 1719.56 26.6373C1720.95 26.6373 1723.04 28.6153 1723.74 29.2747C1724.43 29.2747 1724.43 29.934 1725.13 29.934C1725.82 30.5933 1726.52 30.5933 1727.22 31.2527C1728.61 31.912 1729.3 32.5714 1730.7 31.912C1732.78 31.2527 1733.48 29.934 1734.87 28.6153C1736.26 27.2966 1737.65 27.2966 1739.05 25.978C1741.13 24.6593 1741.83 24.6593 1743.92 24.6593C1748.79 23.9999 1752.96 22.6812 1757.84 22.0219C1759.23 22.0219 1761.32 22.6812 1763.4 22.0219C1764.1 22.0219 1764.1 20.7032 1765.49 20.7032C1767.58 20.7032 1768.97 21.3626 1771.06 21.3626C1773.15 21.3626 1775.93 21.3626 1778.02 20.7032C1780.1 20.7032 1782.19 20.7032 1784.28 21.3626C1786.37 22.0219 1787.76 22.6812 1789.85 22.6812C1791.24 23.3406 1790.54 23.3406 1791.94 22.6812C1798.89 18.7252 1807.94 19.3845 1815.6 18.0659C1819.77 17.4065 1823.25 16.0878 1826.73 16.0878C1828.82 16.0878 1830.91 15.4285 1832.99 14.7692C1835.78 13.4505 1837.87 14.7692 1840.65 15.4285C1843.43 16.0878 1844.82 18.7252 1847.61 19.3845C1849.7 20.0439 1851.78 19.3845 1853.87 19.3845C1857.35 19.3845 1862.22 20.0439 1865.01 18.0659C1866.4 17.4065 1867.09 16.0878 1869.18 16.0878C1870.57 16.0878 1871.97 16.0878 1873.36 16.0878C1875.45 16.0878 1878.92 16.7472 1881.01 16.0878C1884.49 14.7692 1887.97 15.4285 1892.15 15.4285C1893.54 15.4285 1895.63 15.4285 1897.02 15.4285C1899.11 15.4285 1901.19 16.0878 1903.28 16.0878C1904.67 16.0878 1906.07 15.4285 1907.46 15.4285C1910.94 15.4285 1914.42 15.4285 1917.9 15.4285C1918.59 15.4285 1919.98 15.4285 1920.68 15.4285C1923.46 16.0878 1926.94 16.7472 1929.03 18.0659C1931.81 19.3845 1933.9 21.3626 1936.69 22.6812C1937.38 22.6812 1937.38 22.0219 1937.38 21.3626C1938.08 20.0439 1938.77 19.3845 1940.16 18.0659C1941.56 16.7472 1943.64 13.4505 1945.73 12.7911C1946.43 12.7911 1947.82 12.7911 1949.21 12.7911C1952.69 12.1318 1954.78 10.8131 1958.26 9.49442C1959.65 8.83508 1960.35 8.83508 1961.74 8.83508C1962.43 8.83508 1963.13 8.17574 1963.13 8.17574C1964.52 7.5164 1964.52 8.17574 1965.22 9.49442C1966.61 11.4724 1968.7 12.7911 1970.79 14.1098C1971.48 14.7692 1972.87 14.7692 1973.57 15.4285C1974.96 16.0878 1976.35 16.7472 1977.74 16.7472C1978.44 16.7472 1979.14 17.4065 1980.53 17.4065C1981.92 18.7252 1982.62 20.0439 1984.7 20.0439C1986.1 20.0439 1988.18 20.0439 1988.88 19.3845C1990.27 18.7252 1990.27 17.4065 1990.97 16.0878C1991.66 14.7692 1993.75 15.4285 1995.14 15.4285C1996.53 15.4285 1998.62 14.7692 2000.01 15.4285C2002.1 16.0878 2002.8 18.0659 2004.88 19.3845C2007.67 21.3626 2011.84 22.0219 2014.63 22.0219C2018.11 22.0219 2021.59 21.3626 2025.37 18.7252C2025.76 17.4065 2027.15 18.0659 2029.24 18.7252C2032.03 19.3845 2034.11 21.3626 2035.51 23.3406C2037.59 26.6373 2041.07 25.978 2043.86 27.956C2045.25 29.2747 2045.94 29.2747 2048.03 27.956C2049.42 27.2966 2049.42 26.6373 2050.82 25.978C2051.51 25.3186 2052.21 23.9999 2052.9 23.9999C2054.29 23.9999 2054.99 25.3186 2056.38 24.6593C2057.08 23.9999 2055.69 22.6812 2056.38 22.0219C2057.77 20.7032 2059.17 22.6812 2060.56 23.3406C2063.34 24.6593 2065.43 24.6593 2068.21 24.6593C2071 24.6593 2073.08 24.6593 2075.87 24.6593C2077.96 24.6593 2080.04 24.6593 2082.13 25.3186C2083.52 25.978 2084.22 27.956 2086.31 27.956C2087 27.956 2088.39 27.956 2089.09 27.956C2090.48 27.2966 2091.18 25.978 2092.57 25.3186C2096.75 22.6812 2101.62 25.978 2105.1 23.9999C2105.79 23.9999 2105.79 23.3406 2105.79 22.6812C2106.49 22.6812 2107.18 22.6812 2107.88 22.6812C2109.27 22.6812 2109.27 22.6812 2110.66 22.0219C2111.36 21.3626 2112.06 20.7032 2112.75 20.0439C2119.01 18.0659 2123.19 26.6373 2128.76 23.9999C2130.84 23.3406 2132.24 22.6812 2134.32 22.0219C2135.72 21.3626 2137.11 20.7032 2138.5 20.0439C2139.89 20.0439 2139.89 20.0439 2141.28 19.3845C2142.68 18.7252 2144.07 18.7252 2145.46 18.7252C2146.85 18.7252 2148.24 19.3845 2149.63 19.3845C2150.33 19.3845 2151.03 19.3845 2151.72 20.0439C2151.72 20.0439 2152.42 20.7032 2153.11 21.3626C2153.81 21.3626 2153.81 21.3626 2154.51 21.3626C2155.2 21.3626 2155.9 22.0219 2156.59 22.0219C2157.29 22.0219 2158.68 22.0219 2159.38 22.6812C2160.07 22.6812 2160.77 23.3406 2162.16 23.3406C2164.94 23.9999 2167.73 23.3406 2170.51 24.6593C2171.21 25.3186 2172.6 25.3186 2173.3 25.3186C2174.69 25.978 2176.08 25.978 2177.47 26.6373C2180.25 26.6373 2183.04 26.6373 2185.13 26.6373C2186.52 26.6373 2187.21 26.6373 2188.61 26.6373C2190 25.978 2190.69 24.6593 2192.09 23.9999C2193.48 23.3406 2196.96 23.9999 2198.35 23.9999C2199.74 23.9999 2200.44 23.9999 2201.83 24.6593C2203.92 25.3186 2204.61 26.6373 2206.7 25.3186C2207.4 24.6593 2208.09 23.9999 2208.79 23.9999C2209.48 23.3406 2210.88 23.3406 2211.57 22.6812C2213.66 21.3626 2213.66 20.7032 2215.75 22.0219C2217.14 22.6812 2218.53 23.3406 2219.92 23.9999C2219.92 23.9999 2222.01 25.3186 2222.71 25.3186C2223.4 25.3186 2224.79 25.3186 2225.49 25.3186C2228.27 24.6593 2229.66 20.0439 2233.14 21.3626C2235.93 22.0219 2238.71 22.6812 2241.5 22.6812C2243.58 22.6812 2243.58 22.0219 2244.28 20.0439C2244.28 19.3845 2244.97 18.0659 2245.67 17.4065C2246.37 16.7472 2247.76 16.7472 2249.15 16.7472C2251.24 16.7472 2253.33 16.7472 2255.41 16.7472C2257.5 16.7472 2257.5 16.7472 2258.89 16.0878C2262.37 14.1098 2265.16 14.1098 2268.64 16.0878C2272.12 17.4065 2275.59 16.0878 2277.68 13.4505L2278.38 12.1318C2279.77 11.4724 2280.47 12.1318 2281.86 13.4505L2282.55 14.1098H2283.25C2283.95 14.1098 2283.95 14.7692 2283.95 15.4285C2285.34 16.7472 2288.12 17.4065 2290.21 17.4065C2294.38 17.4065 2298.56 14.1098 2302.74 12.7911C2303.43 12.7911 2304.13 12.7911 2304.82 12.1318C2305.52 12.1318 2305.52 11.4724 2306.22 10.8131C2307.61 10.1538 2309 11.4724 2310.39 11.4724C2311.78 11.4724 2313.87 11.4724 2315.26 11.4724C2317.35 11.4724 2318.05 10.1538 2320.13 10.1538C2321.53 10.1538 2322.22 10.8131 2323.61 11.4724C2324.31 12.1318 2324.31 12.7911 2325 12.7911C2326.4 13.4505 2328.48 13.4505 2330.57 13.4505C2334.05 13.4505 2340.31 13.4505 2343.1 10.1538C2343.79 8.83508 2344.49 8.17574 2346.58 8.17574C2347.27 8.17574 2349.36 8.83508 2350.06 7.5164C2350.75 6.85705 2349.36 5.53837 2350.06 4.87903C2352.15 2.90101 2354.93 5.53837 2357.02 6.85705C2359.1 8.17574 2361.89 9.49442 2363.98 11.4724C2365.37 12.1318 2368.15 14.7692 2370.24 13.4505C2370.94 12.7911 2372.33 10.8131 2372.33 10.1538C2373.02 8.17574 2373.02 5.53837 2375.11 4.87903C2376.5 4.21969 2377.89 4.21969 2379.29 4.21969C2381.37 4.21969 2383.46 4.87903 2385.55 4.87903C2386.94 5.53837 2389.03 6.19771 2390.42 4.87903C2391.12 4.21969 2390.42 3.56035 2391.12 3.56035C2391.81 3.56035 2392.51 4.87903 2393.2 4.87903C2395.99 6.85705 2399.47 6.19771 2402.25 6.19771C2404.34 6.19771 2407.12 6.19771 2409.21 5.53837C2411.3 5.53837 2414.08 4.21969 2416.17 4.87903C2420.34 5.53837 2423.82 9.49442 2428 10.8131V56.967C2427.3 56.967 2426.61 54.989 2425.22 54.989C2422.43 54.989 2419.65 54.989 2416.87 54.989C2414.78 54.989 2412.69 54.989 2410.6 54.3296C2409.91 54.3296 2409.21 53.6703 2408.51 53.6703C2407.82 53.011 2406.43 53.6703 2405.73 53.6703C2403.64 53.6703 2401.56 53.6703 2399.47 54.3296L2398.77 54.989C2398.08 54.989 2397.38 55.6483 2396.68 55.6483C2395.29 56.3077 2395.29 56.967 2394.6 57.6263C2393.9 58.2857 2393.2 57.6263 2391.81 58.2857C2390.42 58.2857 2389.72 59.6044 2388.33 60.2637C2386.94 60.9231 2385.55 60.2637 2384.16 60.9231C2382.77 60.9231 2383.46 60.9231 2382.77 61.5824C2381.37 62.2417 2379.29 62.2417 2377.89 62.2417C2376.5 62.2417 2375.11 62.9011 2374.41 62.9011C2373.72 62.9011 2373.02 62.9011 2372.33 62.9011C2370.24 62.9011 2368.15 63.5604 2366.06 62.9011C2364.67 62.9011 2361.89 62.9011 2361.19 61.5824C2359.8 60.2637 2360.5 58.2857 2359.1 56.967C2357.02 54.3296 2350.06 54.3296 2347.27 55.6483C2346.58 55.6483 2345.88 56.3077 2345.19 56.3077C2343.79 56.967 2343.79 58.2857 2343.79 59.6044C2343.1 60.9231 2342.4 62.9011 2341.71 64.2198C2341.71 64.8791 2339.62 69.4945 2337.53 68.8352C2336.84 68.8352 2336.84 67.5165 2336.14 66.8571C2334.75 66.1978 2332.66 66.8571 2331.27 66.8571C2329.18 66.8571 2327.09 66.8571 2325.7 66.8571C2323.61 66.8571 2321.53 66.8571 2319.44 66.8571C2315.26 66.8571 2311.78 64.2198 2308.3 63.5604C2304.13 62.2417 2299.95 63.5604 2295.78 63.5604C2293.69 63.5604 2290.91 62.9011 2288.82 63.5604C2286.03 64.2198 2283.95 64.8791 2281.16 65.5384C2280.47 65.5384 2280.47 65.5384 2279.07 65.5384C2277.68 66.1978 2276.29 66.8571 2275.59 68.1758C2274.2 68.8352 2273.51 69.4945 2272.81 70.8132C2272.12 72.7912 2272.12 74.7692 2271.42 76.7473C2270.03 76.7473 2270.03 74.7692 2270.03 74.1099C2269.33 72.1319 2268.64 70.8132 2266.55 70.1538C2262.37 69.4945 2256.81 69.4945 2251.93 69.4945C2246.37 70.1538 2240.8 70.8132 2235.23 69.4945C2232.45 68.8352 2229.66 68.1758 2226.88 68.1758C2224.79 68.1758 2222.01 68.1758 2219.92 68.1758C2217.83 68.1758 2215.75 67.5165 2215.05 70.1538C2215.05 71.4725 2215.05 72.7912 2213.66 73.4505C2212.27 74.1099 2210.18 73.4505 2208.09 74.1099C2205.31 74.7692 2203.22 75.4286 2200.44 75.4286C2198.35 75.4286 2196.26 74.7692 2194.17 74.1099C2192.09 72.7912 2190 72.1319 2187.21 72.1319C2186.52 72.1319 2185.13 72.1319 2184.43 72.1319C2183.04 72.1319 2181.65 71.4725 2179.56 70.8132C2177.47 70.8132 2175.38 70.8132 2173.3 70.8132C2171.9 70.8132 2170.51 70.8132 2169.12 70.8132C2166.34 71.4725 2164.25 72.7912 2162.16 73.4505C2160.77 74.1099 2159.38 74.7692 2157.99 74.1099C2156.59 73.4505 2155.9 72.7912 2154.51 71.4725C2153.81 70.8132 2153.81 69.4945 2153.11 68.1758C2152.42 67.5165 2151.03 66.8571 2150.33 66.1978C2148.94 65.5384 2146.85 65.5384 2145.46 65.5384C2143.37 65.5384 2143.37 65.5384 2142.68 63.5604C2141.98 61.5824 2140.59 62.2417 2139.2 62.9011C2137.11 64.2198 2134.32 64.8791 2132.24 64.8791C2130.84 64.8791 2130.15 65.5384 2128.76 65.5384C2128.06 65.5384 2128.06 65.5384 2127.37 65.5384C2126.67 65.5384 2125.97 66.1978 2125.28 66.8571C2123.89 66.8571 2121.8 66.8571 2120.41 66.8571C2114.14 66.8571 2107.88 66.8571 2102.31 70.8132C2100.92 71.4725 2100.92 71.4725 2099.53 72.1319L2098.83 72.7912C2097.44 73.4505 2096.05 74.7692 2094.66 75.4286C2093.27 76.0879 2092.57 76.0879 2091.18 75.4286C2090.48 75.4286 2089.09 74.1099 2089.09 74.1099C2087 72.7912 2085.61 71.4725 2083.52 70.8132C2082.83 70.1538 2081.44 70.8132 2081.44 70.1538C2080.74 69.4945 2080.74 68.8352 2080.04 68.1758C2077.96 66.1978 2075.17 66.1978 2072.39 66.1978C2070.3 66.1978 2068.21 65.5384 2066.82 66.8571C2066.13 67.5165 2065.43 68.1758 2064.04 68.8352C2063.34 69.4945 2062.65 69.4945 2061.95 70.1538C2061.25 70.8132 2061.25 70.8132 2061.25 71.4725C2060.56 72.7912 2061.25 72.7912 2059.86 72.7912C2056.38 74.1099 2051.51 71.4725 2048.03 70.1538C2047.34 70.1538 2046.64 69.4945 2045.94 69.4945C2045.25 69.4945 2045.25 68.8352 2044.55 68.1758C2043.86 68.1758 2043.16 68.8352 2042.46 69.4945C2041.07 70.8132 2038.98 72.1319 2037.59 73.4505C2035.5 72.7912 2034.81 70.1538 2033.42 68.8352C2032.03 67.5165 2030.63 66.8571 2029.24 66.8571C2027.15 66.8571 2027.15 67.5165 2026.46 69.4945C2025.76 71.4725 2025.76 74.1099 2023.67 73.4505C2020.19 73.4505 2018.11 68.1758 2014.63 68.1758C2012.54 68.1758 2010.45 69.4945 2007.67 69.4945C2005.58 69.4945 2002.8 68.8352 2001.41 70.1538C2000.71 70.8132 2000.71 71.4725 2000.01 72.1319C1999.32 72.7912 1996.53 72.1319 1995.84 72.1319C1994.45 72.1319 1992.36 71.4725 1990.97 71.4725C1990.27 71.4725 1989.57 71.4725 1988.88 71.4725C1987.49 72.7912 1988.18 75.4286 1988.18 77.4066C1984.7 76.0879 1981.92 72.7912 1978.44 70.8132C1976.35 69.4945 1974.96 69.4945 1972.87 68.8352C1971.48 68.1758 1971.48 68.1758 1970.09 68.1758C1968.7 68.1758 1967.31 68.8352 1965.91 68.8352C1963.13 69.4945 1959.65 68.8352 1956.17 68.8352C1953.39 68.8352 1951.3 67.5165 1949.21 67.5165C1947.12 67.5165 1945.04 68.1758 1943.64 67.5165C1941.56 66.8571 1940.86 67.5165 1938.77 68.1758C1936.69 69.4945 1934.6 68.8352 1931.81 69.4945C1930.42 69.4945 1930.42 70.1538 1929.03 71.4725C1928.33 72.1319 1926.25 72.7912 1924.85 72.7912C1924.16 72.7912 1923.46 72.7912 1922.77 72.7912C1920.68 72.1319 1918.59 70.1538 1917.2 68.8352C1915.81 67.5165 1913.72 66.8571 1911.63 66.1978C1910.94 66.1978 1909.54 65.5384 1908.85 65.5384C1908.15 65.5384 1908.15 65.5384 1908.15 65.5384C1907.46 66.1978 1906.76 66.8571 1906.76 67.5165C1906.07 68.1758 1903.98 67.5165 1902.59 67.5165C1897.02 67.5165 1892.15 67.5165 1886.58 67.5165C1883.8 67.5165 1881.71 67.5165 1879.62 65.5384C1878.92 64.8791 1878.92 64.2198 1877.53 63.5604C1876.84 62.9011 1876.84 63.5604 1875.44 63.5604C1873.36 63.5604 1871.97 60.9231 1869.88 60.9231C1867.79 60.9231 1867.09 63.5604 1865.7 64.8791C1864.31 66.1978 1863.61 67.5165 1862.92 68.8352C1860.83 69.4945 1858.74 66.1978 1857.35 64.8791C1855.96 63.5604 1854.57 63.5604 1852.48 62.9011C1850.39 62.2417 1849 60.2637 1846.91 59.6044C1845.52 58.945 1844.82 60.2637 1843.43 60.2637C1842.74 60.2637 1841.35 59.6044 1840.65 59.6044C1838.56 58.945 1837.87 58.2857 1835.78 58.2857C1834.39 58.2857 1832.3 58.2857 1830.91 57.6263C1829.51 56.967 1828.82 57.6264 1827.43 56.967C1826.04 56.967 1823.95 55.6483 1822.56 55.6483C1820.47 54.989 1819.08 54.3296 1816.99 54.3296C1815.6 54.989 1814.2 55.6483 1812.12 56.3077C1809.33 56.967 1806.55 58.2857 1803.77 58.945C1802.37 59.6044 1800.98 58.945 1799.59 58.945C1798.2 58.945 1798.89 59.6044 1797.5 59.6044C1794.02 60.2637 1790.54 59.6044 1787.06 59.6044C1782.19 59.6044 1778.02 55.6483 1773.84 57.6263C1773.15 58.2857 1774.54 59.6044 1773.84 60.2637C1771.75 62.2417 1771.06 64.2198 1769.67 65.5384C1768.27 67.5165 1768.97 66.8571 1766.88 66.1978C1765.49 65.5384 1764.1 64.2198 1762.71 64.2198C1760.62 64.2198 1761.32 65.5384 1759.23 66.1978C1753.66 66.8571 1748.09 55.6483 1743.92 59.6044C1742.53 60.9231 1745.31 64.8791 1744.61 66.8571C1743.92 68.8352 1741.13 63.5604 1739.74 64.2198C1738.35 64.8791 1739.05 65.5384 1738.35 66.1978C1737.65 66.8571 1736.26 67.5165 1734.87 67.5165C1732.78 67.5165 1730 66.8571 1727.91 66.8571C1725.82 66.8571 1723.74 66.8571 1721.65 67.5165C1720.26 68.1758 1718.86 68.1758 1716.78 68.8352C1715.39 69.4945 1713.99 70.1538 1713.3 70.1538C1712.6 70.1538 1712.6 70.1538 1711.91 70.1538C1711.21 70.1538 1711.21 70.1538 1711.21 70.8132C1711.21 71.4725 1705.64 72.1319 1704.95 72.1319C1703.55 72.1319 1702.16 71.4725 1701.47 72.7912C1700.77 74.1099 1700.77 78.7253 1698.68 80.044C1696.6 80.7033 1693.12 78.7253 1691.03 78.0659C1690.33 78.0659 1688.94 77.4066 1688.24 77.4066C1686.85 76.7472 1684.76 77.4066 1682.68 77.4066C1679.89 77.4066 1677.11 77.4066 1675.02 77.4066C1673.63 77.4066 1672.93 78.0659 1672.24 78.0659C1670.15 78.0659 1666.67 78.7253 1665.28 76.7473C1664.58 76.0879 1664.58 75.4286 1663.89 74.7692C1662.5 74.1099 1661.1 73.4505 1659.71 72.7912C1657.62 72.1319 1656.23 71.4725 1654.14 70.8132C1652.75 70.8132 1650.67 70.8132 1649.27 70.1538C1647.88 70.1538 1646.49 70.1538 1645.1 70.1538C1643.01 70.1538 1641.62 70.8132 1639.53 70.8132C1637.44 70.8132 1636.05 70.8132 1633.96 70.8132C1632.57 70.8132 1631.88 70.8132 1631.88 72.1319C1631.88 72.7912 1632.57 74.1099 1631.88 74.7692C1631.18 75.4286 1627.7 76.0879 1627 76.0879C1624.92 76.0879 1622.83 76.7472 1620.74 75.4286C1618.65 74.1099 1616.57 72.7912 1614.48 71.4725C1613.09 70.1538 1611.69 68.1758 1608.91 67.5165C1606.13 66.8571 1603.34 66.8571 1600.56 68.8352C1599.86 69.4945 1599.17 70.1538 1598.47 70.8132C1597.78 72.1319 1596.38 72.7912 1595.69 74.1099C1593.6 76.0879 1593.6 77.4066 1593.6 80.044C1593.6 81.3626 1593.6 82.6813 1592.9 84C1591.51 84 1590.12 82.6813 1589.42 81.3626C1588.73 80.044 1587.34 79.3846 1585.95 78.0659C1583.86 76.0879 1581.07 74.1099 1578.99 72.1319C1578.29 71.4725 1576.9 69.4945 1575.51 69.4945C1573.42 69.4945 1572.72 71.4725 1571.33 72.7912C1569.94 74.1099 1569.24 73.4505 1567.85 72.7912C1565.07 72.1319 1562.98 72.7912 1560.2 72.7912C1557.41 72.1319 1554.63 70.1538 1551.15 69.4945C1549.06 69.4945 1544.19 69.4945 1542.8 71.4725C1542.1 72.1319 1542.8 72.7912 1542.1 73.4505C1541.41 74.1099 1540.71 74.1099 1540.01 74.1099C1538.62 74.1099 1537.23 74.1099 1535.84 74.1099C1534.45 74.1099 1533.06 73.4505 1531.66 72.7912C1530.97 72.7912 1529.58 72.7912 1528.88 72.7912C1527.49 72.7912 1526.1 72.7912 1525.4 72.7912C1524.01 73.4505 1524.01 74.1099 1522.62 74.1099C1521.92 74.1099 1520.53 74.1099 1519.83 73.4505C1518.44 72.1319 1517.75 71.4725 1515.66 70.1538C1511.48 67.5165 1507.31 65.5384 1503.83 62.2417C1502.44 60.923 1501.74 60.2637 1500.35 58.945C1496.87 56.3077 1492 55.6483 1487.82 55.6483C1485.04 55.6483 1482.25 56.3077 1478.77 56.967C1475.99 57.6264 1473.9 58.945 1471.12 58.945C1466.94 59.6044 1462.07 56.967 1457.9 56.967C1455.81 56.967 1454.42 56.967 1452.33 56.967C1450.24 56.967 1449.55 56.967 1448.15 56.3077C1447.46 55.6483 1446.76 55.6483 1445.37 54.989C1442.59 54.989 1439.11 53.6703 1436.32 54.989C1434.93 55.6483 1434.24 55.6483 1432.84 56.3077C1430.76 56.967 1428.67 58.945 1425.89 59.6044C1425.19 60.2637 1423.8 60.2637 1423.1 60.2637C1421.01 60.9231 1418.23 60.2637 1415.45 60.2637C1411.97 60.2637 1407.79 60.2637 1404.31 61.5824C1399.44 62.9011 1397.35 67.5165 1392.48 68.1758C1391.09 68.1758 1389 68.1758 1387.61 67.5165C1384.13 66.1978 1380.65 64.8791 1376.48 64.2198C1374.39 63.5604 1372.3 62.2417 1370.21 61.5824C1368.12 60.9231 1366.73 61.5824 1365.34 60.2637C1359.77 57.6264 1353.51 58.945 1347.94 58.945C1346.55 58.945 1345.16 57.6263 1344.46 56.3077C1343.77 55.6483 1343.77 55.6483 1343.07 54.989C1342.38 54.989 1342.38 54.3296 1342.38 54.3296C1341.68 53.6703 1340.98 53.6703 1340.98 53.6703C1340.29 53.011 1339.59 53.6703 1338.2 53.6703C1337.5 53.6703 1336.11 53.6703 1335.42 53.6703C1334.02 53.6703 1333.33 53.6703 1331.94 53.6703C1331.24 53.6703 1329.85 53.6703 1329.15 54.3296C1328.46 54.989 1328.46 54.989 1327.76 55.6483C1327.07 56.3077 1325.67 57.6263 1324.98 57.6263C1324.28 57.6263 1323.59 57.6263 1322.89 57.6263C1320.8 57.6263 1318.71 57.6263 1316.63 57.6263C1316.63 57.6263 1315.93 57.6263 1315.23 57.6263C1315.23 57.6263 1314.54 57.6263 1314.54 58.2857C1318.02 60.2637 1318.02 60.2637 1317.32 60.9231Z" fill="white"/>
</svg>
