<svg width="126" height="46" viewBox="0 0 126 46" fill="none" xmlns="http://www.w3.org/2000/svg">
<path d="M50.457 32.243C49.953 32.243 49.539 32.126 49.215 31.892C48.909 31.658 48.711 31.343 48.621 30.947C48.549 30.551 48.63 30.11 48.864 29.624L55.776 14.477C56.064 13.865 56.406 13.424 56.802 13.154C57.198 12.866 57.657 12.722 58.179 12.722C58.701 12.722 59.16 12.866 59.556 13.154C59.952 13.424 60.285 13.865 60.555 14.477L67.521 29.624C67.755 30.11 67.836 30.56 67.764 30.974C67.71 31.37 67.53 31.685 67.224 31.919C66.918 32.135 66.522 32.243 66.036 32.243C65.424 32.243 64.947 32.099 64.605 31.811C64.281 31.523 63.993 31.073 63.741 30.461L62.121 26.708L63.795 27.869H52.536L54.21 26.708L52.617 30.461C52.347 31.091 52.059 31.55 51.753 31.838C51.465 32.108 51.033 32.243 50.457 32.243ZM58.125 17.42L54.669 25.655L53.94 24.602H62.391L61.662 25.655L58.179 17.42H58.125ZM71.9471 32.216C71.2811 32.216 70.7681 32.027 70.4081 31.649C70.0661 31.253 69.8951 30.704 69.8951 30.002V20.768C69.8951 20.048 70.0661 19.499 70.4081 19.121C70.7681 18.725 71.2811 18.527 71.9471 18.527C72.5951 18.527 73.0901 18.725 73.4321 19.121C73.7921 19.499 73.9721 20.048 73.9721 20.768V30.002C73.9721 30.704 73.8011 31.253 73.4591 31.649C73.1171 32.027 72.6131 32.216 71.9471 32.216ZM71.9471 16.313C71.1911 16.313 70.6061 16.142 70.1921 15.8C69.7961 15.44 69.5981 14.936 69.5981 14.288C69.5981 13.622 69.7961 13.118 70.1921 12.776C70.6061 12.416 71.1911 12.236 71.9471 12.236C72.7031 12.236 73.2791 12.416 73.6751 12.776C74.0711 13.118 74.2691 13.622 74.2691 14.288C74.2691 14.936 74.0711 15.44 73.6751 15.8C73.2791 16.142 72.7031 16.313 71.9471 16.313ZM82.2767 32.297C81.1247 32.297 80.1077 32.018 79.2257 31.46C78.3617 30.902 77.6867 30.101 77.2007 29.057C76.7147 28.013 76.4717 26.78 76.4717 25.358C76.4717 23.936 76.7147 22.712 77.2007 21.686C77.6867 20.66 78.3617 19.868 79.2257 19.31C80.1077 18.752 81.1247 18.473 82.2767 18.473C83.3207 18.473 84.2387 18.725 85.0307 19.229C85.8407 19.733 86.3897 20.39 86.6777 21.2H86.3807V14.801C86.3807 14.117 86.5517 13.604 86.8937 13.262C87.2357 12.902 87.7397 12.722 88.4057 12.722C89.0537 12.722 89.5577 12.902 89.9177 13.262C90.2777 13.604 90.4577 14.117 90.4577 14.801V30.164C90.4577 30.83 90.2777 31.343 89.9177 31.703C89.5757 32.063 89.0807 32.243 88.4327 32.243C87.7847 32.243 87.2807 32.063 86.9207 31.703C86.5787 31.343 86.4077 30.83 86.4077 30.164V28.328L86.7047 29.381C86.4527 30.263 85.9127 30.974 85.0847 31.514C84.2747 32.036 83.3387 32.297 82.2767 32.297ZM83.4917 29.246C84.0857 29.246 84.5987 29.102 85.0307 28.814C85.4627 28.526 85.8047 28.103 86.0567 27.545C86.3087 26.969 86.4347 26.24 86.4347 25.358C86.4347 24.044 86.1647 23.081 85.6247 22.469C85.0847 21.839 84.3737 21.524 83.4917 21.524C82.9157 21.524 82.4027 21.659 81.9527 21.929C81.5207 22.199 81.1787 22.622 80.9267 23.198C80.6927 23.756 80.5757 24.476 80.5757 25.358C80.5757 26.672 80.8457 27.653 81.3857 28.301C81.9257 28.931 82.6277 29.246 83.4917 29.246ZM102.104 32.297C100.754 32.297 99.5572 32.126 98.5132 31.784C97.4872 31.424 96.6232 30.902 95.9212 30.218C95.2192 29.534 94.6882 28.679 94.3282 27.653C93.9862 26.609 93.8152 25.403 93.8152 24.035V14.855C93.8152 14.153 93.9952 13.622 94.3552 13.262C94.7152 12.902 95.2372 12.722 95.9212 12.722C96.5872 12.722 97.1002 12.902 97.4602 13.262C97.8202 13.622 98.0002 14.153 98.0002 14.855V24.062C98.0002 25.61 98.3512 26.78 99.0532 27.572C99.7552 28.346 100.772 28.733 102.104 28.733C103.436 28.733 104.444 28.346 105.128 27.572C105.83 26.78 106.181 25.61 106.181 24.062V14.855C106.181 14.153 106.361 13.622 106.721 13.262C107.081 12.902 107.594 12.722 108.26 12.722C108.926 12.722 109.43 12.902 109.772 13.262C110.132 13.622 110.312 14.153 110.312 14.855V24.035C110.312 25.853 109.997 27.383 109.367 28.625C108.755 29.849 107.837 30.767 106.613 31.379C105.407 31.991 103.904 32.297 102.104 32.297ZM118.741 32.297C117.949 32.297 117.13 32.225 116.284 32.081C115.456 31.937 114.7 31.694 114.016 31.352C113.656 31.172 113.395 30.947 113.233 30.677C113.089 30.389 113.026 30.101 113.044 29.813C113.062 29.525 113.152 29.264 113.314 29.03C113.494 28.796 113.719 28.643 113.989 28.571C114.277 28.481 114.592 28.508 114.934 28.652C115.672 28.958 116.347 29.174 116.959 29.3C117.571 29.426 118.174 29.489 118.768 29.489C119.542 29.489 120.1 29.372 120.442 29.138C120.802 28.886 120.982 28.562 120.982 28.166C120.982 27.806 120.865 27.536 120.631 27.356C120.397 27.176 120.055 27.05 119.605 26.978L116.77 26.465C115.654 26.267 114.79 25.862 114.178 25.25C113.584 24.62 113.287 23.819 113.287 22.847C113.287 21.947 113.539 21.173 114.043 20.525C114.547 19.859 115.24 19.355 116.122 19.013C117.022 18.653 118.039 18.473 119.173 18.473C119.983 18.473 120.73 18.545 121.414 18.689C122.098 18.833 122.755 19.067 123.385 19.391C123.709 19.553 123.934 19.769 124.06 20.039C124.204 20.309 124.249 20.588 124.195 20.876C124.159 21.164 124.051 21.425 123.871 21.659C123.691 21.893 123.457 22.046 123.169 22.118C122.899 22.19 122.584 22.154 122.224 22.01C121.648 21.74 121.117 21.551 120.631 21.443C120.145 21.317 119.677 21.254 119.227 21.254C118.417 21.254 117.832 21.389 117.472 21.659C117.112 21.911 116.932 22.235 116.932 22.631C116.932 22.937 117.031 23.198 117.229 23.414C117.445 23.612 117.769 23.747 118.201 23.819L121.036 24.332C122.206 24.53 123.097 24.926 123.709 25.52C124.321 26.096 124.627 26.888 124.627 27.896C124.627 29.264 124.087 30.344 123.007 31.136C121.945 31.91 120.523 32.297 118.741 32.297Z" fill="black"/>
<path d="M36.1579 9.43596C35.9261 9.20622 35.6197 9.08425 35.2921 9.08496C34.6313 9.09276 34.0931 9.63664 34.0931 10.2975V18.3585C34.0931 19.6114 33.7513 20.8459 33.1046 21.9287C33.0876 21.9571 33.0691 21.9826 33.0486 22.0067C33.0401 22.028 33.0294 22.0486 33.0181 22.0691C33.011 22.0819 33.0032 22.0932 32.9968 22.1039C32.7692 22.4598 32.5097 22.7959 32.226 23.1044L27.7616 27.9383C27.6496 28.0588 27.4971 28.1205 27.3447 28.1205C27.2071 28.1205 27.0688 28.0709 26.9596 27.9695C26.7299 27.7575 26.7157 27.3987 26.9277 27.1682L31.3921 22.3343C31.6233 22.084 31.8353 21.8103 32.0225 21.521C32.0325 21.504 32.0431 21.487 32.0551 21.4699H32.0559C32.0679 21.4522 32.08 21.4359 32.0941 21.4203C32.1012 21.4026 32.109 21.3856 32.1183 21.3685C32.3487 20.9424 32.2672 20.4255 31.9155 20.0823C31.4659 19.6447 30.7355 19.6426 30.2845 20.078C30.1789 20.1865 28.443 21.972 26.9766 23.4795C25.8818 24.6055 24.9373 25.577 24.9337 25.5805C23.127 27.4483 22.1307 30.0159 22.1307 32.8083V36.3984H29.6655C29.7733 34.5435 30.5093 32.7161 31.6807 31.4334L34.7851 28.0354C35.9027 26.8122 36.5182 25.226 36.5182 23.5696V10.2975C36.5182 9.97133 36.3905 9.665 36.1579 9.43596Z" fill="#F74F22"/>
<path d="M18.9958 38.269C18.9731 38.2045 18.9625 38.135 18.9653 38.0641V38.0634C18.8647 37.7024 18.5328 37.4365 18.14 37.4365H7.59294C7.12069 37.4365 6.73636 37.8209 6.73636 38.2931V39.1497H18.9965V38.2931C18.9965 38.2853 18.9965 38.2775 18.9958 38.2697V38.269Z" fill="#F74F22"/>
<path d="M31.407 37.5322H20.9238C20.5565 37.5322 20.2417 37.7549 20.1197 38.086V38.0867C20.1275 38.1548 20.1311 38.2229 20.1311 38.2931V39.234H32.2636V38.3562C32.2636 37.8946 31.8871 37.5322 31.407 37.5322Z" fill="#F74F22"/>
<path d="M9.32879 36.3027H16.9331V32.8083C16.9331 30.111 15.8865 27.5433 13.9868 25.5784C13.984 25.5756 13.8783 25.4657 11.5326 23.0179C10.2088 21.6359 8.82179 20.1894 8.71401 20.0766C8.26303 19.6434 7.53337 19.6448 7.08452 20.083C6.73281 20.4255 6.65127 20.9424 6.88172 21.3686C6.89094 21.3856 6.89874 21.4026 6.90583 21.4203C6.92001 21.4359 6.93207 21.4522 6.94412 21.47H6.94483C6.95688 21.487 6.96752 21.504 6.97745 21.521C7.16465 21.8103 7.37667 22.084 7.60783 22.3344L12.0723 27.1682C12.2843 27.3987 12.2701 27.7575 12.0404 27.9695C11.9312 28.0709 11.7929 28.1205 11.6553 28.1205C11.5029 28.1205 11.3504 28.0588 11.2384 27.9383L6.77465 23.1044C6.4903 22.796 6.23077 22.4599 6.00316 22.1039C5.99607 22.0933 5.98897 22.0819 5.98188 22.0692C5.97054 22.0486 5.9599 22.028 5.95139 22.0068C5.93083 21.9826 5.91239 21.9564 5.89537 21.9288C5.24868 20.846 4.9069 19.6114 4.9069 18.3585V10.2975C4.9069 9.63666 4.3687 9.09279 3.70712 9.08499C3.38165 9.08286 3.0739 9.20624 2.84203 9.43599C2.60945 9.66502 2.48181 9.97135 2.48181 10.2975V23.5696C2.48181 25.226 3.0973 26.8123 4.21483 28.0354L7.31923 31.4334C8.47079 32.6942 9.20116 34.4804 9.32879 36.3027Z" fill="#F74F22"/>
<path d="M15.8595 12.0762L17.0075 10.3424C17.1153 10.1801 17.2969 10.0822 17.4926 10.0886C17.6876 10.0928 17.8663 10.1964 17.9669 10.3637L19.5213 12.9498L21.6443 10.3042C21.7457 10.1779 21.8953 10.1013 22.0563 10.0928C22.2165 10.085 22.3747 10.1446 22.4888 10.2595L24.297 12.0762H26.2569C27.3241 10.4921 27.1277 8.33571 25.7606 6.96859C24.336 5.54402 22.0556 5.39086 20.4573 6.61262C20.2538 6.76792 19.9715 6.76792 19.768 6.61262C19.0455 6.06024 18.1839 5.78937 17.3245 5.78937C16.2829 5.78937 15.2455 6.18788 14.4647 6.96859C13.0976 8.33571 12.9012 10.4921 13.9684 12.0762H15.8595Z" fill="#F74F22"/>
<path d="M25.2302 13.2106H24.0609C23.9098 13.2106 23.7652 13.1503 23.6588 13.0433L22.1322 11.5088L19.8971 14.2941C19.7893 14.4288 19.6262 14.5061 19.4546 14.5061C19.4419 14.5061 19.4291 14.5061 19.4163 14.5054C19.2313 14.4926 19.0639 14.3905 18.9682 14.2317L17.4571 11.718L16.6374 12.9568C16.5325 13.1149 16.3545 13.2106 16.1644 13.2106H14.9944L20.0488 18.2643C20.0694 18.2849 20.0907 18.3061 20.1127 18.3267C20.1346 18.3061 20.1559 18.2849 20.1765 18.2643L25.2302 13.2106Z" fill="#F74F22"/>
<path d="M28.0091 13.2107C28.3225 13.2107 28.5764 12.9569 28.5764 12.6434C28.5764 12.33 28.3225 12.0762 28.0091 12.0762H27.5616C27.4134 12.3839 27.2319 12.681 27.0178 12.9611C26.9518 13.0469 26.8845 13.1306 26.815 13.2107H28.0091Z" fill="#F74F22"/>
<path d="M11.5582 13.2107H13.4103C13.3408 13.1306 13.2735 13.0469 13.2075 12.9611C12.9934 12.681 12.8119 12.3839 12.6637 12.0762H11.5582C11.2448 12.0762 10.9909 12.33 10.9909 12.6434C10.9909 12.9569 11.2448 13.2107 11.5582 13.2107Z" fill="#F74F22"/>
</svg>
