<svg width="100" height="180" viewBox="0 0 100 180" fill="none" xmlns="http://www.w3.org/2000/svg">
<g id="Group 1410097613">
<path id="Vector" d="M1.04469 180L-27.9511 129.327C-31.4864 123.261 -32.7461 116.489 -31.5742 109.848C-30.4023 103.208 -26.8502 96.9926 -21.3583 91.9721C-18.336 89.238 -14.7588 86.9425 -10.7813 85.185C2.3411 79.3967 20.5702 78.257 27.0208 67.3463C32.1749 58.6255 27.416 46.4343 36.2539 39.9545C42.2301 35.5492 51.3526 36.292 59.3525 35.4084C79.9057 33.1417 96.6803 16.827 95.7159 0C104.285 10.7057 98.5617 24.9843 91.0993 36.2279C83.6369 47.4715 74.1983 59.1377 76.2378 71.79C77.5975 80.2803 84.048 88.681 80.8543 96.8512C77.5342 105.354 65.5027 109.132 58.151 115.778C47.8744 125.088 47.7479 138.919 42.3408 150.61C35.5741 165.055 19.3687 175.966 1.04469 180Z" fill="#E98EAB"/>
<g id="Vector_2" style="mix-blend-mode:overlay">
<path d="M12.1649 150.434C14.533 146.753 16.8077 143.029 18.9889 139.263C23.9547 135.58 29.1553 132.115 34.569 128.883C40.3549 125.528 46.3624 122.438 52.564 119.624C39.5515 123.184 28.0606 129.726 19.4564 138.473C24.3174 130.056 28.7109 121.461 32.6371 112.687C36.1812 109.191 40.0346 105.914 44.1663 102.881C47.9996 100.164 52.0207 97.6308 56.2097 95.2928C47.0116 98.2071 39.1602 103.407 33.7589 110.162C36.8749 102.97 39.6896 95.6966 42.2032 88.3427C48.0617 83.4165 55.2264 79.6596 63.1428 77.3628C59.081 77.5631 55.129 78.5211 51.5889 80.1633C48.0487 81.8055 45.0142 84.0886 42.7174 86.8379C46.885 74.2992 50.0955 61.5604 52.3303 48.6953C50.2529 57.197 47.8588 65.6263 45.1479 73.9834C45.0447 71.3857 44.2091 68.8427 42.7064 66.5531C41.2037 64.2635 39.0746 62.2892 36.4854 60.7846C40.5696 65.4267 43.2403 70.8 44.2754 76.4574C41.5852 84.6955 38.6354 92.8741 35.4259 100.993C35.3546 97.3513 34.2009 93.7786 32.0646 90.5835C29.9283 87.3885 26.8735 84.6673 23.1644 82.6551C27.8988 87.0313 31.4507 92.1765 33.5875 97.754C34.1172 99.1951 34.569 100.674 34.943 102.179C30.4871 113.299 25.5482 124.283 20.1263 135.131C20.5212 132.821 20.636 130.485 20.4691 128.156C19.8483 118.937 15.2234 110.204 7.42856 103.531C12.0079 109.096 15.425 115.246 17.54 121.729C18.9521 126.421 19.6997 131.23 19.7679 136.062C17.2907 140.883 14.7823 145.678 12.1649 150.434Z" fill="#5A0037"/>
</g>
<g id="Vector_3" style="mix-blend-mode:overlay" opacity="0.5">
<path d="M0.901577 180L-28.1608 129.334C-28.6204 128.54 -29.0483 127.721 -29.4286 126.914L-11.7598 157.644C6.60627 153.675 22.833 142.753 29.5836 128.323C35.0348 116.633 35.1616 102.804 45.4301 93.4955C52.7987 86.8502 64.8579 83.0602 68.2015 74.5583C71.3708 66.402 64.9213 58.0026 63.5585 49.5134C62.8704 44.307 63.7119 39.0428 66.0147 34.1485C83.4458 29.5262 96.6142 14.9424 95.6951 0C104.3 10.7042 98.5634 24.9808 91.068 36.2228C83.5726 47.4648 74.2232 59.1549 76.2674 71.8054C77.6302 80.2945 84.0955 88.694 80.8945 96.863C77.5668 105.365 65.5076 109.142 58.139 115.787C47.8388 125.096 47.712 138.924 42.2925 150.615C35.5103 165.058 19.2835 175.967 0.901577 180Z" fill="#5A0037"/>
</g>
</g>
</svg>
