<svg width="158" height="282" viewBox="0 0 158 282" fill="none" xmlns="http://www.w3.org/2000/svg">
<path d="M102.176 202.12C102.375 202.243 116.29 195.508 116.489 195.623L116.672 195.311L116.839 195.033C110.525 191.174 106.828 184.251 103.258 177.557C100.022 171.486 96.6741 165.202 91.3308 161.016C83.3317 154.732 72.6133 154.306 61.4178 154.412L29.3022 154.723C28.7642 154.712 28.2277 154.786 27.712 154.945H27.6404L27.4178 155.027C26.9582 155.203 26.5426 155.483 26.2012 155.846L26.1217 155.928C25.8396 156.261 25.6549 156.67 25.589 157.108C25.5355 157.706 25.6377 158.308 25.8851 158.853C26.1324 159.397 26.516 159.864 26.9964 160.205C28.1004 160.901 29.348 161.319 30.6381 161.425L47.9561 164.203L21.343 163.752C19.6685 163.602 17.9825 163.834 16.4052 164.432C15.8956 164.663 15.4751 165.062 15.2101 165.566C14.9452 166.071 14.8509 166.652 14.9421 167.218C15.0162 167.802 15.2754 168.344 15.6795 168.76C16.0835 169.177 16.6098 169.444 17.1764 169.52L46.8668 173.797L15.2125 174.419C14.2265 174.419 11.9127 174.477 11.2368 176.336C11.0814 176.834 11.0646 177.367 11.1883 177.873C11.312 178.38 11.5712 178.841 11.9365 179.204C13.169 180.482 14.9342 180.638 16.3495 180.752L41.6905 182.883L19.5221 184.906C17.7966 185.062 15.7611 185.504 15.4112 187.487C15.3534 187.887 15.3796 188.295 15.488 188.684C15.5963 189.073 15.7844 189.433 16.0394 189.74C17.1287 191.084 18.6952 191.379 20.3411 191.592C30.3127 192.864 40.4272 192.212 50.1666 189.666L56.4721 187.11L102.176 202.12Z" fill="#E98EAB"/>
<path d="M42.6049 193.681C42.1682 193.294 41.8528 192.783 41.6985 192.211C41.5442 191.639 41.558 191.033 41.7382 190.47C42.1141 189.346 42.75 188.334 43.5909 187.52C46.8969 183.942 51.0352 181.294 55.6133 179.827C58.5156 178.901 61.6166 178.442 64.2008 176.812C65.64 175.903 66.8486 174.674 68.1764 173.625C70.8078 171.592 73.9015 170.289 77.1615 169.84C78.7388 169.616 80.3442 169.734 81.8744 170.187C83.4047 170.641 84.8258 171.419 86.0466 172.473C87.2673 173.526 88.2606 174.831 88.9625 176.304C89.6644 177.776 90.0595 179.384 90.1222 181.023L90.3528 186.578C90.4225 188.545 89.9767 190.496 89.0624 192.224C88.1481 193.952 86.7989 195.395 85.1566 196.401C83.5143 197.407 81.6394 197.938 79.7289 197.94C77.8184 197.941 75.9428 197.413 74.299 196.41L74.0684 196.278C65.7593 191.363 55.5736 190.502 47.487 193.976C46.016 194.607 43.9964 195.467 42.5015 194.345C42.0087 193.912 41.6514 193.339 41.4745 192.698C41.2976 192.056 41.3091 191.375 41.5076 190.74C41.9006 189.565 42.5667 188.508 43.4477 187.659C46.7892 184.034 50.9782 181.354 55.6133 179.876C56.4084 179.614 57.2911 179.385 58.118 179.163C60.2153 178.715 62.2377 177.953 64.1213 176.902C65.0076 176.308 65.8525 175.651 66.6498 174.936C67.1189 174.526 67.588 174.117 68.081 173.74" fill="#F0A7C2"/>
<g style="mix-blend-mode:overlay" opacity="0.65">
<path d="M42.4538 193.649C38.661 189.757 48.0833 183.817 50.9776 182.318C54.5398 180.327 58.5393 179.86 62.3242 178.443C66.109 177.025 68.5899 173.224 72.4304 171.798C77.2012 169.57 82.9421 169.619 86.7428 173.748C88.6046 175.705 89.7557 178.262 90.0029 180.991C90.0127 178.159 89.0365 175.418 87.2517 173.265C81.2166 165.981 70.9594 169.414 65.1151 175.141C60.9089 178.639 55.0567 178.361 50.5005 181.318C47.4154 183.047 38.1759 189.79 42.4855 193.649H42.4538Z" fill="#5A0037"/>
</g>
<g style="mix-blend-mode:overlay" opacity="0.27">
<path d="M48.0039 164.211L37.3889 159.541C35.0035 158.501 32.618 157.649 30.1451 156.829C29.6201 156.661 29.1238 156.41 28.6742 156.084C28.2714 155.783 27.9353 155.398 27.6882 154.953L27.4655 155.035C27.0131 155.226 26.6002 155.504 26.249 155.854L26.1695 155.936C25.8873 156.27 25.7027 156.679 25.6367 157.116C25.5833 157.715 25.6855 158.317 25.9328 158.861C26.1802 159.405 26.5638 159.872 27.0441 160.213C28.1481 160.909 29.3958 161.327 30.6859 161.434L48.0039 164.211Z" fill="#5A0037"/>
<path d="M21.7884 170.192L46.8669 173.797L18.8623 165.399C18.491 165.349 18.1346 165.217 17.8175 165.012C17.5004 164.807 17.2302 164.534 17.0255 164.211C16.8308 164.277 16.6397 164.353 16.453 164.44C15.9434 164.671 15.5229 165.07 15.258 165.575C14.993 166.079 14.8987 166.66 14.9899 167.226C15.064 167.81 15.3232 168.352 15.7273 168.768C16.1314 169.185 16.6576 169.452 17.2243 169.528L21.7884 170.192Z" fill="#5A0037"/>
<path d="M41.7224 182.883L22.7027 177.828C20.6592 177.287 18.5999 176.771 16.5166 176.419C15.4281 176.295 14.4074 175.812 13.6064 175.043C13.4815 174.907 13.3672 174.762 13.2645 174.608C12.7869 174.686 12.3407 174.902 11.9777 175.232C11.6147 175.561 11.35 175.989 11.2142 176.467C11.0784 176.945 11.0772 177.453 11.2107 177.932C11.3442 178.411 11.607 178.841 11.9684 179.172C13.2009 180.45 14.9661 180.606 16.3814 180.72L19.6256 180.991" fill="#5A0037"/>
<path d="M102.177 202.12C102.375 202.243 116.29 195.508 116.489 195.623L116.672 195.311L116.839 195.033C115.952 194.491 115.104 193.883 114.302 193.214C110.104 195.156 103.966 198.13 103.807 198.015L94.4002 194.926C90.5891 193.679 86.562 193.29 82.5924 193.788C80.2771 194.07 77.9358 193.561 75.9291 192.337L75.6986 192.206C67.3894 187.291 57.2037 186.43 49.1172 189.896C47.6462 190.535 45.6265 191.395 44.1317 190.273C43.7208 189.919 43.4033 189.464 43.2087 188.949C43.0141 188.435 42.9486 187.879 43.0185 187.332C36.0497 188.326 28.9849 188.378 22.003 187.487C20.3571 187.282 18.8225 186.979 17.6934 185.636C17.6148 185.537 17.543 185.433 17.4787 185.324C17.0296 185.423 16.6135 185.641 16.2718 185.957C15.9302 186.273 15.675 186.676 15.5317 187.125C15.3885 187.575 15.3622 188.055 15.4555 188.518C15.5488 188.981 15.7584 189.411 16.0634 189.765C17.1527 191.108 18.7191 191.403 20.3651 191.616C27.3469 192.507 34.4118 192.455 41.3805 191.461C41.3107 192.008 41.3761 192.564 41.5707 193.079C41.7653 193.593 42.0828 194.048 42.4937 194.402C43.9885 195.524 46.0082 194.664 47.4792 194.025C55.5657 190.56 65.7673 191.444 74.0685 196.336L74.2912 196.467C75.9186 197.458 77.773 197.986 79.6638 197.994C81.5546 198.003 83.4134 197.493 85.0494 196.516L102.177 202.12Z" fill="#5A0037"/>
</g>
<path d="M82.9104 210.182C95.6297 204.639 107.433 197.087 117.896 187.799C114.716 184.145 111.4 180.639 108.076 177.148C98.8899 187.069 87.5195 194.564 74.9272 198.999C77.78 202.577 80.4449 206.311 82.9104 210.182Z" fill="#90BDEA"/>
<path d="M99.3457 281.1L157.82 279.74C159.991 268.27 135.023 213.607 129.346 203.603C126.046 197.949 122.199 192.654 117.864 187.799C107.401 197.087 95.5977 204.638 82.8785 210.182C93.3186 226.592 96.8251 261.486 99.3457 281.1Z" fill="#78DBA1"/>
<mask id="mask0_24_10063" style="mask-type:luminance" maskUnits="userSpaceOnUse" x="82" y="187" width="76" height="95">
<path d="M99.3457 281.1L157.82 279.74C159.991 268.27 135.023 213.607 129.346 203.603C126.046 197.949 122.199 192.654 117.864 187.799C107.401 197.087 95.5977 204.638 82.8785 210.182C93.3186 226.592 96.8251 261.486 99.3457 281.1Z" fill="white"/>
</mask>
<g mask="url(#mask0_24_10063)">
<path d="M114.318 287.565C111.702 286.84 109.342 285.359 107.517 283.296C105.692 281.233 104.477 278.676 104.018 275.925C103.558 273.174 103.872 270.345 104.922 267.772C105.972 265.199 107.715 262.99 109.945 261.405C113.014 259.217 116.815 258.349 119.9 256.178C122.985 254.007 125.227 249.558 123.168 246.346C122.499 245.425 121.594 244.713 120.555 244.291C119.516 243.868 118.384 243.752 117.284 243.954C115.087 244.394 113.071 245.511 111.503 247.157C108.235 250.295 106.033 255.104 107.265 259.529C108.649 264.502 114.294 267.468 119.192 266.427C124.09 265.387 127.939 260.962 129.243 255.965C130.547 250.967 129.497 245.551 127.239 240.939C125.474 237.326 122.906 233.803 123.065 229.764C123.271 224.504 128.066 220.661 132.861 218.826C135.715 217.728 138.824 217.065 141.806 217.695C144.788 218.326 147.603 220.489 148.406 223.512C149.694 228.346 145.114 233.344 140.263 233.582C135.413 233.819 130.929 230.624 128.002 226.626C124.591 221.948 122.214 215.672 116.815 213.861C114.645 213.207 112.319 213.389 110.27 214.374C108.222 215.359 106.591 217.078 105.683 219.211C105.194 220.428 104.998 221.749 105.11 223.061C105.222 224.373 105.64 225.638 106.327 226.749C107.05 227.835 108.074 228.672 109.266 229.15C110.457 229.628 111.761 229.724 113.006 229.428C116.831 228.33 118.397 223.258 117.316 219.318C116.234 215.377 113.34 212.296 110.748 209.207C108.156 206.119 105.588 202.571 105.46 198.483C105.293 193.223 109.15 188.774 113.213 185.579C115.598 183.736 118.159 182.056 121.069 181.524C123.979 180.991 127.279 181.794 129.116 184.186C130.952 186.579 130.968 189.79 131.644 192.707C132.389 195.906 133.96 198.838 136.189 201.193C138.419 203.548 141.224 205.238 144.31 206.085C147.395 206.932 150.645 206.904 153.716 206.004C156.787 205.105 159.565 203.366 161.756 200.974C162.861 199.761 163.847 198.278 163.863 196.615C163.879 194.952 162.527 193.215 160.921 193.412C159.545 193.584 158.615 195.05 158.536 196.492C158.568 197.911 158.891 199.307 159.482 200.589C165.196 215.942 166.76 232.606 164.006 248.804C162.209 259.225 157.915 270.204 148.851 275.177C145.146 277.209 140.939 278.061 137.099 279.806C133.258 281.551 129.553 284.624 128.798 288.876C128.177 292.407 129.593 296.438 127.684 299.42C125.776 302.402 121.323 302.509 117.761 302.181C111.925 301.649 105.778 300.993 101.063 297.47C94.6465 292.718 92.3804 283.747 93.0404 275.636C93.7003 267.525 96.7457 259.856 98.988 252.048C101.23 244.241 102.646 235.736 100.045 228.051C98.3339 223.307 95.2253 219.232 91.1547 216.398C87.0841 213.564 82.2553 212.113 77.3444 212.247" stroke="#9C69FF" stroke-width="2.37" stroke-miterlimit="10"/>
</g>
<g style="mix-blend-mode:overlay" opacity="0.27">
<path d="M157.868 279.74C158.377 277.028 157.383 271.924 155.482 265.566L136.001 266.017C129.604 266.166 123.373 263.911 118.471 259.673C113.569 255.435 110.332 249.504 109.364 242.986C106.788 225.65 102.916 206.56 95.9982 195.639C94.8532 193.845 93.6685 192.067 92.436 190.33C86.9593 193.918 81.0869 196.819 74.943 198.974C77.7837 202.562 80.4379 206.304 82.8944 210.182C93.3027 226.567 96.8093 261.486 99.3696 281.1L157.868 279.74Z" fill="#5A0037"/>
</g>
<path d="M24.9926 119.486C27.5477 120.256 30.1265 121.108 32.7293 122.042C33.2382 122.214 33.7391 122.403 34.248 122.591H34.3275L35.5521 123.05L36.5141 123.419L37.3093 123.714L38.828 124.32C39.4244 124.558 40.0128 124.803 40.6091 125.057C41.2055 125.311 41.5553 125.451 42.0403 125.655L43.4557 126.27L44.5848 126.77L46.4215 127.589C47.4155 128.056 48.4014 128.523 49.3953 129.015L50.3893 129.506L51.3911 130.006L52.3851 130.522C52.7508 130.702 53.1166 130.907 53.4824 131.096L54.3809 131.571L55.3429 132.095C55.8518 132.374 56.3687 132.652 56.8776 132.914L57.9828 133.537L59.3822 134.356L60.5909 133.586L61.4496 132.988C62.2448 132.415 63.1035 131.857 63.9384 131.35C64.4472 131.005 64.9641 130.678 65.4889 130.358C66.0137 130.039 66.284 129.834 66.7293 129.58C67.1746 129.326 67.5244 129.064 67.9777 128.818L68.9636 128.244C69.4725 127.941 69.9893 127.646 70.4982 127.36L71.3809 126.876L72.2396 126.417L73.2653 125.868L73.4562 125.778L74.5296 125.229C74.6217 125.174 74.7173 125.124 74.8159 125.082L75.8972 124.558L76.9706 124.05L77.1615 123.959L77.3046 123.894L78.5212 123.353L79.8332 122.78C81.002 122.288 82.1709 121.821 83.3556 121.387C84.0553 121.125 84.7709 120.871 85.4786 120.633H85.5422C86.1386 120.428 86.7429 120.232 87.3392 120.051H87.4187L88.3252 119.781L89.9791 119.314C90.4005 119.208 90.8219 119.093 91.2433 118.995L92.5712 118.675L93.8673 118.388C94.2728 118.306 94.6624 118.216 95.1156 118.142L95.6245 118.052H95.7915H95.8313L96.2447 117.979H96.3481H96.3958C96.4912 117.979 96.5946 117.979 96.698 117.929L97.0478 117.872C97.3182 117.823 97.5965 117.774 97.843 117.741C98.3041 117.667 98.7653 117.602 99.2344 117.553C99.7036 117.503 100.133 117.438 100.586 117.389C92.0941 114.529 84.0712 111.785 76.2153 109.31L72.3907 108.131C70.7129 107.615 69.0352 107.123 67.3734 106.648C65.1708 106.009 62.9683 105.394 60.7658 104.821L59.748 104.559C57.7681 105.378 55.7723 106.197 53.6811 107.066L49.9281 108.622C48.6479 109.155 47.3518 109.687 46.0558 110.261C39.154 112.965 32.0137 116.094 24.9926 119.486Z" fill="#F6D386"/>
<g style="mix-blend-mode:overlay" opacity="0.44">
<path d="M24.9925 119.486C27.5476 120.256 30.1264 121.108 32.7292 122.042C33.2381 122.214 33.739 122.403 34.2479 122.591H34.3274L35.552 123.05L36.514 123.419L37.3092 123.714L38.8279 124.32C39.4243 124.558 40.0127 124.803 40.609 125.057C41.2054 125.311 41.5552 125.451 42.0402 125.655L43.4556 126.27L44.5847 126.77L46.4214 127.589C47.4154 128.056 48.4013 128.523 49.3952 129.015L50.3892 129.506L51.391 130.006L52.385 130.522C52.7507 130.702 53.1165 130.907 53.4823 131.096L54.3808 131.571L55.3428 132.095C55.8517 132.374 56.3686 132.652 56.8775 132.914L57.9827 133.537L59.3821 134.356L59.5889 117.594L59.6366 114.792V114.57V112.457V111.924L59.7479 104.37L53.4584 106.664L53.681 106.877L49.928 108.434C48.6478 108.966 47.3517 109.499 46.0557 110.072C39.1539 112.965 32.0136 116.094 24.9925 119.486Z" fill="#5A0037"/>
</g>
<path d="M26.9884 156.027C26.9248 157.477 26.8453 158.911 26.7419 160.32C26.8771 158.911 26.9884 157.477 26.9884 156.027Z" fill="#F6D386"/>
<path d="M26.7737 160.319C26.6385 162.196 26.4795 164.039 26.2727 165.825C26.4795 164.039 26.6465 162.196 26.7737 160.319Z" fill="#F6D386"/>
<path d="M25.5492 123.312C25.4855 122.878 25.4299 122.452 25.3663 122.018C25.6048 123.73 25.8275 125.491 26.0183 127.286C25.9706 126.827 25.9229 126.384 25.8751 125.942C25.7718 125.057 25.6605 124.181 25.5492 123.312Z" fill="#F6D386"/>
<path d="M25.096 120.117C25.1914 120.748 25.2789 121.379 25.3743 122.018C25.3107 121.592 25.255 121.199 25.1994 120.748L25.096 120.117Z" fill="#F6D386"/>
<path d="M24.9845 119.486C24.9845 119.699 25.0481 119.904 25.0879 120.117L24.9925 119.486H24.9845Z" fill="#F6D386"/>
<path d="M26.2807 165.826C30.8395 167.967 35.287 170.13 39.6231 172.315L42.0562 173.568C49.0375 177.165 55.7405 180.942 62.0698 185.038C62.8129 175.086 62.6798 165.086 61.6722 155.159C61.0361 148.129 60.1535 141.149 59.3504 134.422C57.9987 133.603 56.6629 132.874 55.3111 132.145L54.349 131.62L53.4505 131.145C53.0848 130.957 52.719 130.752 52.3532 130.572L51.3593 130.055L50.3574 129.556L49.3635 129.064C48.3696 128.573 47.3836 128.106 46.3897 127.639L44.553 126.819L43.4238 126.319L42.0085 125.705C41.5235 125.5 41.0544 125.295 40.5773 125.107C40.1002 124.918 39.3925 124.607 38.7961 124.37C37.2695 123.747 35.7508 123.165 34.248 122.608C33.7391 122.42 33.2381 122.231 32.7293 122.059C30.1318 121.125 27.5529 120.273 24.9926 119.503C25.5174 122.829 25.9547 126.36 26.3046 130.006C26.3046 130.252 26.3284 130.498 26.3761 130.744C26.3761 131.235 26.4636 131.71 26.4954 132.21C26.5272 132.71 26.5829 133.193 26.6147 133.693C26.726 135.176 26.8294 136.675 26.9089 138.175C26.9089 138.683 26.9645 139.182 26.9884 139.682C27.1077 142.427 27.1713 145.196 27.1872 147.941C27.1872 148.432 27.1872 148.932 27.1872 149.424C27.1872 150.669 27.1872 151.881 27.1315 153.119C27.1315 153.61 27.1315 154.102 27.1315 154.585L27.0679 156.043C27.0043 157.494 26.9248 158.919 26.8214 160.328C26.6465 162.196 26.4795 164.04 26.2807 165.826Z" fill="#EC9E3A"/>
<g style="mix-blend-mode:overlay" opacity="0.34">
<path d="M26.2808 165.825C30.8395 167.966 35.287 170.129 39.6232 172.314L42.0563 173.568C49.0376 177.164 55.7405 180.941 62.0698 185.038L24.9926 119.494C25.5174 122.82 25.9548 126.352 26.3046 129.997C26.3046 130.243 26.3285 130.489 26.3762 130.735C26.3762 131.226 26.4637 131.702 26.4955 132.201C26.5273 132.701 26.583 133.185 26.6148 133.684C26.7261 135.167 26.8294 136.667 26.909 138.166C26.909 138.674 26.9646 139.174 26.9884 139.673C27.1077 142.418 27.1713 145.187 27.1872 147.932C27.1872 148.423 27.1872 148.923 27.1872 149.415C27.1872 150.66 27.1872 151.873 27.1316 153.11C27.1316 153.601 27.1316 154.093 27.1316 154.576L27.0679 156.035C27.0043 157.485 26.9248 158.91 26.8214 160.32C26.6465 162.196 26.4795 164.039 26.2808 165.825Z" fill="#5A0037"/>
</g>
<path d="M62.0698 185.054C68.606 180.08 75.5622 175.72 82.8547 172.027C83.6498 171.626 84.445 171.208 85.2401 170.839C91.1184 167.984 97.1685 165.521 103.353 163.466C103.162 162.483 102.964 161.491 102.749 160.484C102.646 159.976 102.542 159.468 102.431 158.96C102.32 158.452 102.216 157.927 102.105 157.403C101.994 156.879 101.874 156.362 101.763 155.83C100.212 148.571 98.5825 140.534 98.5825 132.275V131.521C98.5825 130.637 98.5825 129.752 98.67 128.875C98.67 128.343 98.7335 127.81 98.7812 127.286C98.7812 127.032 98.7813 126.786 98.8449 126.532C98.8846 126.114 98.9323 125.713 98.98 125.27C99.2864 122.539 99.8184 119.839 100.57 117.2L99.2186 117.356L98.1611 117.503L97.4852 117.602L97.0001 117.684L96.3004 117.798C95.4735 117.94 94.6465 118.096 93.8196 118.265L92.5315 118.552C92.0862 118.65 91.6409 118.757 91.2036 118.872C90.7663 118.986 90.3528 119.085 89.9314 119.199C89.3748 119.347 88.8262 119.494 88.2775 119.658L87.3711 119.928L86.3851 120.24L85.4946 120.535L84.6119 120.838L83.3 121.305C82.1232 121.742 80.9543 122.206 79.7934 122.698L78.4735 123.271L77.2569 123.812C77.2077 123.833 77.1599 123.858 77.1138 123.886L75.8813 124.459H75.8336L74.7602 124.983C74.6617 125.026 74.566 125.075 74.4739 125.131L73.3926 125.68C73.3267 125.708 73.2629 125.741 73.2017 125.778L72.176 126.311L71.3173 126.778L70.4347 127.269C69.9258 127.556 69.409 127.843 68.9001 128.146L67.9141 128.719L66.7452 129.49C66.3238 129.744 65.9103 130.006 65.4969 130.268C63.4295 131.571 61.3781 132.963 59.3664 134.414C60.1615 141.132 61.0521 148.12 61.6802 155.15C62.6901 165.085 62.8205 175.095 62.0698 185.054Z" fill="#F2BE57"/>
<g style="mix-blend-mode:soft-light">
<path d="M46.0715 110.048C50.3891 111.441 54.818 113.006 59.3741 114.702L59.6127 114.792L62.6899 115.947C68.2558 118.069 74.0285 120.339 79.8409 122.649V122.698C75.3245 135.627 82.3535 167.71 82.8465 172.028C83.6417 171.627 84.4368 171.209 85.2319 170.84C84.8105 168.325 83.419 160.37 82.2422 151.406C80.3975 137.274 80.3657 127.237 82.7591 122.674C82.9897 122.231 83.2202 121.789 83.4429 121.346L83.3554 121.306C77.4158 118.905 71.5715 116.529 65.8624 114.301L63.1192 113.244L62.5467 113.014L61.9026 112.768L59.6683 111.949L58.6665 111.572C55.7165 110.474 52.8063 109.434 49.92 108.459C48.6955 109.008 47.3994 109.499 46.0715 110.048Z" fill="white"/>
<path d="M39.6231 172.323C40.4182 172.732 41.2531 173.142 42.0641 173.568C48.0197 162.524 43.8214 132.153 43.3443 126.352L43.4238 126.303C49.9836 122.763 56.4402 119.24 62.7217 115.939L65.9023 114.3C69.4247 112.481 72.8915 110.744 76.2867 109.13C75.0092 108.721 73.7344 108.325 72.4621 107.942C69.2339 109.581 65.9341 111.22 62.5866 113.014L59.406 114.702C53.2755 117.979 46.9701 121.485 40.5693 124.992V125.082C40.5693 125.377 40.6408 125.672 40.6805 125.967C40.3545 126.139 45.8251 161.598 39.6231 172.323Z" fill="white"/>
</g>
<path d="M11.4196 48.8467C11.6502 49.4775 11.8967 50.1084 12.1432 50.7392C20.9851 73.1879 40.9987 94.7845 52.552 106.009C52.6315 106.074 52.7031 106.156 52.7746 106.222C54.6989 108.09 56.3845 109.663 57.7283 110.9C58.0861 111.228 58.4201 111.531 58.7302 111.801L60.1933 113.112C60.8612 113.702 61.2269 114.005 61.2269 114.005L62.1811 112.588C62.3322 112.342 62.515 112.072 62.7059 111.769C63.6282 110.351 64.9323 108.311 66.4669 105.796C73.321 94.5633 84.8186 73.8434 87.8879 56.589C87.9912 55.9991 88.0866 55.4174 88.1661 54.8439" stroke="#5A0037" stroke-width="1.3" stroke-linejoin="round"/>
<path d="M61.219 114.005L57.5693 87.0996" stroke="#5A0037" stroke-width="1.3" stroke-miterlimit="10"/>
<path d="M0.534294 19.3356C3.00716 7.41482 15.1489 -1.3844 26.8454 0.180452C28.2272 0.364591 29.5882 0.688407 30.9085 1.14722C32.1865 1.58398 33.4261 2.13216 34.6138 2.78581C41.9927 6.96421 47.2883 15.2227 47.5427 23.9236C47.5427 24.4725 47.5427 25.0297 47.5427 25.5622C47.9164 24.6692 48.3379 23.7925 48.7513 22.9159C49.8813 20.6297 51.212 18.4549 52.727 16.4189C57.1877 10.4544 63.2148 5.76804 70.22 3.99017C70.7686 3.85089 71.3252 3.728 71.8739 3.62968C81.8608 1.84362 93.112 6.59553 97.3182 16.0666C99.6082 21.2118 99.7036 26.8239 98.5109 32.3869C97.2634 37.7707 95.3303 42.9609 92.7621 47.8224C84.9777 63.2743 71.6274 79.1523 59.438 91.8513L58.3327 92.9902C54.8182 84.7972 48.1947 77.9643 41.1339 72.5078C31.7911 65.298 21.2556 59.6695 12.7953 51.3782C4.33508 43.0869 -1.90677 31.1006 0.534294 19.3356Z" fill="#EA5A68"/>
<g style="mix-blend-mode:overlay">
<mask id="mask1_24_10063" style="mask-type:luminance" maskUnits="userSpaceOnUse" x="0" y="0" width="100" height="93">
<path d="M0.534294 19.3356C3.00716 7.41482 15.1489 -1.3844 26.8454 0.180452C28.2272 0.364591 29.5882 0.688407 30.9085 1.14722C32.1865 1.58398 33.4261 2.13216 34.6138 2.78581C41.9927 6.96421 47.2883 15.2227 47.5427 23.9236C47.5427 24.4725 47.5427 25.0297 47.5427 25.5622C47.9164 24.6692 48.3379 23.7925 48.7513 22.9159C49.8813 20.6297 51.212 18.4549 52.727 16.4189C57.1877 10.4544 63.2148 5.76804 70.22 3.99017C70.7686 3.85089 71.3252 3.728 71.8739 3.62968C81.8608 1.84362 93.112 6.59553 97.3182 16.0666C99.6082 21.2118 99.7036 26.8239 98.5109 32.3869C97.2634 37.7707 95.3303 42.9609 92.7621 47.8224C84.9777 63.2743 71.6274 79.1523 59.438 91.8513L58.3327 92.9902C54.8182 84.7972 48.1947 77.9643 41.1339 72.5078C31.7911 65.298 21.2556 59.6695 12.7953 51.3782C4.33508 43.0869 -1.90677 31.1006 0.534294 19.3356Z" fill="white"/>
</mask>
<g mask="url(#mask1_24_10063)">
<path d="M-0.968284 54.639C9.41409 48.7597 17.8289 39.7836 23.172 28.8886C24.4585 26.5077 25.2848 23.8923 25.6051 21.1872C25.7528 19.8335 25.6076 18.4628 25.18 17.1738C24.7524 15.8847 24.0531 14.7092 23.1323 13.7317C21.208 11.8719 17.9798 11.3885 15.8886 13.0353C15.001 13.8263 14.3721 14.8803 14.0875 16.0533C13.8028 17.2263 13.8765 18.4613 14.2983 19.5896C14.7459 20.7082 15.419 21.7161 16.273 22.5466C17.1269 23.3771 18.1424 24.0112 19.252 24.4071C24.3011 26.3652 30.2805 23.9728 33.6996 19.6715C37.1187 15.3702 38.2637 9.55326 38.1206 3.99844C37.9052 -3.39919 35.5702 -10.5657 31.4096 -16.5986" stroke="#EA5A68" stroke-width="2.2" stroke-miterlimit="10"/>
<path d="M52.6634 -4.6123C50.5563 3.90017 55.9315 13.6334 64.1134 16.1077C68.4628 17.4185 73.0984 16.8696 77.6307 16.7221C82.163 16.5747 87.0054 16.9679 90.6153 19.7945C93.5334 22.0803 95.243 25.7016 95.9904 29.4048C96.7379 33.108 96.6185 36.9177 96.4913 40.6947C96.3482 45.2172 96.0143 50.1903 92.9291 53.402C89.2238 57.2608 83.2285 56.9495 77.9647 56.6791C71.365 56.376 64.6461 56.6218 58.3328 58.6454C52.0194 60.6691 46.0718 64.6673 42.6925 70.5006C39.3131 76.334 38.7168 84.1337 42.271 89.8933C46.4375 96.6935 55.1602 99.2333 62.9445 98.2911C68.6854 97.5947 74.4502 95.1368 78.0521 90.4914C81.6541 85.846 82.656 78.8001 79.4436 73.8434C76.2313 68.8866 68.5503 67.3709 64.3997 71.533C60.6546 75.2853 61.0601 82.0117 64.2088 86.2803C67.3576 90.5488 72.5339 92.8346 77.6546 93.8751" stroke="#EA5A68" stroke-width="2.2" stroke-miterlimit="10"/>
<path d="M21.8839 80.955C27.0282 78.926 31.4137 75.2651 34.4072 70.5008C35.4738 68.9123 36.1828 67.0985 36.4825 65.1917C36.629 64.2392 36.5664 63.2649 36.2995 62.3405C36.0325 61.4161 35.568 60.5651 34.94 59.8499C33.0157 57.8918 29.9465 57.8836 27.2669 58.3015C18.446 59.7091 10.3559 64.1777 4.33521 70.9678" stroke="#EA5A68" stroke-width="2.2" stroke-miterlimit="10"/>
<path d="M101.588 7.61113C98.1883 9.71178 94.2883 10.7967 90.3243 10.7446C86.3603 10.6925 82.4885 9.50549 79.1416 7.31619C75.8567 5.02929 73.2547 1.84514 71.627 -1.87954C69.9994 -5.60422 69.4103 -9.72231 69.926 -13.7725" stroke="#EA5A68" stroke-width="2.2" stroke-miterlimit="10"/>
<path d="M93.8276 59.3094C95.011 54.9952 95.1924 50.4546 94.3571 46.0548C93.5218 41.6551 91.6934 37.5196 89.0196 33.9828C86.3458 30.4461 82.9016 27.6074 78.9658 25.6963C75.03 23.7851 70.7129 22.8553 66.3636 22.9818C60.6784 23.1457 55.2317 25.1038 49.8805 27.193C48.0676 28.0274 46.1381 28.5611 44.1634 28.7743C43.1765 28.8616 42.1838 28.7015 41.2699 28.3078C40.3561 27.914 39.5483 27.2982 38.9156 26.513C37.4446 24.4074 37.9534 21.4006 39.2415 19.1394C40.5297 16.8781 42.4221 15.1412 43.9408 13.0438C45.7946 10.3568 46.9117 7.20489 47.1748 3.91929C47.4378 0.633696 46.8371 -2.66424 45.4357 -5.62793" stroke="#EA5A68" stroke-width="2.2" stroke-miterlimit="10"/>
<path d="M-4.88059 44.0133C-1.4199 41.2117 1.30133 37.5583 3.03263 33.3892C4.76393 29.22 5.4497 24.6692 5.02682 20.1554C4.56564 15.6985 3.02307 11.4299 2.38697 6.99754C1.75086 2.56516 2.20407 -2.41615 5.15402 -5.69333C8.10398 -8.97051 14.1152 -9.40474 16.4609 -5.63598C18.4328 -2.41615 17.4468 2.49962 20.4683 4.62159C22.5357 6.07994 25.5413 5.16233 27.219 3.24518C28.8968 1.32803 29.5329 -1.3101 29.9463 -3.85811C30.3598 -6.40612 30.6461 -9.03605 31.7593 -11.3301" stroke="#EA5A68" stroke-width="2.2" stroke-miterlimit="10"/>
</g>
</g>
<g style="mix-blend-mode:overlay">
<path d="M11.9285 11.6832C3.65117 19.3763 5.09034 32.8701 11.2606 41.4973C15.2363 47.4372 20.8897 51.9597 26.6624 55.8923C35.2101 61.6929 44.4178 66.6333 51.2083 74.7361C43.4795 62.7662 29.9304 57.0639 19.7129 47.855C14.6876 43.3817 10.2905 37.8269 8.39017 31.1742C6.4898 24.5215 7.40421 16.9512 11.9285 11.6504V11.6832Z" fill="#5A0037"/>
</g>
<g style="mix-blend-mode:soft-light">
<path d="M73.353 8.98745C72.3591 10.9783 76.2632 15.083 82.0995 18.1636C87.9358 21.2441 93.3984 22.1617 94.3843 20.1381C95.3703 18.1144 91.4742 14.0507 85.6379 10.9701C79.8016 7.8896 74.3469 7.00476 73.353 8.98745Z" fill="white"/>
<path d="M19.5462 5.20249C18.5523 7.18519 22.4564 11.2981 28.2927 14.3704C34.129 17.4428 39.6154 18.3358 40.6014 16.3531C41.5874 14.3704 37.6912 10.2575 31.8549 7.177C26.0186 4.09645 20.5322 3.21161 19.5462 5.20249Z" fill="white"/>
</g>
</svg>
