<svg width="1908" height="798" viewBox="0 0 1908 798" fill="none" xmlns="http://www.w3.org/2000/svg">
<path opacity="0.71" d="M0 667.506C87.1383 577.772 252.651 568.322 350.85 647.453C393.532 681.842 422.758 728.603 463.759 764.669C526.227 819.653 703.129 787.752 788.221 777.076C873.313 766.401 952.093 718.342 996.801 649.905C1011.39 627.562 1022.44 598.979 1009.27 575.968C990.315 542.643 929.816 549.315 910.512 582.46C891.208 615.606 907.057 659.066 936.785 684.601C966.513 710.136 1006.8 721.642 1045.95 730.875C1179.15 762.307 1403.34 781.891 1540.61 778.194C1607.54 776.391 1676.67 769.737 1734.97 738.954C1793.27 708.171 1838.13 647.741 1829.31 585.67C1823.67 545.997 1790.1 511.247 1750.89 498.425C1699.97 481.762 1711.2 410.422 1765.12 408.925C1766.14 408.925 1767.19 408.925 1768.21 408.925C1793.01 409.232 1817.28 419.619 1841.89 416.716C1886.29 411.486 1912.99 362.399 1904.4 321.374C1895.81 280.348 1861.93 247.96 1825.41 223.795C1691.48 135.089 1499.81 130.617 1361.28 212.975C1327.94 232.686 1293.31 258.185 1254.03 254.326C1204.55 249.439 1175.52 202.029 1139.11 170.398C1058.94 100.663 932.828 105.514 827.891 134.746C722.954 163.979 622.496 213.246 513.236 218.962C459.957 221.739 403.685 212.849 361.931 181.922C320.176 150.994 297.726 94.2616 319.983 49.0159C342.241 3.77025 415.306 -14.9844 452.582 20.6134" stroke="white" stroke-width="3" stroke-miterlimit="10"/>
</svg>
