<?xml version="1.0" encoding="iso-8859-1"?>
<!-- Generator: Adobe Illustrator 19.0.0, SVG Export Plug-In . SVG Version: 6.00 Build 0)  -->
<!-- License: CC0. Made by SVG Repo: https://www.svgrepo.com/svg/194600/package-delivery -->
<svg version="1.1" id="Layer_1" xmlns="http://www.w3.org/2000/svg" xmlns:xlink="http://www.w3.org/1999/xlink" x="0px" y="0px"
	 viewBox="0 0 512 512" style="enable-background:new 0 0 512 512;" xml:space="preserve">
<g>
	<g>
		<path d="M396.8,179.2c-63.625,0-115.2,51.576-115.2,115.2s51.575,115.2,115.2,115.2S512,358.025,512,294.4
			S460.425,179.2,396.8,179.2z M396.8,384c-49.408,0-89.6-40.192-89.6-89.6s40.192-89.6,89.6-89.6c49.408,0,89.6,40.192,89.6,89.6
			S446.208,384,396.8,384z"/>
	</g>
</g>
<g>
	<g>
		<path d="M455.1,258.15c-5.828-3.891-13.824-2.364-17.749,3.55l-40.55,60.826L356.25,261.7c-3.951-5.914-11.921-7.45-17.749-3.55
			c-5.871,3.925-7.475,11.861-3.55,17.749l51.2,76.8c2.372,3.567,6.374,5.7,10.65,5.7c4.275,0,8.277-2.133,10.65-5.7l51.2-76.8
			C462.575,270.012,460.979,262.076,455.1,258.15z"/>
	</g>
</g>
<g>
	<g>
		<path d="M396.8,153.6c4.318,0,8.576,0.265,12.8,0.648V128c0-8.559-4.275-16.555-11.401-21.299l-76.8-51.2
			c-4.207-2.807-9.148-4.301-14.199-4.301H102.4c-5.052,0-9.993,1.493-14.199,4.301l-76.8,51.2C4.275,111.445,0,119.441,0,128v307.2
			c0,14.14,11.46,25.6,25.6,25.6H384c14.14,0,25.6-11.46,25.6-25.6h-384V140.8h128v166.4H256V140.8h128v13.449
			C388.224,153.865,392.482,153.6,396.8,153.6z M153.6,115.2H44.8l57.6-38.4h51.2V115.2z M230.4,281.6h-51.2V140.8h51.2V281.6z
			 M230.4,115.2h-51.2V76.8h51.2V115.2z M256,115.2V76.8h51.2l57.6,38.4H256z"/>
	</g>
</g>
</svg>
