<svg width="123" height="161" viewBox="0 0 123 161" fill="none" xmlns="http://www.w3.org/2000/svg">
<g id="Group 1410097574">
<path id="Vector" d="M71.6615 113.686C72.6554 110.118 71.0818 106.116 68.3603 103.938C65.6093 101.583 62.1664 101.067 58.981 100.735C57.3624 100.823 55.8175 100.808 54.2283 101.073C52.676 101.286 51.153 101.675 49.6447 102.153C48.1365 102.631 46.7312 103.183 45.3406 103.822L43.2365 104.808L42.2358 105.337L41.7354 105.602L41.4853 105.734L41.3603 105.801L41.1984 105.918C39.5651 105.918 37.9687 105.866 36.4016 105.991C31.524 106.395 26.7346 107.328 22.0847 108.828C19.723 109.629 17.4275 110.556 15.1981 111.607C21.9164 104.274 28.5683 97.9041 34.8595 92.3657C38.0822 90.4683 41.68 88.9168 45.3145 87.8581C49.7657 86.5274 54.4448 85.7486 59.1238 85.5142C60.9336 85.4851 62.7948 85.4928 64.6193 85.552L64.9063 85.9126L66.3405 87.7154C67.3555 88.9074 68.3557 90.0111 69.4958 91.1369C71.7245 93.3518 74.3725 95.0885 77.315 96.4134C80.2428 97.6499 83.5826 98.6364 87.0552 97.6954C90.5057 96.8942 93.53 94.0772 94.3841 90.4872C95.378 86.9194 93.8045 82.9169 91.0829 80.7388C88.3319 78.384 84.889 77.8683 81.7036 77.5366C80.0851 77.6245 78.5401 77.6095 76.951 77.874C75.3986 78.0871 73.8757 78.4767 72.3675 78.9546C70.8592 79.4325 69.454 79.9839 68.0634 80.6237L65.9591 81.6091L64.9584 82.1386L64.4582 82.4033L64.2081 82.5357L64.0829 82.6019L63.921 82.7195C62.2878 82.7192 60.6914 82.6674 59.1244 82.7921C54.2467 83.1957 49.4572 84.1291 44.8074 85.6289C43.6523 86.048 42.4971 86.4671 41.342 86.8862C57.0589 73.9267 69.2653 66.8593 71.8405 65.4326C80.131 68.6345 89.4522 68.7615 97.6851 65.6218C106.646 62.2248 112.018 56.8848 112.505 51.0878C112.807 47.1813 110.8 43.5687 107.129 41.4124C102.303 38.5864 93.5783 37.9519 83.5937 44.7402C74.5803 50.8225 69.818 62.2761 69.6266 62.7616L69.5898 62.8131C66.7645 64.3721 58.8845 69.0863 48.2448 77.1178C49.4003 75.0655 50.4158 72.991 51.277 70.8062C52.8817 66.8191 54.0376 62.5892 54.6344 58.2709C55.0101 55.8947 55.1577 53.5111 55.1655 51.1054L55.2391 51.0024L55.791 50.23C56.159 49.7151 56.4755 49.1635 56.7919 48.6118C57.4248 47.5084 57.9548 46.3314 58.3964 45.1691C59.265 42.7563 59.5966 40.1152 59.5751 37.533C59.4138 34.9286 58.7669 32.1329 56.9061 29.9475C55.0821 27.7107 51.8894 26.5182 49.0054 27.1797C46.1067 27.7529 43.627 30.0257 42.8172 32.7917C41.9706 35.6092 42.5291 38.4196 43.6101 40.8256C44.691 43.2315 46.184 45.3873 48.0229 47.168C48.9423 48.0584 49.8985 48.8972 50.84 49.6478L52.2964 50.7664C52.5539 50.9504 52.7084 51.0608 52.929 51.2962C52.9433 53.5621 52.906 55.7912 52.6039 58.0644C51.7195 65.8331 48.9076 73.4689 44.654 80.0745C38.8338 84.6272 32.3513 90.1067 25.6112 96.491C26.2958 94.3356 26.8553 92.2464 27.2604 90.0468C28.0999 85.8241 28.4172 81.4616 28.19 77.099C28.0875 74.8477 27.8084 72.6259 27.4042 70.4702L27.4631 70.279L27.809 69.3594L28.4127 67.5351C28.7514 66.2992 29.09 65.0633 29.2889 63.8053C29.6352 61.2526 29.5475 58.5453 29.033 55.9997C28.4303 53.4688 27.3053 50.798 25.0839 48.8995C22.8993 46.9495 19.4785 46.2941 16.6974 47.5736C13.9383 48.7133 11.9661 51.5821 11.7669 54.4733C11.5308 57.416 12.6191 60.1382 14.1121 62.2941C15.6566 64.4867 17.4586 66.3189 19.5329 67.879C20.5627 68.6149 21.6808 69.3361 22.7842 69.9691L24.4761 70.8669L25.219 71.2423C25.6453 73.2581 25.8951 75.3034 26.0565 77.3634C26.6582 84.7939 25.4796 92.43 22.9179 99.3891C15.1917 106.936 7.2887 115.6 -0.533671 125.567C-1.10029 126.251 -1.02696 127.237 -0.379684 127.855C-0.328194 127.892 -0.276676 127.929 -0.225186 127.966C0.510378 128.569 1.62132 128.43 2.17325 127.657C5.2345 123.7 8.33983 120.007 11.5114 116.44C15.0284 114.131 19.1412 112.403 23.2392 111.131C27.6904 109.8 32.3695 109.021 37.0485 108.787C38.8583 108.758 40.7195 108.765 42.544 108.825L42.831 109.185L44.2652 110.988C45.2287 112.143 46.2804 113.284 47.4205 114.409C49.6492 116.624 52.2973 118.361 55.2397 119.686C58.1675 120.922 61.5073 121.909 64.9799 120.968C67.783 120.093 70.8073 117.276 71.6615 113.686ZM68.6441 82.7499C70.0641 82.2867 71.4473 81.8751 72.8451 81.5517C74.243 81.2282 75.6924 80.9416 77.0829 80.8463C78.4733 80.7509 79.8931 80.8321 81.2983 80.825C83.9908 81.1934 86.8378 81.6722 88.662 83.3647C90.5229 85.0056 91.4273 87.4409 90.8235 89.8097C90.2566 92.127 88.3508 94.032 85.9596 94.6568C83.5464 95.4215 80.7583 94.7514 78.191 93.7724C75.6089 92.7051 73.1448 91.2554 70.9234 89.3568C69.8127 88.4076 68.7389 87.4069 67.7018 86.3546L67.2089 85.8469C69.0996 86.0312 70.9387 86.1786 72.8588 86.5395C75.1688 86.7901 77.4272 87.5484 79.7298 88.0271C82.0103 88.6456 84.1805 89.4185 86.3874 90.1399L86.5785 90.1987C86.5785 90.1987 86.5786 90.1987 86.63 90.2355C87.5349 90.4932 88.4473 89.9785 88.7418 89.0221C88.9994 88.1173 88.4847 87.2049 87.5283 86.9105C85.1963 86.2552 82.8864 85.4601 80.5176 84.8564C78.1267 84.3924 75.7432 83.7004 73.345 83.4645C71.6162 83.1625 69.7917 83.1032 68.0408 82.941L68.6441 82.7499ZM51.6054 48.2502C50.7375 47.3966 49.9211 46.5799 49.1414 45.7116C47.5821 43.9751 46.3466 42.0032 45.501 39.921C44.7436 37.8242 44.3762 35.6171 45.002 33.6529C45.5909 31.7402 47.2539 30.2839 49.1961 29.9606C51.0869 29.6005 53.1026 30.2631 54.4412 31.7641C55.7798 33.2652 56.3752 35.4797 56.6029 37.6648C56.7569 39.9528 56.6461 42.2849 55.9614 44.4403C55.6449 45.5364 55.24 46.6472 54.7837 47.7212C54.7469 47.7727 54.7101 47.8241 54.7248 47.9124C54.6661 47.0149 54.6957 46.1027 54.6003 45.2566C54.1965 40.9233 52.9467 36.6856 51.6233 32.5507C51.366 31.8224 50.5348 31.4617 49.8064 31.719C49.078 31.9764 48.7174 32.8076 48.9747 33.536L48.9894 33.6243C50.4084 37.5163 51.7024 41.4746 52.165 45.6166C52.3414 46.676 52.3044 47.8163 52.4439 48.9272L51.6054 48.2502ZM23.1892 68.3139C22.1741 67.6662 21.2325 66.9156 20.3278 66.1135C18.5331 64.5977 16.9591 62.7729 15.6868 60.8525C14.5027 58.9174 13.7307 56.7322 13.9371 54.7018C14.1435 52.6713 15.4313 50.8692 17.2633 50.1559C19.0953 49.4427 21.2287 49.7227 22.766 51.0546C24.3916 52.3718 25.377 54.4761 26.0092 56.6391C26.6047 58.8536 26.8617 61.2153 26.6626 63.562C26.5888 64.7538 26.4267 65.9603 26.2131 67.13L26.2278 67.2183C25.9778 66.2618 25.8162 65.2907 25.5147 64.2975C24.3164 60.0965 22.2647 56.219 20.0878 52.4077C19.7054 51.7455 18.8006 51.4878 18.1016 51.9217C17.4394 52.3041 17.1818 53.209 17.6157 53.908L17.6303 53.9963C19.7631 57.5427 21.7708 61.1553 23.028 65.165C23.4618 66.4084 23.7705 67.718 24.116 68.9761L23.1892 68.3139ZM96.1702 62.5169C89.4676 65.039 82.0004 65.1477 75.078 63.079C79.6253 59.328 92.4502 49.9801 108.746 49.4905C108.819 49.932 108.856 50.4248 108.804 50.9325C108.45 55.3465 103.851 59.6052 96.1702 62.5169ZM85.2042 47.6024C93.8424 41.7187 101.17 42.1321 105.135 44.4209C105.789 44.811 106.356 45.2158 106.848 45.7235C107.003 45.8339 107.069 45.9589 107.187 46.1207C93.0026 47.0301 81.6128 53.8255 75.6014 58.3193C77.7356 54.7885 80.9661 50.4854 85.2042 47.6024ZM63.4872 117.723C61.0739 118.488 58.2858 117.818 55.7185 116.839C53.1365 115.772 50.6723 114.322 48.4509 112.423C47.3402 111.474 46.2662 110.473 45.2291 109.421L44.7364 108.913C46.6271 109.098 48.4662 109.245 50.3863 109.606C52.6963 109.857 54.9546 110.615 57.2572 111.093C59.5377 111.712 61.7078 112.485 63.9147 113.206L64.106 113.265C64.106 113.265 64.1061 113.265 64.1576 113.302C65.0624 113.56 65.9747 113.045 66.2691 112.088C66.5268 111.184 66.012 110.271 65.0557 109.977C62.7237 109.322 60.4139 108.527 58.0451 107.923C55.6542 107.459 53.3222 106.804 50.8725 106.531C49.1437 106.229 47.3192 106.17 45.5683 106.008L46.1201 105.78C47.5401 105.316 48.9232 104.905 50.3211 104.581C51.719 104.258 53.1683 103.971 54.5588 103.876C55.9493 103.781 57.3691 103.862 58.7742 103.855C61.4668 104.223 64.3138 104.702 66.1379 106.394C67.9989 108.035 68.9033 110.471 68.2995 112.839C67.8355 115.23 65.9297 117.135 63.4872 117.723Z" fill="#FF7555"/>
</g>
</svg>
