<svg width="209" height="363" viewBox="0 0 209 363" fill="none" xmlns="http://www.w3.org/2000/svg">
<path d="M356.234 300.169L301.933 362.811L300.808 361.57C279.953 339.157 259.89 316.83 240.485 295.206C205.716 256.53 172.886 220.001 135.59 182.469C119.96 167.186 104.435 159.397 89.4279 151.858C82.1289 148.199 75.2005 144.727 68.2875 140.469C62.8672 137.104 56.6167 133.62 50.0615 129.872C29.5507 118.295 10.19 107.314 8.26129 98.3061C7.83495 96.3358 8.24387 94.556 9.41702 92.9719C13.9547 86.9678 20.5885 91.3176 23.47 93.1485C50.6271 110.754 61.8109 112.778 62.9003 111.522C62.9003 111.522 62.9003 111.522 62.9333 111.484C62.9663 111.446 65.0639 106.794 34.8279 80.5844C34.4852 80.2874 5.61748 55.7305 5.42708 55.5654C-0.0463831 50.9542 -0.441883 45.4091 1.56676 42.0147C3.3494 38.958 6.7619 37.7143 9.9913 38.913C16.4501 41.3104 29.362 52.0362 42.9974 63.3891C54.3531 72.8326 71.4386 86.9762 75.0744 86.8598C74.4096 82.5486 53.8665 64.0073 41.4929 52.8144C35.8798 47.7486 30.6095 42.98 26.6999 39.2575C25.2808 37.8939 23.9429 36.6675 22.6482 35.5451C16.6493 30.0782 11.841 25.7767 15.0686 19.4374C16.3561 16.9519 18.6947 15.1774 21.4799 14.6572C25.004 13.9771 28.698 15.1785 31.9729 18.0173C45.5778 29.9441 58.9617 43.2799 69.6597 54.0207C78.5476 62.9257 87.7401 72.0947 91.2918 74.3064C91.0989 73.6057 90.7005 72.5265 89.977 70.899C86.134 62.0987 71.9967 41.7071 51.1828 14.8609C50.5913 14.0814 50.2765 13.6751 50.2385 13.6421C47.6518 8.93209 49.2289 4.49675 51.9915 2.15614C54.584 -0.0651628 59.0272 -0.88229 62.9673 2.26639C75.7676 12.4285 89.5013 30.6696 102.763 48.3013C115.276 64.9503 127.115 80.6828 136.481 87.2672C140.657 90.2204 141.708 89.931 141.741 89.8929C142.683 88.5753 139.579 79.6152 137.292 73.0975C132.224 58.6327 125.934 40.5752 130.96 30.392C132.613 27.023 136.584 24.5963 139.79 24.9749C141.304 25.1528 143.906 26.0747 144.779 30.2995C146.17 36.774 152.518 50.1471 159.839 65.6303C172.455 92.2396 188.182 125.415 187.444 142.116C186.024 175.3 299.42 258.456 342.096 289.781C347.371 293.62 351.672 296.814 354.802 299.128L356.234 300.169ZM301.86 358.279L351.837 300.625C348.892 298.406 345.048 295.608 340.486 292.253C293.4 257.706 183.097 176.83 184.613 141.996C185.298 126.049 169.776 93.2523 157.29 66.9554C149.85 51.3021 143.491 37.7867 142.004 30.9619C141.626 29.1668 140.768 28.1562 139.577 27.9911C137.665 27.7344 134.9 29.5394 133.806 31.7253C129.306 40.7634 135.633 58.8539 140.293 72.0975C144.555 84.2619 146.479 90.1981 143.701 92.3255C141.972 93.6278 139.347 92.8861 134.904 89.7019C125.125 82.8254 113.165 66.9229 100.495 50.0707C87.3151 32.5762 73.7006 14.5052 61.238 4.5691C58.4353 2.33964 55.6652 3.07309 54.1163 4.39826C52.4303 5.80465 51.1682 8.64556 53.0568 12.0835L53.7245 12.929C66.0392 28.8061 87.4725 57.3231 92.8868 69.6197C94.6408 73.6746 95.3971 76.2643 93.6578 77.4244C91.1009 79.143 86.7496 75.2378 67.6308 56.1304C56.938 45.4607 43.6251 32.1198 30.0964 20.259C27.545 18.0474 24.7244 17.0695 22.1524 17.5745C20.2482 17.9247 18.6891 19.1077 17.8435 20.7757C15.7764 24.853 18.4344 27.5572 24.771 33.2502C26.0708 34.4436 27.4468 35.703 28.8659 37.0666C32.7374 40.756 38.0077 45.5247 43.5827 50.5574C68.6675 73.1692 79.0025 83.3285 78.0982 87.6802C77.8797 88.6246 77.2855 89.3101 76.3105 89.6654C72.2303 91.064 62.4334 83.4385 41.093 65.74C28.2191 55.0472 14.9265 43.9913 8.90942 41.7768C7.0383 41.0885 5.15938 41.7942 4.14362 43.5815C2.86886 45.7446 2.96244 49.5606 7.37472 53.3186C7.6032 53.5167 36.6232 78.2057 36.8136 78.3707C70.0198 107.155 66.6274 111.685 65.3552 113.383C65.3222 113.421 65.2562 113.497 65.2232 113.535C59.9416 119.628 30.7102 101.492 21.8321 95.7304C16.6632 92.3836 13.8272 92.1929 11.8339 94.8002C11.1838 95.704 10.9984 96.6104 11.1836 97.7047C12.8027 105.377 33.3516 116.988 51.4811 127.234C58.1073 130.977 64.3248 134.499 69.8161 137.859C76.62 142.089 83.4723 145.495 90.7332 149.121C105.925 156.755 121.674 164.67 137.685 180.284C175.019 217.848 207.887 254.41 242.694 293.119C261.751 314.375 281.428 336.3 301.86 358.279Z" fill="#FF5E19"/>
</svg>
