<svg width="200" height="120" viewBox="0 0 200 120" fill="none" xmlns="http://www.w3.org/2000/svg">
<path d="M-167 63.1726L-154.824 0.27342L-153.74 0.550599C-150.66 1.34894 -146.411 2.54173 -141.244 3.94607C-99.3207 15.4624 12.0316 46.0756 32.6108 29.3847C42.9004 21.0393 72.1161 15.0107 95.6277 10.1676C109.29 7.35734 121.106 4.89703 126.008 2.71442C129.051 1.31692 130.928 2.45477 131.769 3.25715C133.601 4.99246 134.057 8.51519 132.816 11.0697C128.946 18.9406 114.215 23.5979 102.366 27.3314C97.1065 28.9733 89.1442 31.54 89.2264 32.7681C89.2264 32.7681 89.384 33.6067 93.7505 34.9234C102.798 37.584 118.93 37.4406 135.99 37.2749C154.082 37.1069 172.782 36.9218 185.799 40.014C189.708 40.9391 191.398 43.96 191.326 46.5387C191.228 49.2472 189.291 52.2732 185.046 52.8994C185.046 52.8994 184.582 52.9105 183.803 52.8944C155.952 52.7896 135.647 53.7413 128.047 55.5364C126.183 55.9837 125.232 56.3047 124.758 56.5496C127.442 57.7427 138.518 59.1121 149.278 60.4544C161.634 62.0044 177.015 63.9042 191.624 66.665C195.051 67.3283 197.675 69.0148 199.021 71.4303C200.099 73.39 200.17 75.5924 199.226 77.531C196.897 82.4003 192.012 81.5558 185.237 80.3789C183.86 80.146 182.38 79.8933 180.792 79.653C176.402 79.0054 170.655 78.0275 164.571 76.9508C150.574 74.5108 127.152 70.448 125.254 72.5387C126.201 74.8096 143.984 78.6225 156.983 81.4418C171.215 84.4999 184.665 87.373 189.481 90.2245C191.841 91.6242 192.765 94.1938 191.749 96.6908C190.713 99.2851 187.335 101.864 181.317 100.631L181.077 100.585C178.102 99.9753 150.562 94.4084 150.254 94.3487C117.29 87.9677 115.91 91.6066 115.879 91.7688L115.873 91.8013C115.577 93.3267 123.158 99.34 147.964 107.644C150.568 108.518 156.635 110.602 155.162 116.007C154.776 117.448 153.865 118.483 152.455 119.153C145.779 122.238 128.132 115.152 111.042 108.308C105.3 106.018 99.8593 103.82 94.9045 102.053C88.6231 99.7931 82.8687 97.1976 76.7969 94.406C64.2889 88.6849 51.348 82.8126 33.4784 80.3636C-9.589 75.1245 -49.8307 72.1833 -92.3841 69.064C-116.15 67.3255 -140.723 65.5318 -165.707 63.2882L-167 63.1726ZM-153.17 2.74858L-164.523 61.396C-139.957 63.5925 -115.767 65.3457 -92.3904 67.0761C-49.8027 70.2021 -9.561 73.1432 33.6092 78.4022C51.7934 80.8785 64.8931 86.8489 77.5725 92.6032C83.6163 95.3557 89.3301 97.977 95.515 100.184C100.504 101.958 105.944 104.156 111.721 106.453C127.593 112.792 145.605 120.016 151.42 117.337C152.281 116.931 152.824 116.329 153.062 115.466C153.736 112.903 152.156 111.149 147.245 109.525C139.07 106.764 112.62 97.401 113.782 91.3967C113.795 91.3318 113.801 91.2993 113.814 91.2344C114.193 89.8262 115.337 85.5693 150.596 92.3948C150.802 92.4346 174.236 97.173 181.454 98.6375L181.693 98.6839C186.444 99.6708 189.008 97.8102 189.796 95.9424C190.419 94.3793 189.873 92.7921 188.403 91.9352C183.905 89.2798 169.975 86.3139 156.565 83.415C134.86 78.7419 124.503 76.232 123.358 73.1482C123.101 72.4586 123.226 71.8095 123.682 71.2916C126.136 68.5341 141.621 70.993 164.969 75.075C171.06 76.1192 176.801 77.1296 181.122 77.764C182.71 78.0042 184.224 78.2636 185.636 78.5031C192.617 79.7198 195.745 80.0896 197.389 76.7376C198.048 75.3501 197.995 73.7908 197.234 72.3976C196.211 70.5161 194.119 69.202 191.338 68.6972C176.831 65.9563 161.491 64.0306 149.129 62.5131C127.259 59.7947 122.545 58.9833 122.343 56.7219C122.239 55.4222 123.674 54.6224 127.586 53.6961C138.2 51.205 167.403 50.932 183.853 50.9847C184.454 51.0001 184.809 51.0015 184.884 50.9823C188.032 50.5142 189.244 48.2909 189.303 46.5176C189.337 44.8743 188.371 42.7007 185.409 42.0262C172.66 39.0195 154.07 39.1921 136.121 39.3542C118.883 39.5192 102.574 39.6619 93.224 36.9091C89.0567 35.6647 87.2264 34.4686 87.179 32.8768C87.1145 30.2716 91.8347 28.66 101.72 25.5228C112.585 22.1038 127.465 17.4081 130.979 10.2763C131.863 8.46095 131.581 5.88084 130.38 4.73921C129.602 3.98255 128.468 3.96502 127.03 4.5959C121.926 6.90762 110.006 9.34804 96.229 12.2033C72.9762 16.9954 44.0192 22.9731 34.1134 30.9888C12.6917 48.3584 -95.4899 18.6283 -141.662 5.91922C-146.383 4.60112 -150.227 3.52039 -153.17 2.74858Z" fill="#CFB7B1"/>
</svg>
